M48
;GenerationSoftware,Autodesk,EAGLE,9.6.2*%
;CreationDate,2023-05-14T19:01:16Z*%
FMAT,2
ICI,OFF
METRIC,TZ,000.000
T6C0.813
T5C0.900
T4C1.016
T3C1.110
T2C1.270
T1C3.200
%
G90
M71
T1
X5080Y69850
X5080Y5080
X69850Y5080
X69850Y69850
T2
X4191Y63500
T3
X19050Y58420
X19050Y55880
X19050Y53340
X19050Y50800
X19050Y48260
X19050Y45720
X19050Y43180
X19050Y40640
X19050Y38100
X19050Y35560
X19050Y33020
X19050Y30480
X34290Y30480
X34290Y33020
X34290Y35560
X34290Y38100
X34290Y40640
X34290Y43180
X34290Y45720
X34290Y48260
X34290Y50800
X34290Y53340
X34290Y55880
X19050Y25400
X19050Y22860
X19050Y20320
X19050Y17780
X19050Y15240
X19050Y12700
X19050Y10160
X19050Y7620
X19050Y5080
X34290Y5080
X34290Y7620
X34290Y10160
X34290Y12700
X34290Y15240
X34290Y17780
X34290Y20320
X34290Y22860
X34290Y25400
X19050Y27940
X21590Y17780
X24130Y17780
X26670Y17780
X29210Y17780
X31750Y17780
X22100Y46990
X22100Y49530
X22100Y52070
X22100Y54610
X22100Y57150
X34290Y58420
X34290Y63500
X19050Y60960
X31750Y60960
X34290Y27940
X34290Y60960
X19050Y63500
T4
X9779Y60960
X9779Y58420
X9779Y55880
X9779Y53340
X9779Y50800
X9779Y48260
X9779Y45720
X9779Y43180
X9779Y40640
X9779Y38100
X9779Y35560
X9779Y33020
X9779Y30480
X6985Y30480
X6985Y33020
X6985Y35560
X6985Y38100
X6985Y40640
X6985Y43180
X6985Y45720
X6985Y48260
X6985Y50800
X6985Y53340
X6985Y55880
X6985Y58420
X6985Y60960
X4191Y30480
X4191Y33020
X4191Y35560
X4191Y38100
X4191Y40640
X4191Y43180
X4191Y45720
X4191Y48260
X4191Y50800
X4191Y53340
X4191Y55880
X4191Y58420
X4191Y60960
X12573Y27940
X12573Y25400
X12573Y22860
X12573Y20320
X12573Y17780
X12573Y15240
X12573Y12700
X12573Y10160
X53340Y59690
X50800Y59690
X53340Y56896
X12573Y7620
X12573Y5080
X40640Y27940
X40640Y25400
X40640Y22860
X40640Y20320
X40640Y17780
X40640Y15240
X40640Y12700
X40640Y10160
X40640Y7620
X40640Y5080
X50800Y56896
X40640Y48260
X40640Y50800
X40640Y53340
X40640Y55880
X40640Y58420
X40640Y30480
X40640Y33020
X40640Y40640
X40640Y38100
X40640Y35560
T5
X66000Y53340
X63500Y53340
X61000Y53340
T6
X68580Y39370
X66040Y39370
X63500Y39370
X60960Y39370
X58420Y39370
X55880Y39370
X53340Y39370
X50800Y39370
M30