G04 EAGLE Gerber RS-274X export*
G75*
%MOMM*%
%FSLAX34Y34*%
%LPD*%
%INTop Copper*%
%IPPOS*%
%AMOC8*
5,1,8,0,0,1.08239X$1,22.5*%
G01*
%ADD10C,1.665000*%
%ADD11C,1.524000*%
%ADD12C,1.408000*%
%ADD13C,1.320800*%
%ADD14C,0.254000*%
%ADD15C,0.304800*%
%ADD16C,0.756400*%


D10*
X190500Y584200D03*
X190500Y558800D03*
X190500Y533400D03*
X190500Y508000D03*
X190500Y482600D03*
X190500Y457200D03*
X190500Y431800D03*
X190500Y406400D03*
X190500Y381000D03*
X190500Y355600D03*
X190500Y330200D03*
X190500Y304800D03*
X342900Y304800D03*
X342900Y330200D03*
X342900Y355600D03*
X342900Y381000D03*
X342900Y406400D03*
X342900Y431800D03*
X342900Y457200D03*
X342900Y482600D03*
X342900Y508000D03*
X342900Y533400D03*
X342900Y558800D03*
X190500Y254000D03*
X190500Y228600D03*
X190500Y203200D03*
X190500Y177800D03*
X190500Y152400D03*
X190500Y127000D03*
X190500Y101600D03*
X190500Y76200D03*
X190500Y50800D03*
X342900Y50800D03*
X342900Y76200D03*
X342900Y101600D03*
X342900Y127000D03*
X342900Y152400D03*
X342900Y177800D03*
X342900Y203200D03*
X342900Y228600D03*
X342900Y254000D03*
X190500Y279400D03*
X215900Y177800D03*
X241300Y177800D03*
X266700Y177800D03*
X292100Y177800D03*
X317500Y177800D03*
X221000Y469900D03*
X221000Y495300D03*
X221000Y520700D03*
X221000Y546100D03*
X221000Y571500D03*
X342900Y584200D03*
X342900Y635000D03*
X190500Y609600D03*
X317500Y609600D03*
X342900Y279400D03*
X342900Y609600D03*
X190500Y635000D03*
D11*
X105410Y609600D02*
X90170Y609600D01*
X90170Y584200D02*
X105410Y584200D01*
X105410Y558800D02*
X90170Y558800D01*
X90170Y533400D02*
X105410Y533400D01*
X105410Y508000D02*
X90170Y508000D01*
X90170Y482600D02*
X105410Y482600D01*
X105410Y457200D02*
X90170Y457200D01*
X90170Y431800D02*
X105410Y431800D01*
X105410Y406400D02*
X90170Y406400D01*
X90170Y381000D02*
X105410Y381000D01*
X105410Y355600D02*
X90170Y355600D01*
X90170Y330200D02*
X105410Y330200D01*
X105410Y304800D02*
X90170Y304800D01*
X77470Y304800D02*
X62230Y304800D01*
X62230Y330200D02*
X77470Y330200D01*
X77470Y355600D02*
X62230Y355600D01*
X62230Y381000D02*
X77470Y381000D01*
X77470Y406400D02*
X62230Y406400D01*
X62230Y431800D02*
X77470Y431800D01*
X77470Y457200D02*
X62230Y457200D01*
X62230Y482600D02*
X77470Y482600D01*
X77470Y508000D02*
X62230Y508000D01*
X62230Y533400D02*
X77470Y533400D01*
X77470Y558800D02*
X62230Y558800D01*
X62230Y584200D02*
X77470Y584200D01*
X77470Y609600D02*
X62230Y609600D01*
X49530Y304800D02*
X34290Y304800D01*
X34290Y330200D02*
X49530Y330200D01*
X49530Y355600D02*
X34290Y355600D01*
X34290Y381000D02*
X49530Y381000D01*
X49530Y406400D02*
X34290Y406400D01*
X34290Y431800D02*
X49530Y431800D01*
X49530Y457200D02*
X34290Y457200D01*
X34290Y482600D02*
X49530Y482600D01*
X49530Y508000D02*
X34290Y508000D01*
X34290Y533400D02*
X49530Y533400D01*
X49530Y558800D02*
X34290Y558800D01*
X34290Y584200D02*
X49530Y584200D01*
X49530Y609600D02*
X34290Y609600D01*
D12*
X610000Y533400D03*
X635000Y533400D03*
X660000Y533400D03*
D11*
X133350Y279400D02*
X118110Y279400D01*
X118110Y254000D02*
X133350Y254000D01*
X133350Y228600D02*
X118110Y228600D01*
X118110Y203200D02*
X133350Y203200D01*
X133350Y177800D02*
X118110Y177800D01*
X118110Y152400D02*
X133350Y152400D01*
X133350Y127000D02*
X118110Y127000D01*
X118110Y101600D02*
X133350Y101600D01*
X133350Y76200D02*
X118110Y76200D01*
X118110Y50800D02*
X133350Y50800D01*
X398780Y279400D02*
X414020Y279400D01*
X414020Y254000D02*
X398780Y254000D01*
X398780Y228600D02*
X414020Y228600D01*
X414020Y203200D02*
X398780Y203200D01*
X398780Y177800D02*
X414020Y177800D01*
X414020Y152400D02*
X398780Y152400D01*
X398780Y127000D02*
X414020Y127000D01*
X414020Y101600D02*
X398780Y101600D01*
X398780Y76200D02*
X414020Y76200D01*
X414020Y50800D02*
X398780Y50800D01*
D13*
X508000Y412496D02*
X508000Y425704D01*
X533400Y425704D02*
X533400Y412496D01*
X558800Y412496D02*
X558800Y425704D01*
X584200Y425704D02*
X584200Y412496D01*
X609600Y412496D02*
X609600Y425704D01*
X635000Y425704D02*
X635000Y412496D01*
X660400Y412496D02*
X660400Y425704D01*
X685800Y425704D02*
X685800Y412496D01*
D11*
X414020Y406400D02*
X398780Y406400D01*
X398780Y381000D02*
X414020Y381000D01*
X414020Y355600D02*
X398780Y355600D01*
X398780Y330200D02*
X414020Y330200D01*
X414020Y304800D02*
X398780Y304800D01*
X398780Y584200D02*
X414020Y584200D01*
X414020Y558800D02*
X398780Y558800D01*
X398780Y533400D02*
X414020Y533400D01*
X414020Y508000D02*
X398780Y508000D01*
X398780Y482600D02*
X414020Y482600D01*
X508000Y557530D02*
X508000Y572770D01*
X533400Y572770D02*
X533400Y557530D01*
X508000Y589280D02*
X508000Y604520D01*
X533400Y604520D02*
X533400Y589280D01*
D14*
X190500Y584200D02*
X97790Y584200D01*
X97790Y558800D02*
X190500Y558800D01*
X190500Y533400D02*
X97790Y533400D01*
X97790Y508000D02*
X190500Y508000D01*
X190500Y482600D02*
X97790Y482600D01*
X97790Y457200D02*
X190500Y457200D01*
X190500Y431800D02*
X97790Y431800D01*
X97790Y406400D02*
X190500Y406400D01*
X190500Y381000D02*
X97790Y381000D01*
X97790Y355600D02*
X190500Y355600D01*
X190500Y330200D02*
X97790Y330200D01*
X97790Y304800D02*
X190500Y304800D01*
X190500Y609600D02*
X97790Y609600D01*
D15*
X69850Y330200D02*
X69850Y304800D01*
X69850Y330200D02*
X69850Y355600D01*
X69850Y381000D01*
X69850Y406400D01*
X69850Y431800D01*
X69850Y457200D01*
X69850Y482600D01*
X69850Y508000D01*
X69850Y533400D01*
X69850Y558800D01*
X69850Y584200D01*
X69850Y609600D01*
X95250Y609600D01*
X95272Y611441D01*
X95339Y613281D01*
X95450Y615120D01*
X95606Y616954D01*
X95806Y618785D01*
X96050Y620610D01*
X96338Y622429D01*
X96670Y624240D01*
X97045Y626043D01*
X97464Y627836D01*
X97926Y629618D01*
X98432Y631389D01*
X98979Y633147D01*
X99570Y634891D01*
X100202Y636621D01*
X100875Y638335D01*
X101590Y640032D01*
X102346Y641711D01*
X103142Y643371D01*
X103978Y645012D01*
X104854Y646632D01*
X105768Y648230D01*
X106721Y649806D01*
X107711Y651359D01*
X108739Y652887D01*
X109803Y654389D01*
X110903Y655866D01*
X112039Y657315D01*
X113209Y658737D01*
X114413Y660130D01*
X115651Y661493D01*
X116921Y662827D01*
X118223Y664129D01*
X119557Y665399D01*
X120920Y666637D01*
X122313Y667841D01*
X123735Y669011D01*
X125184Y670147D01*
X126661Y671247D01*
X128163Y672311D01*
X129691Y673339D01*
X131244Y674329D01*
X132820Y675282D01*
X134418Y676196D01*
X136038Y677072D01*
X137679Y677908D01*
X139339Y678704D01*
X141018Y679460D01*
X142715Y680175D01*
X144429Y680848D01*
X146159Y681480D01*
X147903Y682071D01*
X149661Y682618D01*
X151432Y683124D01*
X153214Y683586D01*
X155007Y684005D01*
X156810Y684380D01*
X158621Y684712D01*
X160440Y685000D01*
X162265Y685244D01*
X164096Y685444D01*
X165930Y685600D01*
X167769Y685711D01*
X169609Y685778D01*
X171450Y685800D01*
X635000Y685800D02*
X635000Y533400D01*
X635000Y685800D02*
X171450Y685800D01*
X508000Y596900D02*
X533400Y596900D01*
X508000Y596900D02*
X508000Y635000D01*
X342900Y635000D01*
X571500Y596900D02*
X571500Y495300D01*
X660400Y495300D01*
X660400Y533400D01*
X660000Y533400D01*
X571500Y596900D02*
X533400Y596900D01*
X685800Y495300D02*
X685800Y419100D01*
X685800Y495300D02*
X660400Y495300D01*
D14*
X190500Y279400D02*
X125730Y279400D01*
X125730Y254000D02*
X190500Y254000D01*
X190500Y228600D02*
X125730Y228600D01*
X125730Y203200D02*
X190500Y203200D01*
X190500Y177800D02*
X125730Y177800D01*
X125730Y152400D02*
X190500Y152400D01*
X190500Y127000D02*
X125730Y127000D01*
X125730Y101600D02*
X190500Y101600D01*
X190500Y76200D02*
X125730Y76200D01*
X125730Y50800D02*
X190500Y50800D01*
X342900Y254000D02*
X406400Y254000D01*
X406400Y228600D02*
X342900Y228600D01*
X342900Y203200D02*
X406400Y203200D01*
X406400Y177800D02*
X342900Y177800D01*
X342900Y50800D02*
X406400Y50800D01*
X406400Y76200D02*
X342900Y76200D01*
X342900Y101600D02*
X406400Y101600D01*
D15*
X406400Y533400D02*
X342900Y533400D01*
X342900Y508000D02*
X406400Y508000D01*
X406400Y482600D02*
X342900Y482600D01*
D14*
X342900Y406400D02*
X406400Y406400D01*
X406400Y381000D02*
X342900Y381000D01*
X342900Y355600D02*
X406400Y355600D01*
X406400Y330200D02*
X342900Y330200D01*
D15*
X342900Y558800D02*
X406400Y558800D01*
D14*
X406400Y304800D02*
X342900Y304800D01*
D15*
X635000Y419100D02*
X635000Y457200D01*
X342900Y457200D01*
X609600Y419100D02*
X609600Y381000D01*
X469900Y381000D01*
X469900Y431800D01*
X342900Y431800D01*
X342900Y584200D02*
X406400Y584200D01*
D14*
X406400Y279400D02*
X342900Y279400D01*
D15*
X469900Y565150D02*
X508000Y565150D01*
X469900Y565150D02*
X469900Y609600D01*
X342900Y609600D01*
X508000Y565150D02*
X533400Y565150D01*
X533400Y469900D01*
X660400Y469900D01*
X660400Y419100D01*
X41910Y330200D02*
X41910Y304800D01*
X41910Y330200D02*
X41910Y355600D01*
X41910Y381000D01*
X41910Y406400D01*
X41910Y431800D01*
X41910Y457200D01*
X41910Y482600D01*
X41910Y508000D01*
X41910Y533400D01*
X41910Y558800D01*
X41910Y584200D01*
X41910Y609600D01*
X41910Y631190D01*
X38100Y635000D01*
D16*
X38100Y635000D03*
M02*
