G04 EAGLE Gerber RS-274X export*
G75*
%MOMM*%
%FSLAX34Y34*%
%LPD*%
%INSilkscreen Top*%
%IPPOS*%
%AMOC8*
5,1,8,0,0,1.08239X$1,22.5*%
G01*
%ADD10C,0.152400*%
%ADD11C,0.076200*%
%ADD12C,0.200000*%
%ADD13C,0.200000*%
%ADD14C,0.101600*%
%ADD15C,0.127000*%
%ADD16C,0.100000*%


D10*
X465187Y115062D02*
X457962Y115062D01*
X457962Y131318D01*
X465187Y131318D01*
X463381Y124093D02*
X457962Y124093D01*
X471056Y117771D02*
X471056Y131318D01*
X471056Y117771D02*
X471058Y117670D01*
X471064Y117569D01*
X471073Y117468D01*
X471086Y117367D01*
X471103Y117267D01*
X471124Y117168D01*
X471148Y117070D01*
X471176Y116973D01*
X471208Y116876D01*
X471243Y116781D01*
X471282Y116688D01*
X471324Y116596D01*
X471370Y116505D01*
X471419Y116417D01*
X471471Y116330D01*
X471527Y116245D01*
X471585Y116162D01*
X471647Y116082D01*
X471712Y116004D01*
X471779Y115928D01*
X471849Y115855D01*
X471922Y115785D01*
X471998Y115718D01*
X472076Y115653D01*
X472156Y115591D01*
X472239Y115533D01*
X472324Y115477D01*
X472411Y115425D01*
X472499Y115376D01*
X472590Y115330D01*
X472682Y115288D01*
X472775Y115249D01*
X472870Y115214D01*
X472967Y115182D01*
X473064Y115154D01*
X473162Y115130D01*
X473261Y115109D01*
X473361Y115092D01*
X473462Y115079D01*
X473563Y115070D01*
X473664Y115064D01*
X473765Y115062D01*
X481865Y115062D02*
X486381Y115062D01*
X481865Y115062D02*
X481764Y115064D01*
X481663Y115070D01*
X481562Y115079D01*
X481461Y115092D01*
X481361Y115109D01*
X481262Y115130D01*
X481164Y115154D01*
X481067Y115182D01*
X480970Y115214D01*
X480875Y115249D01*
X480782Y115288D01*
X480690Y115330D01*
X480599Y115376D01*
X480511Y115425D01*
X480424Y115477D01*
X480339Y115533D01*
X480256Y115591D01*
X480176Y115653D01*
X480098Y115718D01*
X480022Y115785D01*
X479949Y115855D01*
X479879Y115928D01*
X479812Y116004D01*
X479747Y116082D01*
X479685Y116162D01*
X479627Y116245D01*
X479571Y116330D01*
X479519Y116417D01*
X479470Y116505D01*
X479424Y116596D01*
X479382Y116688D01*
X479343Y116781D01*
X479308Y116876D01*
X479276Y116973D01*
X479248Y117070D01*
X479224Y117168D01*
X479203Y117267D01*
X479186Y117367D01*
X479173Y117468D01*
X479164Y117569D01*
X479158Y117670D01*
X479156Y117771D01*
X479156Y122287D01*
X479158Y122406D01*
X479164Y122526D01*
X479174Y122645D01*
X479188Y122763D01*
X479205Y122882D01*
X479227Y122999D01*
X479252Y123116D01*
X479282Y123231D01*
X479315Y123346D01*
X479352Y123460D01*
X479392Y123572D01*
X479437Y123683D01*
X479485Y123792D01*
X479536Y123900D01*
X479591Y124006D01*
X479650Y124110D01*
X479712Y124212D01*
X479777Y124312D01*
X479846Y124410D01*
X479918Y124506D01*
X479993Y124599D01*
X480070Y124689D01*
X480151Y124777D01*
X480235Y124862D01*
X480322Y124944D01*
X480411Y125024D01*
X480503Y125100D01*
X480597Y125174D01*
X480694Y125244D01*
X480792Y125311D01*
X480893Y125375D01*
X480997Y125435D01*
X481102Y125492D01*
X481209Y125545D01*
X481317Y125595D01*
X481427Y125641D01*
X481539Y125683D01*
X481652Y125722D01*
X481766Y125757D01*
X481881Y125788D01*
X481998Y125816D01*
X482115Y125839D01*
X482232Y125859D01*
X482351Y125875D01*
X482470Y125887D01*
X482589Y125895D01*
X482708Y125899D01*
X482828Y125899D01*
X482947Y125895D01*
X483066Y125887D01*
X483185Y125875D01*
X483304Y125859D01*
X483421Y125839D01*
X483538Y125816D01*
X483655Y125788D01*
X483770Y125757D01*
X483884Y125722D01*
X483997Y125683D01*
X484109Y125641D01*
X484219Y125595D01*
X484327Y125545D01*
X484434Y125492D01*
X484539Y125435D01*
X484643Y125375D01*
X484744Y125311D01*
X484842Y125244D01*
X484939Y125174D01*
X485033Y125100D01*
X485125Y125024D01*
X485214Y124944D01*
X485301Y124862D01*
X485385Y124777D01*
X485466Y124689D01*
X485543Y124599D01*
X485618Y124506D01*
X485690Y124410D01*
X485759Y124312D01*
X485824Y124212D01*
X485886Y124110D01*
X485945Y124006D01*
X486000Y123900D01*
X486051Y123792D01*
X486099Y123683D01*
X486144Y123572D01*
X486184Y123460D01*
X486221Y123346D01*
X486254Y123231D01*
X486284Y123116D01*
X486309Y122999D01*
X486331Y122882D01*
X486348Y122763D01*
X486362Y122645D01*
X486372Y122526D01*
X486378Y122406D01*
X486380Y122287D01*
X486381Y122287D02*
X486381Y120481D01*
X479156Y120481D01*
X491939Y131318D02*
X497358Y115062D01*
X502776Y131318D01*
X511947Y131318D02*
X511947Y115062D01*
X507431Y131318D02*
X516462Y131318D01*
X522020Y126802D02*
X522020Y119578D01*
X522020Y126802D02*
X522022Y126935D01*
X522028Y127067D01*
X522038Y127199D01*
X522051Y127331D01*
X522069Y127463D01*
X522090Y127593D01*
X522115Y127724D01*
X522144Y127853D01*
X522177Y127981D01*
X522213Y128109D01*
X522253Y128235D01*
X522297Y128360D01*
X522345Y128484D01*
X522396Y128606D01*
X522451Y128727D01*
X522509Y128846D01*
X522571Y128964D01*
X522636Y129079D01*
X522705Y129193D01*
X522776Y129304D01*
X522852Y129413D01*
X522930Y129520D01*
X523011Y129625D01*
X523096Y129727D01*
X523183Y129827D01*
X523273Y129924D01*
X523366Y130019D01*
X523462Y130110D01*
X523560Y130199D01*
X523661Y130285D01*
X523765Y130368D01*
X523871Y130448D01*
X523979Y130524D01*
X524089Y130598D01*
X524202Y130668D01*
X524316Y130735D01*
X524433Y130798D01*
X524551Y130858D01*
X524671Y130915D01*
X524793Y130968D01*
X524916Y131017D01*
X525040Y131063D01*
X525166Y131105D01*
X525293Y131143D01*
X525421Y131178D01*
X525550Y131209D01*
X525679Y131236D01*
X525810Y131259D01*
X525941Y131279D01*
X526073Y131294D01*
X526205Y131306D01*
X526337Y131314D01*
X526470Y131318D01*
X526602Y131318D01*
X526735Y131314D01*
X526867Y131306D01*
X526999Y131294D01*
X527131Y131279D01*
X527262Y131259D01*
X527393Y131236D01*
X527522Y131209D01*
X527651Y131178D01*
X527779Y131143D01*
X527906Y131105D01*
X528032Y131063D01*
X528156Y131017D01*
X528279Y130968D01*
X528401Y130915D01*
X528521Y130858D01*
X528639Y130798D01*
X528756Y130735D01*
X528870Y130668D01*
X528983Y130598D01*
X529093Y130524D01*
X529201Y130448D01*
X529307Y130368D01*
X529411Y130285D01*
X529512Y130199D01*
X529610Y130110D01*
X529706Y130019D01*
X529799Y129924D01*
X529889Y129827D01*
X529976Y129727D01*
X530061Y129625D01*
X530142Y129520D01*
X530220Y129413D01*
X530296Y129304D01*
X530367Y129193D01*
X530436Y129079D01*
X530501Y128964D01*
X530563Y128846D01*
X530621Y128727D01*
X530676Y128606D01*
X530727Y128484D01*
X530775Y128360D01*
X530819Y128235D01*
X530859Y128109D01*
X530895Y127981D01*
X530928Y127853D01*
X530957Y127724D01*
X530982Y127593D01*
X531003Y127463D01*
X531021Y127331D01*
X531034Y127199D01*
X531044Y127067D01*
X531050Y126935D01*
X531052Y126802D01*
X531051Y126802D02*
X531051Y119578D01*
X531052Y119578D02*
X531050Y119445D01*
X531044Y119313D01*
X531034Y119181D01*
X531021Y119049D01*
X531003Y118917D01*
X530982Y118787D01*
X530957Y118656D01*
X530928Y118527D01*
X530895Y118399D01*
X530859Y118271D01*
X530819Y118145D01*
X530775Y118020D01*
X530727Y117896D01*
X530676Y117774D01*
X530621Y117653D01*
X530563Y117534D01*
X530501Y117416D01*
X530436Y117301D01*
X530367Y117187D01*
X530296Y117076D01*
X530220Y116967D01*
X530142Y116860D01*
X530061Y116755D01*
X529976Y116653D01*
X529889Y116553D01*
X529799Y116456D01*
X529706Y116361D01*
X529610Y116270D01*
X529512Y116181D01*
X529411Y116095D01*
X529307Y116012D01*
X529201Y115932D01*
X529093Y115856D01*
X528983Y115782D01*
X528870Y115712D01*
X528756Y115645D01*
X528639Y115582D01*
X528521Y115522D01*
X528401Y115465D01*
X528279Y115412D01*
X528156Y115363D01*
X528032Y115317D01*
X527906Y115275D01*
X527779Y115237D01*
X527651Y115202D01*
X527522Y115171D01*
X527393Y115144D01*
X527262Y115121D01*
X527131Y115101D01*
X526999Y115086D01*
X526867Y115074D01*
X526735Y115066D01*
X526602Y115062D01*
X526470Y115062D01*
X526337Y115066D01*
X526205Y115074D01*
X526073Y115086D01*
X525941Y115101D01*
X525810Y115121D01*
X525679Y115144D01*
X525550Y115171D01*
X525421Y115202D01*
X525293Y115237D01*
X525166Y115275D01*
X525040Y115317D01*
X524916Y115363D01*
X524793Y115412D01*
X524671Y115465D01*
X524551Y115522D01*
X524433Y115582D01*
X524316Y115645D01*
X524202Y115712D01*
X524089Y115782D01*
X523979Y115856D01*
X523871Y115932D01*
X523765Y116012D01*
X523661Y116095D01*
X523560Y116181D01*
X523462Y116270D01*
X523366Y116361D01*
X523273Y116456D01*
X523183Y116553D01*
X523096Y116653D01*
X523011Y116755D01*
X522930Y116860D01*
X522852Y116967D01*
X522776Y117076D01*
X522705Y117187D01*
X522636Y117301D01*
X522571Y117416D01*
X522509Y117534D01*
X522451Y117653D01*
X522396Y117774D01*
X522345Y117896D01*
X522297Y118020D01*
X522253Y118145D01*
X522213Y118271D01*
X522177Y118399D01*
X522144Y118527D01*
X522115Y118656D01*
X522090Y118787D01*
X522069Y118917D01*
X522051Y119049D01*
X522038Y119181D01*
X522028Y119313D01*
X522022Y119445D01*
X522020Y119578D01*
X538202Y115062D02*
X538202Y131318D01*
X538202Y115062D02*
X545427Y115062D01*
X560086Y115062D02*
X560086Y131318D01*
X567311Y131318D01*
X567311Y124093D02*
X560086Y124093D01*
X573180Y117771D02*
X573180Y131318D01*
X573181Y117771D02*
X573183Y117670D01*
X573189Y117569D01*
X573198Y117468D01*
X573211Y117367D01*
X573228Y117267D01*
X573249Y117168D01*
X573273Y117070D01*
X573301Y116973D01*
X573333Y116876D01*
X573368Y116781D01*
X573407Y116688D01*
X573449Y116596D01*
X573495Y116505D01*
X573544Y116417D01*
X573596Y116330D01*
X573652Y116245D01*
X573710Y116162D01*
X573772Y116082D01*
X573837Y116004D01*
X573904Y115928D01*
X573974Y115855D01*
X574047Y115785D01*
X574123Y115718D01*
X574201Y115653D01*
X574281Y115591D01*
X574364Y115533D01*
X574449Y115477D01*
X574536Y115425D01*
X574624Y115376D01*
X574715Y115330D01*
X574807Y115288D01*
X574900Y115249D01*
X574995Y115214D01*
X575092Y115182D01*
X575189Y115154D01*
X575287Y115130D01*
X575386Y115109D01*
X575486Y115092D01*
X575587Y115079D01*
X575688Y115070D01*
X575789Y115064D01*
X575890Y115062D01*
X581245Y115062D02*
X581245Y125899D01*
X580794Y130415D02*
X580794Y131318D01*
X581697Y131318D01*
X581697Y130415D01*
X580794Y130415D01*
X590168Y115062D02*
X594684Y115062D01*
X590168Y115062D02*
X590067Y115064D01*
X589966Y115070D01*
X589865Y115079D01*
X589764Y115092D01*
X589664Y115109D01*
X589565Y115130D01*
X589467Y115154D01*
X589370Y115182D01*
X589273Y115214D01*
X589178Y115249D01*
X589085Y115288D01*
X588993Y115330D01*
X588902Y115376D01*
X588814Y115425D01*
X588727Y115477D01*
X588642Y115533D01*
X588559Y115591D01*
X588479Y115653D01*
X588401Y115718D01*
X588325Y115785D01*
X588252Y115855D01*
X588182Y115928D01*
X588115Y116004D01*
X588050Y116082D01*
X587988Y116162D01*
X587930Y116245D01*
X587874Y116330D01*
X587822Y116417D01*
X587773Y116505D01*
X587727Y116596D01*
X587685Y116688D01*
X587646Y116781D01*
X587611Y116876D01*
X587579Y116973D01*
X587551Y117070D01*
X587527Y117168D01*
X587506Y117267D01*
X587489Y117367D01*
X587476Y117468D01*
X587467Y117569D01*
X587461Y117670D01*
X587459Y117771D01*
X587459Y123190D01*
X587461Y123291D01*
X587467Y123392D01*
X587476Y123493D01*
X587489Y123594D01*
X587506Y123694D01*
X587527Y123793D01*
X587551Y123891D01*
X587579Y123988D01*
X587611Y124085D01*
X587646Y124180D01*
X587685Y124273D01*
X587727Y124365D01*
X587773Y124456D01*
X587822Y124545D01*
X587874Y124631D01*
X587930Y124716D01*
X587988Y124799D01*
X588050Y124879D01*
X588115Y124957D01*
X588182Y125033D01*
X588252Y125106D01*
X588325Y125176D01*
X588401Y125243D01*
X588479Y125308D01*
X588559Y125370D01*
X588642Y125428D01*
X588727Y125484D01*
X588814Y125536D01*
X588902Y125585D01*
X588993Y125631D01*
X589085Y125673D01*
X589178Y125712D01*
X589273Y125747D01*
X589370Y125779D01*
X589467Y125807D01*
X589565Y125831D01*
X589664Y125852D01*
X589764Y125869D01*
X589865Y125882D01*
X589966Y125891D01*
X590067Y125897D01*
X590168Y125899D01*
X594684Y125899D01*
X594684Y112353D01*
X594682Y112249D01*
X594676Y112146D01*
X594666Y112042D01*
X594652Y111939D01*
X594634Y111837D01*
X594613Y111736D01*
X594587Y111635D01*
X594558Y111536D01*
X594525Y111437D01*
X594488Y111340D01*
X594447Y111245D01*
X594403Y111151D01*
X594355Y111059D01*
X594304Y110969D01*
X594249Y110880D01*
X594191Y110794D01*
X594129Y110711D01*
X594065Y110629D01*
X593997Y110551D01*
X593927Y110475D01*
X593854Y110401D01*
X593777Y110331D01*
X593699Y110263D01*
X593617Y110199D01*
X593534Y110137D01*
X593448Y110079D01*
X593359Y110024D01*
X593269Y109973D01*
X593177Y109925D01*
X593083Y109881D01*
X592988Y109840D01*
X592891Y109803D01*
X592792Y109770D01*
X592693Y109741D01*
X592592Y109715D01*
X592491Y109694D01*
X592389Y109676D01*
X592286Y109662D01*
X592182Y109652D01*
X592079Y109646D01*
X591975Y109644D01*
X591975Y109643D02*
X588362Y109643D01*
X602122Y115062D02*
X602122Y131318D01*
X602122Y125899D02*
X606637Y125899D01*
X606741Y125897D01*
X606844Y125891D01*
X606948Y125881D01*
X607051Y125867D01*
X607153Y125849D01*
X607254Y125828D01*
X607355Y125802D01*
X607454Y125773D01*
X607553Y125740D01*
X607650Y125703D01*
X607745Y125662D01*
X607839Y125618D01*
X607931Y125570D01*
X608021Y125519D01*
X608110Y125464D01*
X608196Y125406D01*
X608279Y125344D01*
X608361Y125280D01*
X608439Y125212D01*
X608515Y125142D01*
X608589Y125069D01*
X608659Y124992D01*
X608727Y124914D01*
X608791Y124832D01*
X608853Y124749D01*
X608911Y124663D01*
X608966Y124574D01*
X609017Y124484D01*
X609065Y124392D01*
X609109Y124298D01*
X609150Y124203D01*
X609187Y124106D01*
X609220Y124007D01*
X609249Y123908D01*
X609275Y123807D01*
X609296Y123706D01*
X609314Y123604D01*
X609328Y123501D01*
X609338Y123397D01*
X609344Y123294D01*
X609346Y123190D01*
X609346Y115062D01*
X614892Y125899D02*
X620311Y125899D01*
X616699Y131318D02*
X616699Y117771D01*
X616701Y117670D01*
X616707Y117569D01*
X616716Y117468D01*
X616729Y117367D01*
X616746Y117267D01*
X616767Y117168D01*
X616791Y117070D01*
X616819Y116973D01*
X616851Y116876D01*
X616886Y116781D01*
X616925Y116688D01*
X616967Y116596D01*
X617013Y116505D01*
X617062Y116417D01*
X617114Y116330D01*
X617170Y116245D01*
X617228Y116162D01*
X617290Y116082D01*
X617355Y116004D01*
X617422Y115928D01*
X617492Y115855D01*
X617565Y115785D01*
X617641Y115718D01*
X617719Y115653D01*
X617799Y115591D01*
X617882Y115533D01*
X617967Y115477D01*
X618054Y115425D01*
X618142Y115376D01*
X618233Y115330D01*
X618325Y115288D01*
X618418Y115249D01*
X618513Y115214D01*
X618610Y115182D01*
X618707Y115154D01*
X618805Y115130D01*
X618904Y115109D01*
X619004Y115092D01*
X619105Y115079D01*
X619206Y115070D01*
X619307Y115064D01*
X619408Y115062D01*
X620311Y115062D01*
X638138Y115062D02*
X641750Y115062D01*
X638138Y115062D02*
X638020Y115064D01*
X637902Y115070D01*
X637784Y115079D01*
X637667Y115093D01*
X637550Y115110D01*
X637433Y115131D01*
X637318Y115156D01*
X637203Y115185D01*
X637089Y115218D01*
X636977Y115254D01*
X636866Y115294D01*
X636756Y115337D01*
X636647Y115384D01*
X636540Y115434D01*
X636435Y115489D01*
X636332Y115546D01*
X636231Y115607D01*
X636131Y115671D01*
X636034Y115738D01*
X635939Y115808D01*
X635847Y115882D01*
X635756Y115958D01*
X635669Y116038D01*
X635584Y116120D01*
X635502Y116205D01*
X635422Y116292D01*
X635346Y116383D01*
X635272Y116475D01*
X635202Y116570D01*
X635135Y116667D01*
X635071Y116767D01*
X635010Y116868D01*
X634953Y116971D01*
X634898Y117076D01*
X634848Y117183D01*
X634801Y117292D01*
X634758Y117402D01*
X634718Y117513D01*
X634682Y117625D01*
X634649Y117739D01*
X634620Y117854D01*
X634595Y117969D01*
X634574Y118086D01*
X634557Y118203D01*
X634543Y118320D01*
X634534Y118438D01*
X634528Y118556D01*
X634526Y118674D01*
X634525Y118674D02*
X634525Y127706D01*
X634526Y127706D02*
X634528Y127824D01*
X634534Y127942D01*
X634543Y128060D01*
X634557Y128177D01*
X634574Y128294D01*
X634595Y128411D01*
X634620Y128526D01*
X634649Y128641D01*
X634682Y128755D01*
X634718Y128867D01*
X634758Y128978D01*
X634801Y129088D01*
X634848Y129197D01*
X634898Y129304D01*
X634952Y129409D01*
X635010Y129512D01*
X635071Y129613D01*
X635135Y129713D01*
X635202Y129810D01*
X635272Y129905D01*
X635346Y129997D01*
X635422Y130088D01*
X635502Y130175D01*
X635584Y130260D01*
X635669Y130342D01*
X635756Y130422D01*
X635847Y130498D01*
X635939Y130572D01*
X636034Y130642D01*
X636131Y130709D01*
X636231Y130773D01*
X636332Y130834D01*
X636435Y130891D01*
X636540Y130945D01*
X636647Y130996D01*
X636756Y131043D01*
X636866Y131086D01*
X636977Y131126D01*
X637089Y131162D01*
X637203Y131195D01*
X637318Y131224D01*
X637433Y131249D01*
X637550Y131270D01*
X637667Y131287D01*
X637784Y131301D01*
X637902Y131310D01*
X638020Y131316D01*
X638138Y131318D01*
X641750Y131318D01*
X647452Y122287D02*
X647452Y118674D01*
X647452Y122287D02*
X647454Y122406D01*
X647460Y122526D01*
X647470Y122645D01*
X647484Y122763D01*
X647501Y122882D01*
X647523Y122999D01*
X647548Y123116D01*
X647578Y123231D01*
X647611Y123346D01*
X647648Y123460D01*
X647688Y123572D01*
X647733Y123683D01*
X647781Y123792D01*
X647832Y123900D01*
X647887Y124006D01*
X647946Y124110D01*
X648008Y124212D01*
X648073Y124312D01*
X648142Y124410D01*
X648214Y124506D01*
X648289Y124599D01*
X648366Y124689D01*
X648447Y124777D01*
X648531Y124862D01*
X648618Y124944D01*
X648707Y125024D01*
X648799Y125100D01*
X648893Y125174D01*
X648990Y125244D01*
X649088Y125311D01*
X649189Y125375D01*
X649293Y125435D01*
X649398Y125492D01*
X649505Y125545D01*
X649613Y125595D01*
X649723Y125641D01*
X649835Y125683D01*
X649948Y125722D01*
X650062Y125757D01*
X650177Y125788D01*
X650294Y125816D01*
X650411Y125839D01*
X650528Y125859D01*
X650647Y125875D01*
X650766Y125887D01*
X650885Y125895D01*
X651004Y125899D01*
X651124Y125899D01*
X651243Y125895D01*
X651362Y125887D01*
X651481Y125875D01*
X651600Y125859D01*
X651717Y125839D01*
X651834Y125816D01*
X651951Y125788D01*
X652066Y125757D01*
X652180Y125722D01*
X652293Y125683D01*
X652405Y125641D01*
X652515Y125595D01*
X652623Y125545D01*
X652730Y125492D01*
X652835Y125435D01*
X652939Y125375D01*
X653040Y125311D01*
X653138Y125244D01*
X653235Y125174D01*
X653329Y125100D01*
X653421Y125024D01*
X653510Y124944D01*
X653597Y124862D01*
X653681Y124777D01*
X653762Y124689D01*
X653839Y124599D01*
X653914Y124506D01*
X653986Y124410D01*
X654055Y124312D01*
X654120Y124212D01*
X654182Y124110D01*
X654241Y124006D01*
X654296Y123900D01*
X654347Y123792D01*
X654395Y123683D01*
X654440Y123572D01*
X654480Y123460D01*
X654517Y123346D01*
X654550Y123231D01*
X654580Y123116D01*
X654605Y122999D01*
X654627Y122882D01*
X654644Y122763D01*
X654658Y122645D01*
X654668Y122526D01*
X654674Y122406D01*
X654676Y122287D01*
X654677Y122287D02*
X654677Y118674D01*
X654676Y118674D02*
X654674Y118555D01*
X654668Y118435D01*
X654658Y118316D01*
X654644Y118198D01*
X654627Y118079D01*
X654605Y117962D01*
X654580Y117845D01*
X654550Y117730D01*
X654517Y117615D01*
X654480Y117501D01*
X654440Y117389D01*
X654395Y117278D01*
X654347Y117169D01*
X654296Y117061D01*
X654241Y116955D01*
X654182Y116851D01*
X654120Y116749D01*
X654055Y116649D01*
X653986Y116551D01*
X653914Y116455D01*
X653839Y116362D01*
X653762Y116272D01*
X653681Y116184D01*
X653597Y116099D01*
X653510Y116017D01*
X653421Y115937D01*
X653329Y115861D01*
X653235Y115787D01*
X653138Y115717D01*
X653040Y115650D01*
X652939Y115586D01*
X652835Y115526D01*
X652730Y115469D01*
X652623Y115416D01*
X652515Y115366D01*
X652405Y115320D01*
X652293Y115278D01*
X652180Y115239D01*
X652066Y115204D01*
X651951Y115173D01*
X651834Y115145D01*
X651717Y115122D01*
X651600Y115102D01*
X651481Y115086D01*
X651362Y115074D01*
X651243Y115066D01*
X651124Y115062D01*
X651004Y115062D01*
X650885Y115066D01*
X650766Y115074D01*
X650647Y115086D01*
X650528Y115102D01*
X650411Y115122D01*
X650294Y115145D01*
X650177Y115173D01*
X650062Y115204D01*
X649948Y115239D01*
X649835Y115278D01*
X649723Y115320D01*
X649613Y115366D01*
X649505Y115416D01*
X649398Y115469D01*
X649293Y115526D01*
X649189Y115586D01*
X649088Y115650D01*
X648990Y115717D01*
X648893Y115787D01*
X648799Y115861D01*
X648707Y115937D01*
X648618Y116017D01*
X648531Y116099D01*
X648447Y116184D01*
X648366Y116272D01*
X648289Y116362D01*
X648214Y116455D01*
X648142Y116551D01*
X648073Y116649D01*
X648008Y116749D01*
X647946Y116851D01*
X647887Y116955D01*
X647832Y117061D01*
X647781Y117169D01*
X647733Y117278D01*
X647688Y117389D01*
X647648Y117501D01*
X647611Y117615D01*
X647578Y117730D01*
X647548Y117845D01*
X647523Y117962D01*
X647501Y118079D01*
X647484Y118198D01*
X647470Y118316D01*
X647460Y118435D01*
X647454Y118555D01*
X647452Y118674D01*
X661520Y115062D02*
X661520Y125899D01*
X666036Y125899D01*
X666140Y125897D01*
X666243Y125891D01*
X666347Y125881D01*
X666450Y125867D01*
X666552Y125849D01*
X666653Y125828D01*
X666754Y125802D01*
X666853Y125773D01*
X666952Y125740D01*
X667049Y125703D01*
X667144Y125662D01*
X667238Y125618D01*
X667330Y125570D01*
X667420Y125519D01*
X667509Y125464D01*
X667595Y125406D01*
X667678Y125344D01*
X667760Y125280D01*
X667838Y125212D01*
X667914Y125142D01*
X667988Y125069D01*
X668058Y124992D01*
X668126Y124914D01*
X668190Y124832D01*
X668252Y124749D01*
X668310Y124663D01*
X668365Y124574D01*
X668416Y124484D01*
X668464Y124392D01*
X668508Y124298D01*
X668549Y124203D01*
X668586Y124106D01*
X668619Y124007D01*
X668648Y123908D01*
X668674Y123807D01*
X668695Y123706D01*
X668713Y123604D01*
X668727Y123501D01*
X668737Y123397D01*
X668743Y123294D01*
X668745Y123190D01*
X668745Y115062D01*
X674291Y125899D02*
X679710Y125899D01*
X676097Y131318D02*
X676097Y117771D01*
X676099Y117670D01*
X676105Y117569D01*
X676114Y117468D01*
X676127Y117367D01*
X676144Y117267D01*
X676165Y117168D01*
X676189Y117070D01*
X676217Y116973D01*
X676249Y116876D01*
X676284Y116781D01*
X676323Y116688D01*
X676365Y116596D01*
X676411Y116505D01*
X676460Y116417D01*
X676512Y116330D01*
X676568Y116245D01*
X676626Y116162D01*
X676688Y116082D01*
X676753Y116004D01*
X676820Y115928D01*
X676890Y115855D01*
X676963Y115785D01*
X677039Y115718D01*
X677117Y115653D01*
X677197Y115591D01*
X677280Y115533D01*
X677365Y115477D01*
X677452Y115425D01*
X677540Y115376D01*
X677631Y115330D01*
X677723Y115288D01*
X677816Y115249D01*
X677911Y115214D01*
X678008Y115182D01*
X678105Y115154D01*
X678203Y115130D01*
X678302Y115109D01*
X678402Y115092D01*
X678503Y115079D01*
X678604Y115070D01*
X678705Y115064D01*
X678806Y115062D01*
X679710Y115062D01*
X686094Y115062D02*
X686094Y125899D01*
X691513Y125899D01*
X691513Y124093D01*
X696430Y122287D02*
X696430Y118674D01*
X696430Y122287D02*
X696432Y122406D01*
X696438Y122526D01*
X696448Y122645D01*
X696462Y122763D01*
X696479Y122882D01*
X696501Y122999D01*
X696526Y123116D01*
X696556Y123231D01*
X696589Y123346D01*
X696626Y123460D01*
X696666Y123572D01*
X696711Y123683D01*
X696759Y123792D01*
X696810Y123900D01*
X696865Y124006D01*
X696924Y124110D01*
X696986Y124212D01*
X697051Y124312D01*
X697120Y124410D01*
X697192Y124506D01*
X697267Y124599D01*
X697344Y124689D01*
X697425Y124777D01*
X697509Y124862D01*
X697596Y124944D01*
X697685Y125024D01*
X697777Y125100D01*
X697871Y125174D01*
X697968Y125244D01*
X698066Y125311D01*
X698167Y125375D01*
X698271Y125435D01*
X698376Y125492D01*
X698483Y125545D01*
X698591Y125595D01*
X698701Y125641D01*
X698813Y125683D01*
X698926Y125722D01*
X699040Y125757D01*
X699155Y125788D01*
X699272Y125816D01*
X699389Y125839D01*
X699506Y125859D01*
X699625Y125875D01*
X699744Y125887D01*
X699863Y125895D01*
X699982Y125899D01*
X700102Y125899D01*
X700221Y125895D01*
X700340Y125887D01*
X700459Y125875D01*
X700578Y125859D01*
X700695Y125839D01*
X700812Y125816D01*
X700929Y125788D01*
X701044Y125757D01*
X701158Y125722D01*
X701271Y125683D01*
X701383Y125641D01*
X701493Y125595D01*
X701601Y125545D01*
X701708Y125492D01*
X701813Y125435D01*
X701917Y125375D01*
X702018Y125311D01*
X702116Y125244D01*
X702213Y125174D01*
X702307Y125100D01*
X702399Y125024D01*
X702488Y124944D01*
X702575Y124862D01*
X702659Y124777D01*
X702740Y124689D01*
X702817Y124599D01*
X702892Y124506D01*
X702964Y124410D01*
X703033Y124312D01*
X703098Y124212D01*
X703160Y124110D01*
X703219Y124006D01*
X703274Y123900D01*
X703325Y123792D01*
X703373Y123683D01*
X703418Y123572D01*
X703458Y123460D01*
X703495Y123346D01*
X703528Y123231D01*
X703558Y123116D01*
X703583Y122999D01*
X703605Y122882D01*
X703622Y122763D01*
X703636Y122645D01*
X703646Y122526D01*
X703652Y122406D01*
X703654Y122287D01*
X703655Y122287D02*
X703655Y118674D01*
X703654Y118674D02*
X703652Y118555D01*
X703646Y118435D01*
X703636Y118316D01*
X703622Y118198D01*
X703605Y118079D01*
X703583Y117962D01*
X703558Y117845D01*
X703528Y117730D01*
X703495Y117615D01*
X703458Y117501D01*
X703418Y117389D01*
X703373Y117278D01*
X703325Y117169D01*
X703274Y117061D01*
X703219Y116955D01*
X703160Y116851D01*
X703098Y116749D01*
X703033Y116649D01*
X702964Y116551D01*
X702892Y116455D01*
X702817Y116362D01*
X702740Y116272D01*
X702659Y116184D01*
X702575Y116099D01*
X702488Y116017D01*
X702399Y115937D01*
X702307Y115861D01*
X702213Y115787D01*
X702116Y115717D01*
X702018Y115650D01*
X701917Y115586D01*
X701813Y115526D01*
X701708Y115469D01*
X701601Y115416D01*
X701493Y115366D01*
X701383Y115320D01*
X701271Y115278D01*
X701158Y115239D01*
X701044Y115204D01*
X700929Y115173D01*
X700812Y115145D01*
X700695Y115122D01*
X700578Y115102D01*
X700459Y115086D01*
X700340Y115074D01*
X700221Y115066D01*
X700102Y115062D01*
X699982Y115062D01*
X699863Y115066D01*
X699744Y115074D01*
X699625Y115086D01*
X699506Y115102D01*
X699389Y115122D01*
X699272Y115145D01*
X699155Y115173D01*
X699040Y115204D01*
X698926Y115239D01*
X698813Y115278D01*
X698701Y115320D01*
X698591Y115366D01*
X698483Y115416D01*
X698376Y115469D01*
X698271Y115526D01*
X698167Y115586D01*
X698066Y115650D01*
X697968Y115717D01*
X697871Y115787D01*
X697777Y115861D01*
X697685Y115937D01*
X697596Y116017D01*
X697509Y116099D01*
X697425Y116184D01*
X697344Y116272D01*
X697267Y116362D01*
X697192Y116455D01*
X697120Y116551D01*
X697051Y116649D01*
X696986Y116749D01*
X696924Y116851D01*
X696865Y116955D01*
X696810Y117061D01*
X696759Y117169D01*
X696711Y117278D01*
X696666Y117389D01*
X696626Y117501D01*
X696589Y117615D01*
X696556Y117730D01*
X696526Y117845D01*
X696501Y117962D01*
X696479Y118079D01*
X696462Y118198D01*
X696448Y118316D01*
X696438Y118435D01*
X696432Y118555D01*
X696430Y118674D01*
X710214Y117771D02*
X710214Y131318D01*
X710214Y117771D02*
X710216Y117670D01*
X710222Y117569D01*
X710231Y117468D01*
X710244Y117367D01*
X710261Y117267D01*
X710282Y117168D01*
X710306Y117070D01*
X710334Y116973D01*
X710366Y116876D01*
X710401Y116781D01*
X710440Y116688D01*
X710482Y116596D01*
X710528Y116505D01*
X710577Y116417D01*
X710629Y116330D01*
X710685Y116245D01*
X710743Y116162D01*
X710805Y116082D01*
X710870Y116004D01*
X710937Y115928D01*
X711007Y115855D01*
X711080Y115785D01*
X711156Y115718D01*
X711234Y115653D01*
X711314Y115591D01*
X711397Y115533D01*
X711482Y115477D01*
X711569Y115425D01*
X711657Y115376D01*
X711748Y115330D01*
X711840Y115288D01*
X711933Y115249D01*
X712028Y115214D01*
X712125Y115182D01*
X712222Y115154D01*
X712320Y115130D01*
X712419Y115109D01*
X712519Y115092D01*
X712620Y115079D01*
X712721Y115070D01*
X712822Y115064D01*
X712923Y115062D01*
X462478Y85993D02*
X457962Y85993D01*
X462478Y85994D02*
X462611Y85992D01*
X462743Y85986D01*
X462875Y85976D01*
X463007Y85963D01*
X463139Y85945D01*
X463269Y85924D01*
X463400Y85899D01*
X463529Y85870D01*
X463657Y85837D01*
X463785Y85801D01*
X463911Y85761D01*
X464036Y85717D01*
X464160Y85669D01*
X464282Y85618D01*
X464403Y85563D01*
X464522Y85505D01*
X464640Y85443D01*
X464755Y85378D01*
X464869Y85309D01*
X464980Y85238D01*
X465089Y85162D01*
X465196Y85084D01*
X465301Y85003D01*
X465403Y84918D01*
X465503Y84831D01*
X465600Y84741D01*
X465695Y84648D01*
X465786Y84552D01*
X465875Y84454D01*
X465961Y84353D01*
X466044Y84249D01*
X466124Y84143D01*
X466200Y84035D01*
X466274Y83925D01*
X466344Y83812D01*
X466411Y83698D01*
X466474Y83581D01*
X466534Y83463D01*
X466591Y83343D01*
X466644Y83221D01*
X466693Y83098D01*
X466739Y82974D01*
X466781Y82848D01*
X466819Y82721D01*
X466854Y82593D01*
X466885Y82464D01*
X466912Y82335D01*
X466935Y82204D01*
X466955Y82073D01*
X466970Y81941D01*
X466982Y81809D01*
X466990Y81677D01*
X466994Y81544D01*
X466994Y81412D01*
X466990Y81279D01*
X466982Y81147D01*
X466970Y81015D01*
X466955Y80883D01*
X466935Y80752D01*
X466912Y80621D01*
X466885Y80492D01*
X466854Y80363D01*
X466819Y80235D01*
X466781Y80108D01*
X466739Y79982D01*
X466693Y79858D01*
X466644Y79735D01*
X466591Y79613D01*
X466534Y79493D01*
X466474Y79375D01*
X466411Y79258D01*
X466344Y79144D01*
X466274Y79031D01*
X466200Y78921D01*
X466124Y78813D01*
X466044Y78707D01*
X465961Y78603D01*
X465875Y78502D01*
X465786Y78404D01*
X465695Y78308D01*
X465600Y78215D01*
X465503Y78125D01*
X465403Y78038D01*
X465301Y77953D01*
X465196Y77872D01*
X465089Y77794D01*
X464980Y77718D01*
X464869Y77647D01*
X464755Y77578D01*
X464640Y77513D01*
X464522Y77451D01*
X464403Y77393D01*
X464282Y77338D01*
X464160Y77287D01*
X464036Y77239D01*
X463911Y77195D01*
X463785Y77155D01*
X463657Y77119D01*
X463529Y77086D01*
X463400Y77057D01*
X463269Y77032D01*
X463139Y77011D01*
X463007Y76993D01*
X462875Y76980D01*
X462743Y76970D01*
X462611Y76964D01*
X462478Y76962D01*
X457962Y76962D01*
X457962Y93218D01*
X462478Y93218D01*
X462597Y93216D01*
X462717Y93210D01*
X462836Y93200D01*
X462954Y93186D01*
X463073Y93169D01*
X463190Y93147D01*
X463307Y93122D01*
X463422Y93092D01*
X463537Y93059D01*
X463651Y93022D01*
X463763Y92982D01*
X463874Y92937D01*
X463983Y92889D01*
X464091Y92838D01*
X464197Y92783D01*
X464301Y92724D01*
X464403Y92662D01*
X464503Y92597D01*
X464601Y92528D01*
X464697Y92456D01*
X464790Y92381D01*
X464880Y92304D01*
X464968Y92223D01*
X465053Y92139D01*
X465135Y92052D01*
X465215Y91963D01*
X465291Y91871D01*
X465365Y91777D01*
X465435Y91680D01*
X465502Y91582D01*
X465566Y91481D01*
X465626Y91377D01*
X465683Y91272D01*
X465736Y91165D01*
X465786Y91057D01*
X465832Y90947D01*
X465874Y90835D01*
X465913Y90722D01*
X465948Y90608D01*
X465979Y90493D01*
X466007Y90376D01*
X466030Y90259D01*
X466050Y90142D01*
X466066Y90023D01*
X466078Y89904D01*
X466086Y89785D01*
X466090Y89666D01*
X466090Y89546D01*
X466086Y89427D01*
X466078Y89308D01*
X466066Y89189D01*
X466050Y89070D01*
X466030Y88953D01*
X466007Y88836D01*
X465979Y88719D01*
X465948Y88604D01*
X465913Y88490D01*
X465874Y88377D01*
X465832Y88265D01*
X465786Y88155D01*
X465736Y88047D01*
X465683Y87940D01*
X465626Y87835D01*
X465566Y87731D01*
X465502Y87630D01*
X465435Y87532D01*
X465365Y87435D01*
X465291Y87341D01*
X465215Y87249D01*
X465135Y87160D01*
X465053Y87073D01*
X464968Y86989D01*
X464880Y86908D01*
X464790Y86831D01*
X464697Y86756D01*
X464601Y86684D01*
X464503Y86615D01*
X464403Y86550D01*
X464301Y86488D01*
X464197Y86429D01*
X464091Y86374D01*
X463983Y86323D01*
X463874Y86275D01*
X463763Y86230D01*
X463651Y86190D01*
X463537Y86153D01*
X463422Y86120D01*
X463307Y86090D01*
X463190Y86065D01*
X463073Y86043D01*
X462954Y86026D01*
X462836Y86012D01*
X462717Y86002D01*
X462597Y85996D01*
X462478Y85994D01*
X472722Y84187D02*
X472722Y80574D01*
X472723Y84187D02*
X472725Y84306D01*
X472731Y84426D01*
X472741Y84545D01*
X472755Y84663D01*
X472772Y84782D01*
X472794Y84899D01*
X472819Y85016D01*
X472849Y85131D01*
X472882Y85246D01*
X472919Y85360D01*
X472959Y85472D01*
X473004Y85583D01*
X473052Y85692D01*
X473103Y85800D01*
X473158Y85906D01*
X473217Y86010D01*
X473279Y86112D01*
X473344Y86212D01*
X473413Y86310D01*
X473485Y86406D01*
X473560Y86499D01*
X473637Y86589D01*
X473718Y86677D01*
X473802Y86762D01*
X473889Y86844D01*
X473978Y86924D01*
X474070Y87000D01*
X474164Y87074D01*
X474261Y87144D01*
X474359Y87211D01*
X474460Y87275D01*
X474564Y87335D01*
X474669Y87392D01*
X474776Y87445D01*
X474884Y87495D01*
X474994Y87541D01*
X475106Y87583D01*
X475219Y87622D01*
X475333Y87657D01*
X475448Y87688D01*
X475565Y87716D01*
X475682Y87739D01*
X475799Y87759D01*
X475918Y87775D01*
X476037Y87787D01*
X476156Y87795D01*
X476275Y87799D01*
X476395Y87799D01*
X476514Y87795D01*
X476633Y87787D01*
X476752Y87775D01*
X476871Y87759D01*
X476988Y87739D01*
X477105Y87716D01*
X477222Y87688D01*
X477337Y87657D01*
X477451Y87622D01*
X477564Y87583D01*
X477676Y87541D01*
X477786Y87495D01*
X477894Y87445D01*
X478001Y87392D01*
X478106Y87335D01*
X478210Y87275D01*
X478311Y87211D01*
X478409Y87144D01*
X478506Y87074D01*
X478600Y87000D01*
X478692Y86924D01*
X478781Y86844D01*
X478868Y86762D01*
X478952Y86677D01*
X479033Y86589D01*
X479110Y86499D01*
X479185Y86406D01*
X479257Y86310D01*
X479326Y86212D01*
X479391Y86112D01*
X479453Y86010D01*
X479512Y85906D01*
X479567Y85800D01*
X479618Y85692D01*
X479666Y85583D01*
X479711Y85472D01*
X479751Y85360D01*
X479788Y85246D01*
X479821Y85131D01*
X479851Y85016D01*
X479876Y84899D01*
X479898Y84782D01*
X479915Y84663D01*
X479929Y84545D01*
X479939Y84426D01*
X479945Y84306D01*
X479947Y84187D01*
X479947Y80574D01*
X479945Y80455D01*
X479939Y80335D01*
X479929Y80216D01*
X479915Y80098D01*
X479898Y79979D01*
X479876Y79862D01*
X479851Y79745D01*
X479821Y79630D01*
X479788Y79515D01*
X479751Y79401D01*
X479711Y79289D01*
X479666Y79178D01*
X479618Y79069D01*
X479567Y78961D01*
X479512Y78855D01*
X479453Y78751D01*
X479391Y78649D01*
X479326Y78549D01*
X479257Y78451D01*
X479185Y78355D01*
X479110Y78262D01*
X479033Y78172D01*
X478952Y78084D01*
X478868Y77999D01*
X478781Y77917D01*
X478692Y77837D01*
X478600Y77761D01*
X478506Y77687D01*
X478409Y77617D01*
X478311Y77550D01*
X478210Y77486D01*
X478106Y77426D01*
X478001Y77369D01*
X477894Y77316D01*
X477786Y77266D01*
X477676Y77220D01*
X477564Y77178D01*
X477451Y77139D01*
X477337Y77104D01*
X477222Y77073D01*
X477105Y77045D01*
X476988Y77022D01*
X476871Y77002D01*
X476752Y76986D01*
X476633Y76974D01*
X476514Y76966D01*
X476395Y76962D01*
X476275Y76962D01*
X476156Y76966D01*
X476037Y76974D01*
X475918Y76986D01*
X475799Y77002D01*
X475682Y77022D01*
X475565Y77045D01*
X475448Y77073D01*
X475333Y77104D01*
X475219Y77139D01*
X475106Y77178D01*
X474994Y77220D01*
X474884Y77266D01*
X474776Y77316D01*
X474669Y77369D01*
X474564Y77426D01*
X474460Y77486D01*
X474359Y77550D01*
X474261Y77617D01*
X474164Y77687D01*
X474070Y77761D01*
X473978Y77837D01*
X473889Y77917D01*
X473802Y77999D01*
X473718Y78084D01*
X473637Y78172D01*
X473560Y78262D01*
X473485Y78355D01*
X473413Y78451D01*
X473344Y78549D01*
X473279Y78649D01*
X473217Y78751D01*
X473158Y78855D01*
X473103Y78961D01*
X473052Y79069D01*
X473004Y79178D01*
X472959Y79289D01*
X472919Y79401D01*
X472882Y79515D01*
X472849Y79630D01*
X472819Y79745D01*
X472794Y79862D01*
X472772Y79979D01*
X472755Y80098D01*
X472741Y80216D01*
X472731Y80335D01*
X472725Y80455D01*
X472723Y80574D01*
X489357Y83284D02*
X493421Y83284D01*
X489357Y83284D02*
X489245Y83282D01*
X489134Y83276D01*
X489023Y83266D01*
X488912Y83253D01*
X488802Y83235D01*
X488693Y83213D01*
X488584Y83188D01*
X488476Y83159D01*
X488370Y83126D01*
X488264Y83089D01*
X488160Y83049D01*
X488058Y83005D01*
X487957Y82957D01*
X487858Y82906D01*
X487760Y82851D01*
X487665Y82793D01*
X487572Y82732D01*
X487481Y82667D01*
X487392Y82599D01*
X487306Y82528D01*
X487223Y82455D01*
X487142Y82378D01*
X487063Y82298D01*
X486988Y82216D01*
X486916Y82131D01*
X486846Y82044D01*
X486780Y81954D01*
X486717Y81862D01*
X486657Y81767D01*
X486601Y81671D01*
X486548Y81573D01*
X486499Y81473D01*
X486453Y81371D01*
X486411Y81268D01*
X486372Y81163D01*
X486337Y81057D01*
X486306Y80950D01*
X486279Y80842D01*
X486255Y80733D01*
X486236Y80623D01*
X486220Y80513D01*
X486208Y80402D01*
X486200Y80290D01*
X486196Y80179D01*
X486196Y80067D01*
X486200Y79956D01*
X486208Y79844D01*
X486220Y79733D01*
X486236Y79623D01*
X486255Y79513D01*
X486279Y79404D01*
X486306Y79296D01*
X486337Y79189D01*
X486372Y79083D01*
X486411Y78978D01*
X486453Y78875D01*
X486499Y78773D01*
X486548Y78673D01*
X486601Y78575D01*
X486657Y78479D01*
X486717Y78384D01*
X486780Y78292D01*
X486846Y78202D01*
X486916Y78115D01*
X486988Y78030D01*
X487063Y77948D01*
X487142Y77868D01*
X487223Y77791D01*
X487306Y77718D01*
X487392Y77647D01*
X487481Y77579D01*
X487572Y77514D01*
X487665Y77453D01*
X487760Y77395D01*
X487858Y77340D01*
X487957Y77289D01*
X488058Y77241D01*
X488160Y77197D01*
X488264Y77157D01*
X488370Y77120D01*
X488476Y77087D01*
X488584Y77058D01*
X488693Y77033D01*
X488802Y77011D01*
X488912Y76993D01*
X489023Y76980D01*
X489134Y76970D01*
X489245Y76964D01*
X489357Y76962D01*
X493421Y76962D01*
X493421Y85090D01*
X493419Y85191D01*
X493413Y85292D01*
X493404Y85393D01*
X493391Y85494D01*
X493374Y85594D01*
X493353Y85693D01*
X493329Y85791D01*
X493301Y85888D01*
X493269Y85985D01*
X493234Y86080D01*
X493195Y86173D01*
X493153Y86265D01*
X493107Y86356D01*
X493058Y86445D01*
X493006Y86531D01*
X492950Y86616D01*
X492892Y86699D01*
X492830Y86779D01*
X492765Y86857D01*
X492698Y86933D01*
X492628Y87006D01*
X492555Y87076D01*
X492479Y87143D01*
X492401Y87208D01*
X492321Y87270D01*
X492238Y87328D01*
X492153Y87384D01*
X492067Y87436D01*
X491978Y87485D01*
X491887Y87531D01*
X491795Y87573D01*
X491702Y87612D01*
X491607Y87647D01*
X491510Y87679D01*
X491413Y87707D01*
X491315Y87731D01*
X491216Y87752D01*
X491116Y87769D01*
X491015Y87782D01*
X490914Y87791D01*
X490813Y87797D01*
X490712Y87799D01*
X487099Y87799D01*
X500943Y87799D02*
X500943Y76962D01*
X500943Y87799D02*
X506362Y87799D01*
X506362Y85993D01*
X518431Y93218D02*
X518431Y76962D01*
X513915Y76962D01*
X513814Y76964D01*
X513713Y76970D01*
X513612Y76979D01*
X513511Y76992D01*
X513411Y77009D01*
X513312Y77030D01*
X513214Y77054D01*
X513117Y77082D01*
X513020Y77114D01*
X512925Y77149D01*
X512832Y77188D01*
X512740Y77230D01*
X512649Y77276D01*
X512561Y77325D01*
X512474Y77377D01*
X512389Y77433D01*
X512306Y77491D01*
X512226Y77553D01*
X512148Y77618D01*
X512072Y77685D01*
X511999Y77755D01*
X511929Y77828D01*
X511862Y77904D01*
X511797Y77982D01*
X511735Y78062D01*
X511677Y78145D01*
X511621Y78230D01*
X511569Y78317D01*
X511520Y78405D01*
X511474Y78496D01*
X511432Y78588D01*
X511393Y78681D01*
X511358Y78776D01*
X511326Y78873D01*
X511298Y78970D01*
X511274Y79068D01*
X511253Y79167D01*
X511236Y79267D01*
X511223Y79368D01*
X511214Y79469D01*
X511208Y79570D01*
X511206Y79671D01*
X511206Y85090D01*
X511208Y85191D01*
X511214Y85292D01*
X511223Y85393D01*
X511236Y85494D01*
X511253Y85594D01*
X511274Y85693D01*
X511298Y85791D01*
X511326Y85888D01*
X511358Y85985D01*
X511393Y86080D01*
X511432Y86173D01*
X511474Y86265D01*
X511520Y86356D01*
X511569Y86445D01*
X511621Y86531D01*
X511677Y86616D01*
X511735Y86699D01*
X511797Y86779D01*
X511862Y86857D01*
X511929Y86933D01*
X511999Y87006D01*
X512072Y87076D01*
X512148Y87143D01*
X512226Y87208D01*
X512306Y87270D01*
X512389Y87328D01*
X512474Y87384D01*
X512561Y87436D01*
X512649Y87485D01*
X512740Y87531D01*
X512832Y87573D01*
X512925Y87612D01*
X513020Y87647D01*
X513117Y87679D01*
X513214Y87707D01*
X513312Y87731D01*
X513411Y87752D01*
X513511Y87769D01*
X513612Y87782D01*
X513713Y87791D01*
X513814Y87797D01*
X513915Y87799D01*
X518431Y87799D01*
X532920Y93218D02*
X538339Y76962D01*
X543757Y93218D01*
X548829Y77865D02*
X548829Y76962D01*
X548829Y77865D02*
X549732Y77865D01*
X549732Y76962D01*
X548829Y76962D01*
X555707Y89606D02*
X560222Y93218D01*
X560222Y76962D01*
X555707Y76962D02*
X564738Y76962D01*
D11*
X597281Y485027D02*
X597281Y488301D01*
X597283Y488390D01*
X597289Y488479D01*
X597299Y488568D01*
X597312Y488656D01*
X597329Y488744D01*
X597351Y488831D01*
X597376Y488916D01*
X597404Y489001D01*
X597437Y489084D01*
X597473Y489166D01*
X597512Y489246D01*
X597555Y489324D01*
X597601Y489400D01*
X597651Y489475D01*
X597704Y489547D01*
X597760Y489616D01*
X597819Y489683D01*
X597880Y489748D01*
X597945Y489809D01*
X598012Y489868D01*
X598081Y489924D01*
X598153Y489977D01*
X598228Y490027D01*
X598304Y490073D01*
X598382Y490116D01*
X598462Y490155D01*
X598544Y490191D01*
X598627Y490224D01*
X598712Y490252D01*
X598797Y490277D01*
X598884Y490299D01*
X598972Y490316D01*
X599060Y490329D01*
X599149Y490339D01*
X599238Y490345D01*
X599327Y490347D01*
X599416Y490345D01*
X599505Y490339D01*
X599594Y490329D01*
X599682Y490316D01*
X599770Y490299D01*
X599857Y490277D01*
X599942Y490252D01*
X600027Y490224D01*
X600110Y490191D01*
X600192Y490155D01*
X600272Y490116D01*
X600350Y490073D01*
X600426Y490027D01*
X600501Y489977D01*
X600573Y489924D01*
X600642Y489868D01*
X600709Y489809D01*
X600774Y489748D01*
X600835Y489683D01*
X600894Y489616D01*
X600950Y489547D01*
X601003Y489475D01*
X601053Y489400D01*
X601099Y489324D01*
X601142Y489246D01*
X601181Y489166D01*
X601217Y489084D01*
X601250Y489001D01*
X601278Y488916D01*
X601303Y488831D01*
X601325Y488744D01*
X601342Y488656D01*
X601355Y488568D01*
X601365Y488479D01*
X601371Y488390D01*
X601373Y488301D01*
X601373Y485027D01*
X601371Y484938D01*
X601365Y484849D01*
X601355Y484760D01*
X601342Y484672D01*
X601325Y484584D01*
X601303Y484497D01*
X601278Y484412D01*
X601250Y484327D01*
X601217Y484244D01*
X601181Y484162D01*
X601142Y484082D01*
X601099Y484004D01*
X601053Y483928D01*
X601003Y483853D01*
X600950Y483781D01*
X600894Y483712D01*
X600835Y483645D01*
X600774Y483580D01*
X600709Y483519D01*
X600642Y483460D01*
X600573Y483404D01*
X600501Y483351D01*
X600426Y483301D01*
X600350Y483255D01*
X600272Y483212D01*
X600192Y483173D01*
X600110Y483137D01*
X600027Y483104D01*
X599942Y483076D01*
X599857Y483051D01*
X599770Y483029D01*
X599682Y483012D01*
X599594Y482999D01*
X599505Y482989D01*
X599416Y482983D01*
X599327Y482981D01*
X599238Y482983D01*
X599149Y482989D01*
X599060Y482999D01*
X598972Y483012D01*
X598884Y483029D01*
X598797Y483051D01*
X598712Y483076D01*
X598627Y483104D01*
X598544Y483137D01*
X598462Y483173D01*
X598382Y483212D01*
X598304Y483255D01*
X598228Y483301D01*
X598153Y483351D01*
X598081Y483404D01*
X598012Y483460D01*
X597945Y483519D01*
X597880Y483580D01*
X597819Y483645D01*
X597760Y483712D01*
X597704Y483781D01*
X597651Y483853D01*
X597601Y483928D01*
X597555Y484004D01*
X597512Y484082D01*
X597473Y484162D01*
X597437Y484244D01*
X597404Y484327D01*
X597376Y484412D01*
X597351Y484497D01*
X597329Y484584D01*
X597312Y484672D01*
X597299Y484760D01*
X597289Y484849D01*
X597283Y484938D01*
X597281Y485027D01*
X604856Y482981D02*
X604856Y490347D01*
X608130Y490347D01*
X608130Y487073D02*
X604856Y487073D01*
X611196Y490347D02*
X611196Y482981D01*
X611196Y490347D02*
X614469Y490347D01*
X614469Y487073D02*
X611196Y487073D01*
X648081Y488301D02*
X648081Y485027D01*
X648081Y488301D02*
X648083Y488390D01*
X648089Y488479D01*
X648099Y488568D01*
X648112Y488656D01*
X648129Y488744D01*
X648151Y488831D01*
X648176Y488916D01*
X648204Y489001D01*
X648237Y489084D01*
X648273Y489166D01*
X648312Y489246D01*
X648355Y489324D01*
X648401Y489400D01*
X648451Y489475D01*
X648504Y489547D01*
X648560Y489616D01*
X648619Y489683D01*
X648680Y489748D01*
X648745Y489809D01*
X648812Y489868D01*
X648881Y489924D01*
X648953Y489977D01*
X649028Y490027D01*
X649104Y490073D01*
X649182Y490116D01*
X649262Y490155D01*
X649344Y490191D01*
X649427Y490224D01*
X649512Y490252D01*
X649597Y490277D01*
X649684Y490299D01*
X649772Y490316D01*
X649860Y490329D01*
X649949Y490339D01*
X650038Y490345D01*
X650127Y490347D01*
X650216Y490345D01*
X650305Y490339D01*
X650394Y490329D01*
X650482Y490316D01*
X650570Y490299D01*
X650657Y490277D01*
X650742Y490252D01*
X650827Y490224D01*
X650910Y490191D01*
X650992Y490155D01*
X651072Y490116D01*
X651150Y490073D01*
X651226Y490027D01*
X651301Y489977D01*
X651373Y489924D01*
X651442Y489868D01*
X651509Y489809D01*
X651574Y489748D01*
X651635Y489683D01*
X651694Y489616D01*
X651750Y489547D01*
X651803Y489475D01*
X651853Y489400D01*
X651899Y489324D01*
X651942Y489246D01*
X651981Y489166D01*
X652017Y489084D01*
X652050Y489001D01*
X652078Y488916D01*
X652103Y488831D01*
X652125Y488744D01*
X652142Y488656D01*
X652155Y488568D01*
X652165Y488479D01*
X652171Y488390D01*
X652173Y488301D01*
X652173Y485027D01*
X652171Y484938D01*
X652165Y484849D01*
X652155Y484760D01*
X652142Y484672D01*
X652125Y484584D01*
X652103Y484497D01*
X652078Y484412D01*
X652050Y484327D01*
X652017Y484244D01*
X651981Y484162D01*
X651942Y484082D01*
X651899Y484004D01*
X651853Y483928D01*
X651803Y483853D01*
X651750Y483781D01*
X651694Y483712D01*
X651635Y483645D01*
X651574Y483580D01*
X651509Y483519D01*
X651442Y483460D01*
X651373Y483404D01*
X651301Y483351D01*
X651226Y483301D01*
X651150Y483255D01*
X651072Y483212D01*
X650992Y483173D01*
X650910Y483137D01*
X650827Y483104D01*
X650742Y483076D01*
X650657Y483051D01*
X650570Y483029D01*
X650482Y483012D01*
X650394Y482999D01*
X650305Y482989D01*
X650216Y482983D01*
X650127Y482981D01*
X650038Y482983D01*
X649949Y482989D01*
X649860Y482999D01*
X649772Y483012D01*
X649684Y483029D01*
X649597Y483051D01*
X649512Y483076D01*
X649427Y483104D01*
X649344Y483137D01*
X649262Y483173D01*
X649182Y483212D01*
X649104Y483255D01*
X649028Y483301D01*
X648953Y483351D01*
X648881Y483404D01*
X648812Y483460D01*
X648745Y483519D01*
X648680Y483580D01*
X648619Y483645D01*
X648560Y483712D01*
X648504Y483781D01*
X648451Y483853D01*
X648401Y483928D01*
X648355Y484004D01*
X648312Y484082D01*
X648273Y484162D01*
X648237Y484244D01*
X648204Y484327D01*
X648176Y484412D01*
X648151Y484497D01*
X648129Y484584D01*
X648112Y484672D01*
X648099Y484760D01*
X648089Y484849D01*
X648083Y484938D01*
X648081Y485027D01*
X655640Y482981D02*
X655640Y490347D01*
X659732Y482981D01*
X659732Y490347D01*
X459387Y59309D02*
X457581Y52987D01*
X462097Y52987D01*
X460742Y54793D02*
X460742Y51181D01*
X465233Y50278D02*
X468846Y60212D01*
X473789Y54793D02*
X476498Y54793D01*
X473789Y54794D02*
X473706Y54796D01*
X473622Y54802D01*
X473539Y54811D01*
X473457Y54825D01*
X473376Y54842D01*
X473295Y54863D01*
X473215Y54888D01*
X473137Y54916D01*
X473060Y54948D01*
X472984Y54983D01*
X472910Y55022D01*
X472838Y55065D01*
X472768Y55110D01*
X472701Y55159D01*
X472635Y55211D01*
X472572Y55265D01*
X472512Y55323D01*
X472454Y55383D01*
X472400Y55446D01*
X472348Y55512D01*
X472299Y55579D01*
X472254Y55649D01*
X472211Y55721D01*
X472172Y55795D01*
X472137Y55871D01*
X472105Y55948D01*
X472077Y56026D01*
X472052Y56106D01*
X472031Y56187D01*
X472014Y56268D01*
X472000Y56350D01*
X471991Y56433D01*
X471985Y56517D01*
X471983Y56600D01*
X471983Y57051D01*
X471982Y57051D02*
X471984Y57144D01*
X471990Y57237D01*
X471999Y57330D01*
X472013Y57423D01*
X472030Y57514D01*
X472051Y57605D01*
X472076Y57695D01*
X472104Y57784D01*
X472136Y57872D01*
X472172Y57958D01*
X472211Y58043D01*
X472254Y58126D01*
X472300Y58207D01*
X472350Y58286D01*
X472402Y58363D01*
X472458Y58438D01*
X472517Y58510D01*
X472579Y58580D01*
X472643Y58648D01*
X472711Y58712D01*
X472781Y58774D01*
X472853Y58833D01*
X472928Y58889D01*
X473005Y58941D01*
X473084Y58991D01*
X473165Y59037D01*
X473248Y59080D01*
X473333Y59119D01*
X473419Y59155D01*
X473507Y59187D01*
X473596Y59215D01*
X473686Y59240D01*
X473777Y59261D01*
X473868Y59278D01*
X473961Y59292D01*
X474054Y59301D01*
X474147Y59307D01*
X474240Y59309D01*
X474333Y59307D01*
X474426Y59301D01*
X474519Y59292D01*
X474612Y59278D01*
X474703Y59261D01*
X474794Y59240D01*
X474884Y59215D01*
X474973Y59187D01*
X475061Y59155D01*
X475147Y59119D01*
X475232Y59080D01*
X475315Y59037D01*
X475396Y58991D01*
X475475Y58941D01*
X475552Y58889D01*
X475627Y58833D01*
X475699Y58774D01*
X475769Y58712D01*
X475837Y58648D01*
X475901Y58580D01*
X475963Y58510D01*
X476022Y58438D01*
X476078Y58363D01*
X476130Y58286D01*
X476180Y58207D01*
X476226Y58126D01*
X476269Y58043D01*
X476308Y57958D01*
X476344Y57872D01*
X476376Y57784D01*
X476404Y57695D01*
X476429Y57605D01*
X476450Y57514D01*
X476467Y57423D01*
X476481Y57330D01*
X476490Y57237D01*
X476496Y57144D01*
X476498Y57051D01*
X476498Y54793D01*
X476496Y54675D01*
X476490Y54557D01*
X476481Y54439D01*
X476467Y54322D01*
X476450Y54205D01*
X476429Y54088D01*
X476404Y53973D01*
X476375Y53858D01*
X476342Y53744D01*
X476306Y53632D01*
X476266Y53521D01*
X476223Y53411D01*
X476176Y53302D01*
X476126Y53195D01*
X476071Y53090D01*
X476014Y52987D01*
X475953Y52886D01*
X475889Y52786D01*
X475822Y52689D01*
X475752Y52594D01*
X475678Y52502D01*
X475602Y52411D01*
X475522Y52324D01*
X475440Y52239D01*
X475355Y52157D01*
X475268Y52077D01*
X475177Y52001D01*
X475085Y51927D01*
X474990Y51857D01*
X474893Y51790D01*
X474793Y51726D01*
X474692Y51665D01*
X474589Y51608D01*
X474484Y51553D01*
X474377Y51503D01*
X474268Y51456D01*
X474158Y51413D01*
X474047Y51373D01*
X473935Y51337D01*
X473821Y51304D01*
X473706Y51275D01*
X473591Y51250D01*
X473474Y51229D01*
X473357Y51212D01*
X473240Y51198D01*
X473122Y51189D01*
X473004Y51183D01*
X472886Y51181D01*
X479635Y50278D02*
X483248Y60212D01*
X488868Y59309D02*
X488957Y59307D01*
X489045Y59301D01*
X489133Y59292D01*
X489221Y59278D01*
X489308Y59261D01*
X489394Y59240D01*
X489479Y59215D01*
X489563Y59186D01*
X489646Y59154D01*
X489727Y59119D01*
X489806Y59079D01*
X489884Y59037D01*
X489960Y58991D01*
X490034Y58942D01*
X490105Y58889D01*
X490174Y58834D01*
X490241Y58775D01*
X490305Y58714D01*
X490366Y58650D01*
X490425Y58583D01*
X490480Y58514D01*
X490533Y58443D01*
X490582Y58369D01*
X490628Y58293D01*
X490670Y58215D01*
X490710Y58136D01*
X490745Y58055D01*
X490777Y57972D01*
X490806Y57888D01*
X490831Y57803D01*
X490852Y57717D01*
X490869Y57630D01*
X490883Y57542D01*
X490892Y57454D01*
X490898Y57366D01*
X490900Y57277D01*
X488868Y59309D02*
X488769Y59307D01*
X488669Y59301D01*
X488570Y59292D01*
X488472Y59279D01*
X488373Y59262D01*
X488276Y59241D01*
X488180Y59217D01*
X488084Y59189D01*
X487990Y59157D01*
X487897Y59122D01*
X487805Y59083D01*
X487715Y59041D01*
X487627Y58995D01*
X487540Y58946D01*
X487455Y58894D01*
X487373Y58838D01*
X487292Y58780D01*
X487214Y58718D01*
X487138Y58654D01*
X487065Y58587D01*
X486994Y58517D01*
X486927Y58444D01*
X486861Y58369D01*
X486799Y58291D01*
X486740Y58211D01*
X486684Y58129D01*
X486631Y58045D01*
X486581Y57958D01*
X486535Y57870D01*
X486492Y57781D01*
X486452Y57689D01*
X486416Y57596D01*
X486384Y57502D01*
X490223Y55696D02*
X490289Y55762D01*
X490352Y55830D01*
X490412Y55901D01*
X490469Y55975D01*
X490523Y56050D01*
X490573Y56128D01*
X490621Y56209D01*
X490664Y56291D01*
X490705Y56375D01*
X490741Y56460D01*
X490774Y56547D01*
X490804Y56635D01*
X490829Y56725D01*
X490851Y56815D01*
X490868Y56907D01*
X490882Y56999D01*
X490892Y57091D01*
X490898Y57184D01*
X490900Y57277D01*
X490223Y55697D02*
X486384Y51181D01*
X490900Y51181D01*
X494386Y55245D02*
X494388Y55405D01*
X494394Y55565D01*
X494403Y55724D01*
X494417Y55884D01*
X494434Y56043D01*
X494455Y56201D01*
X494479Y56359D01*
X494508Y56516D01*
X494540Y56673D01*
X494576Y56829D01*
X494616Y56984D01*
X494659Y57138D01*
X494706Y57291D01*
X494757Y57442D01*
X494811Y57593D01*
X494869Y57742D01*
X494930Y57889D01*
X494995Y58035D01*
X495063Y58180D01*
X495062Y58180D02*
X495090Y58255D01*
X495121Y58328D01*
X495156Y58400D01*
X495194Y58470D01*
X495235Y58538D01*
X495280Y58604D01*
X495327Y58668D01*
X495378Y58730D01*
X495431Y58789D01*
X495488Y58845D01*
X495547Y58899D01*
X495608Y58950D01*
X495672Y58998D01*
X495738Y59043D01*
X495806Y59084D01*
X495876Y59122D01*
X495947Y59157D01*
X496021Y59189D01*
X496095Y59217D01*
X496171Y59241D01*
X496248Y59262D01*
X496326Y59279D01*
X496405Y59292D01*
X496484Y59301D01*
X496563Y59307D01*
X496643Y59309D01*
X496723Y59307D01*
X496802Y59301D01*
X496881Y59292D01*
X496960Y59279D01*
X497038Y59262D01*
X497115Y59241D01*
X497191Y59217D01*
X497265Y59189D01*
X497339Y59157D01*
X497410Y59122D01*
X497480Y59084D01*
X497548Y59043D01*
X497614Y58998D01*
X497678Y58950D01*
X497739Y58899D01*
X497798Y58845D01*
X497855Y58789D01*
X497908Y58730D01*
X497959Y58668D01*
X498006Y58604D01*
X498051Y58538D01*
X498092Y58470D01*
X498130Y58400D01*
X498165Y58328D01*
X498196Y58255D01*
X498224Y58180D01*
X498292Y58035D01*
X498357Y57889D01*
X498418Y57742D01*
X498476Y57593D01*
X498530Y57442D01*
X498581Y57291D01*
X498628Y57138D01*
X498671Y56984D01*
X498711Y56829D01*
X498747Y56673D01*
X498779Y56516D01*
X498808Y56359D01*
X498832Y56201D01*
X498853Y56043D01*
X498870Y55884D01*
X498884Y55724D01*
X498893Y55565D01*
X498899Y55405D01*
X498901Y55245D01*
X494386Y55245D02*
X494388Y55085D01*
X494394Y54925D01*
X494403Y54766D01*
X494417Y54606D01*
X494434Y54447D01*
X494455Y54289D01*
X494479Y54131D01*
X494508Y53974D01*
X494540Y53817D01*
X494576Y53661D01*
X494616Y53506D01*
X494659Y53352D01*
X494706Y53200D01*
X494757Y53048D01*
X494811Y52897D01*
X494869Y52748D01*
X494930Y52601D01*
X494995Y52455D01*
X495063Y52310D01*
X495062Y52310D02*
X495090Y52235D01*
X495121Y52162D01*
X495156Y52090D01*
X495194Y52020D01*
X495235Y51952D01*
X495280Y51886D01*
X495327Y51822D01*
X495378Y51760D01*
X495431Y51701D01*
X495488Y51645D01*
X495547Y51591D01*
X495608Y51540D01*
X495672Y51492D01*
X495738Y51447D01*
X495806Y51406D01*
X495876Y51368D01*
X495947Y51333D01*
X496021Y51301D01*
X496095Y51273D01*
X496171Y51249D01*
X496248Y51228D01*
X496326Y51211D01*
X496405Y51198D01*
X496484Y51189D01*
X496563Y51183D01*
X496643Y51181D01*
X498224Y52310D02*
X498292Y52455D01*
X498357Y52601D01*
X498418Y52748D01*
X498476Y52897D01*
X498530Y53048D01*
X498581Y53200D01*
X498628Y53352D01*
X498671Y53506D01*
X498711Y53661D01*
X498747Y53817D01*
X498779Y53974D01*
X498808Y54131D01*
X498832Y54289D01*
X498853Y54447D01*
X498870Y54606D01*
X498884Y54766D01*
X498893Y54925D01*
X498899Y55085D01*
X498901Y55245D01*
X498224Y52310D02*
X498196Y52235D01*
X498165Y52162D01*
X498130Y52090D01*
X498092Y52020D01*
X498051Y51952D01*
X498006Y51886D01*
X497959Y51822D01*
X497908Y51760D01*
X497855Y51701D01*
X497798Y51645D01*
X497739Y51591D01*
X497678Y51540D01*
X497614Y51492D01*
X497548Y51447D01*
X497480Y51406D01*
X497410Y51368D01*
X497339Y51333D01*
X497265Y51301D01*
X497191Y51273D01*
X497115Y51249D01*
X497038Y51228D01*
X496960Y51211D01*
X496881Y51198D01*
X496802Y51189D01*
X496723Y51183D01*
X496643Y51181D01*
X494837Y52987D02*
X498449Y57503D01*
X504870Y59309D02*
X504959Y59307D01*
X505047Y59301D01*
X505135Y59292D01*
X505223Y59278D01*
X505310Y59261D01*
X505396Y59240D01*
X505481Y59215D01*
X505565Y59186D01*
X505648Y59154D01*
X505729Y59119D01*
X505808Y59079D01*
X505886Y59037D01*
X505962Y58991D01*
X506036Y58942D01*
X506107Y58889D01*
X506176Y58834D01*
X506243Y58775D01*
X506307Y58714D01*
X506368Y58650D01*
X506427Y58583D01*
X506482Y58514D01*
X506535Y58443D01*
X506584Y58369D01*
X506630Y58293D01*
X506672Y58215D01*
X506712Y58136D01*
X506747Y58055D01*
X506779Y57972D01*
X506808Y57888D01*
X506833Y57803D01*
X506854Y57717D01*
X506871Y57630D01*
X506885Y57542D01*
X506894Y57454D01*
X506900Y57366D01*
X506902Y57277D01*
X504870Y59309D02*
X504771Y59307D01*
X504671Y59301D01*
X504572Y59292D01*
X504474Y59279D01*
X504375Y59262D01*
X504278Y59241D01*
X504182Y59217D01*
X504086Y59189D01*
X503992Y59157D01*
X503899Y59122D01*
X503807Y59083D01*
X503717Y59041D01*
X503629Y58995D01*
X503542Y58946D01*
X503457Y58894D01*
X503375Y58838D01*
X503294Y58780D01*
X503216Y58718D01*
X503140Y58654D01*
X503067Y58587D01*
X502996Y58517D01*
X502929Y58444D01*
X502863Y58369D01*
X502801Y58291D01*
X502742Y58211D01*
X502686Y58129D01*
X502633Y58045D01*
X502583Y57958D01*
X502537Y57870D01*
X502494Y57781D01*
X502454Y57689D01*
X502418Y57596D01*
X502386Y57502D01*
X506225Y55696D02*
X506291Y55762D01*
X506354Y55830D01*
X506414Y55901D01*
X506471Y55975D01*
X506525Y56050D01*
X506575Y56128D01*
X506623Y56209D01*
X506666Y56291D01*
X506707Y56375D01*
X506743Y56460D01*
X506776Y56547D01*
X506806Y56635D01*
X506831Y56725D01*
X506853Y56815D01*
X506870Y56907D01*
X506884Y56999D01*
X506894Y57091D01*
X506900Y57184D01*
X506902Y57277D01*
X506225Y55697D02*
X502386Y51181D01*
X506902Y51181D01*
X510387Y51181D02*
X512645Y51181D01*
X512738Y51183D01*
X512831Y51189D01*
X512924Y51198D01*
X513017Y51212D01*
X513108Y51229D01*
X513199Y51250D01*
X513289Y51275D01*
X513378Y51303D01*
X513466Y51335D01*
X513552Y51371D01*
X513637Y51410D01*
X513720Y51453D01*
X513801Y51499D01*
X513880Y51549D01*
X513957Y51601D01*
X514032Y51657D01*
X514104Y51716D01*
X514174Y51778D01*
X514242Y51842D01*
X514306Y51910D01*
X514368Y51980D01*
X514427Y52052D01*
X514483Y52127D01*
X514535Y52204D01*
X514585Y52283D01*
X514631Y52364D01*
X514674Y52447D01*
X514713Y52532D01*
X514749Y52618D01*
X514781Y52706D01*
X514809Y52795D01*
X514834Y52885D01*
X514855Y52976D01*
X514872Y53067D01*
X514886Y53160D01*
X514895Y53253D01*
X514901Y53346D01*
X514903Y53439D01*
X514901Y53532D01*
X514895Y53625D01*
X514886Y53718D01*
X514872Y53811D01*
X514855Y53902D01*
X514834Y53993D01*
X514809Y54083D01*
X514781Y54172D01*
X514749Y54260D01*
X514713Y54346D01*
X514674Y54431D01*
X514631Y54514D01*
X514585Y54595D01*
X514535Y54674D01*
X514483Y54751D01*
X514427Y54826D01*
X514368Y54898D01*
X514306Y54968D01*
X514242Y55036D01*
X514174Y55100D01*
X514104Y55162D01*
X514032Y55221D01*
X513957Y55277D01*
X513880Y55329D01*
X513801Y55379D01*
X513720Y55425D01*
X513637Y55468D01*
X513552Y55507D01*
X513466Y55543D01*
X513378Y55575D01*
X513289Y55603D01*
X513199Y55628D01*
X513108Y55649D01*
X513017Y55666D01*
X512924Y55680D01*
X512831Y55689D01*
X512738Y55695D01*
X512645Y55697D01*
X513097Y59309D02*
X510387Y59309D01*
X513097Y59309D02*
X513180Y59307D01*
X513264Y59301D01*
X513347Y59292D01*
X513429Y59278D01*
X513510Y59261D01*
X513591Y59240D01*
X513671Y59215D01*
X513749Y59187D01*
X513826Y59155D01*
X513902Y59120D01*
X513976Y59081D01*
X514048Y59038D01*
X514118Y58993D01*
X514185Y58944D01*
X514251Y58892D01*
X514314Y58838D01*
X514374Y58780D01*
X514432Y58720D01*
X514486Y58657D01*
X514538Y58591D01*
X514587Y58524D01*
X514632Y58454D01*
X514675Y58382D01*
X514714Y58308D01*
X514749Y58232D01*
X514781Y58155D01*
X514809Y58077D01*
X514834Y57997D01*
X514855Y57916D01*
X514872Y57835D01*
X514886Y57753D01*
X514895Y57670D01*
X514901Y57586D01*
X514903Y57503D01*
X514901Y57420D01*
X514895Y57336D01*
X514886Y57253D01*
X514872Y57171D01*
X514855Y57090D01*
X514834Y57009D01*
X514809Y56929D01*
X514781Y56851D01*
X514749Y56774D01*
X514714Y56698D01*
X514675Y56624D01*
X514632Y56552D01*
X514587Y56482D01*
X514538Y56415D01*
X514486Y56349D01*
X514432Y56286D01*
X514374Y56226D01*
X514314Y56168D01*
X514251Y56114D01*
X514185Y56062D01*
X514118Y56013D01*
X514048Y55968D01*
X513976Y55925D01*
X513902Y55886D01*
X513826Y55851D01*
X513749Y55819D01*
X513671Y55791D01*
X513591Y55766D01*
X513510Y55745D01*
X513429Y55728D01*
X513347Y55714D01*
X513264Y55705D01*
X513180Y55699D01*
X513097Y55697D01*
X511290Y55697D01*
D12*
X177800Y38100D02*
X177800Y647700D01*
X177800Y38100D02*
X355600Y38100D01*
X355600Y647700D01*
X177800Y647700D01*
D13*
X171500Y584200D03*
D12*
X171456Y584198D01*
X171413Y584192D01*
X171371Y584183D01*
X171329Y584170D01*
X171289Y584153D01*
X171250Y584133D01*
X171213Y584110D01*
X171179Y584083D01*
X171146Y584054D01*
X171117Y584021D01*
X171090Y583987D01*
X171067Y583950D01*
X171047Y583911D01*
X171030Y583871D01*
X171017Y583829D01*
X171008Y583787D01*
X171002Y583744D01*
X171000Y583700D01*
X171002Y583656D01*
X171008Y583613D01*
X171017Y583571D01*
X171030Y583529D01*
X171047Y583489D01*
X171067Y583450D01*
X171090Y583413D01*
X171117Y583379D01*
X171146Y583346D01*
X171179Y583317D01*
X171213Y583290D01*
X171250Y583267D01*
X171289Y583247D01*
X171329Y583230D01*
X171371Y583217D01*
X171413Y583208D01*
X171456Y583202D01*
X171500Y583200D01*
D13*
X171500Y583200D03*
D12*
X171544Y583202D01*
X171587Y583208D01*
X171629Y583217D01*
X171671Y583230D01*
X171711Y583247D01*
X171750Y583267D01*
X171787Y583290D01*
X171821Y583317D01*
X171854Y583346D01*
X171883Y583379D01*
X171910Y583413D01*
X171933Y583450D01*
X171953Y583489D01*
X171970Y583529D01*
X171983Y583571D01*
X171992Y583613D01*
X171998Y583656D01*
X172000Y583700D01*
X171998Y583744D01*
X171992Y583787D01*
X171983Y583829D01*
X171970Y583871D01*
X171953Y583911D01*
X171933Y583950D01*
X171910Y583987D01*
X171883Y584021D01*
X171854Y584054D01*
X171821Y584083D01*
X171787Y584110D01*
X171750Y584133D01*
X171711Y584153D01*
X171671Y584170D01*
X171629Y584183D01*
X171587Y584192D01*
X171544Y584198D01*
X171500Y584200D01*
D13*
X171500Y584200D03*
D12*
X171456Y584198D01*
X171413Y584192D01*
X171371Y584183D01*
X171329Y584170D01*
X171289Y584153D01*
X171250Y584133D01*
X171213Y584110D01*
X171179Y584083D01*
X171146Y584054D01*
X171117Y584021D01*
X171090Y583987D01*
X171067Y583950D01*
X171047Y583911D01*
X171030Y583871D01*
X171017Y583829D01*
X171008Y583787D01*
X171002Y583744D01*
X171000Y583700D01*
X171002Y583656D01*
X171008Y583613D01*
X171017Y583571D01*
X171030Y583529D01*
X171047Y583489D01*
X171067Y583450D01*
X171090Y583413D01*
X171117Y583379D01*
X171146Y583346D01*
X171179Y583317D01*
X171213Y583290D01*
X171250Y583267D01*
X171289Y583247D01*
X171329Y583230D01*
X171371Y583217D01*
X171413Y583208D01*
X171456Y583202D01*
X171500Y583200D01*
D14*
X260858Y332592D02*
X272542Y332592D01*
X272542Y331294D02*
X272542Y333890D01*
X260858Y333890D02*
X260858Y331294D01*
X272542Y341054D02*
X272542Y343650D01*
X272542Y341054D02*
X272540Y340955D01*
X272534Y340855D01*
X272525Y340756D01*
X272512Y340658D01*
X272495Y340560D01*
X272474Y340462D01*
X272449Y340366D01*
X272421Y340271D01*
X272389Y340177D01*
X272354Y340084D01*
X272315Y339992D01*
X272272Y339902D01*
X272227Y339814D01*
X272177Y339727D01*
X272125Y339643D01*
X272069Y339560D01*
X272011Y339480D01*
X271949Y339402D01*
X271884Y339327D01*
X271816Y339254D01*
X271746Y339184D01*
X271673Y339116D01*
X271598Y339051D01*
X271520Y338989D01*
X271440Y338931D01*
X271357Y338875D01*
X271273Y338823D01*
X271186Y338773D01*
X271098Y338728D01*
X271008Y338685D01*
X270916Y338646D01*
X270823Y338611D01*
X270729Y338579D01*
X270634Y338551D01*
X270538Y338526D01*
X270440Y338505D01*
X270342Y338488D01*
X270244Y338475D01*
X270145Y338466D01*
X270045Y338460D01*
X269946Y338458D01*
X269946Y338457D02*
X263454Y338457D01*
X263355Y338459D01*
X263255Y338465D01*
X263156Y338474D01*
X263058Y338487D01*
X262960Y338505D01*
X262862Y338525D01*
X262766Y338550D01*
X262670Y338578D01*
X262576Y338610D01*
X262483Y338645D01*
X262392Y338684D01*
X262302Y338727D01*
X262213Y338772D01*
X262127Y338822D01*
X262042Y338874D01*
X261960Y338930D01*
X261880Y338989D01*
X261802Y339050D01*
X261726Y339115D01*
X261653Y339183D01*
X261583Y339253D01*
X261515Y339326D01*
X261450Y339402D01*
X261389Y339480D01*
X261330Y339560D01*
X261274Y339642D01*
X261222Y339727D01*
X261173Y339813D01*
X261127Y339902D01*
X261084Y339992D01*
X261045Y340083D01*
X261010Y340176D01*
X260978Y340270D01*
X260950Y340366D01*
X260925Y340462D01*
X260905Y340560D01*
X260887Y340658D01*
X260874Y340756D01*
X260865Y340855D01*
X260859Y340954D01*
X260857Y341054D01*
X260858Y341054D02*
X260858Y343650D01*
X263454Y348015D02*
X260858Y351261D01*
X272542Y351261D01*
X272542Y354506D02*
X272542Y348015D01*
D10*
X110490Y336550D02*
X104140Y342900D01*
X110490Y336550D02*
X110490Y323850D01*
X104140Y317500D01*
X91440Y317500D01*
X85090Y323850D01*
X85090Y336550D01*
X91440Y342900D01*
X110490Y374650D02*
X110490Y387350D01*
X110490Y374650D02*
X104140Y368300D01*
X91440Y368300D01*
X85090Y374650D01*
X104140Y368300D02*
X110490Y361950D01*
X110490Y349250D01*
X104140Y342900D01*
X91440Y342900D01*
X85090Y349250D01*
X85090Y361950D01*
X91440Y368300D01*
X110490Y412750D02*
X104140Y419100D01*
X110490Y412750D02*
X110490Y400050D01*
X104140Y393700D01*
X91440Y393700D01*
X85090Y400050D01*
X85090Y412750D01*
X91440Y419100D01*
X104140Y393700D02*
X110490Y387350D01*
X91440Y393700D02*
X85090Y387350D01*
X85090Y374650D01*
X110490Y450850D02*
X110490Y463550D01*
X110490Y450850D02*
X104140Y444500D01*
X91440Y444500D01*
X85090Y450850D01*
X104140Y444500D02*
X110490Y438150D01*
X110490Y425450D01*
X104140Y419100D01*
X91440Y419100D01*
X85090Y425450D01*
X85090Y438150D01*
X91440Y444500D01*
X110490Y488950D02*
X104140Y495300D01*
X110490Y488950D02*
X110490Y476250D01*
X104140Y469900D01*
X91440Y469900D01*
X85090Y476250D01*
X85090Y488950D01*
X91440Y495300D01*
X104140Y469900D02*
X110490Y463550D01*
X91440Y469900D02*
X85090Y463550D01*
X85090Y450850D01*
X110490Y527050D02*
X110490Y539750D01*
X110490Y527050D02*
X104140Y520700D01*
X91440Y520700D01*
X85090Y527050D01*
X104140Y520700D02*
X110490Y514350D01*
X110490Y501650D01*
X104140Y495300D01*
X91440Y495300D01*
X85090Y501650D01*
X85090Y514350D01*
X91440Y520700D01*
X110490Y565150D02*
X104140Y571500D01*
X110490Y565150D02*
X110490Y552450D01*
X104140Y546100D01*
X91440Y546100D01*
X85090Y552450D01*
X85090Y565150D01*
X91440Y571500D01*
X104140Y546100D02*
X110490Y539750D01*
X91440Y546100D02*
X85090Y539750D01*
X85090Y527050D01*
X110490Y603250D02*
X110490Y615950D01*
X110490Y603250D02*
X104140Y596900D01*
X91440Y596900D01*
X85090Y603250D01*
X104140Y596900D02*
X110490Y590550D01*
X110490Y577850D01*
X104140Y571500D01*
X91440Y571500D01*
X85090Y577850D01*
X85090Y590550D01*
X91440Y596900D01*
X91440Y622300D02*
X104140Y622300D01*
X110490Y615950D01*
X91440Y622300D02*
X85090Y615950D01*
X85090Y603250D01*
X104140Y317500D02*
X110490Y311150D01*
X110490Y298450D01*
X104140Y292100D01*
X91440Y292100D01*
X85090Y298450D01*
X85090Y311150D01*
X91440Y317500D01*
D15*
X91313Y207493D02*
X102743Y207493D01*
X97663Y211303D02*
X91313Y207493D01*
X97663Y211303D02*
X91313Y215113D01*
X102743Y215113D01*
X102743Y224130D02*
X102741Y224230D01*
X102735Y224329D01*
X102725Y224429D01*
X102712Y224527D01*
X102694Y224626D01*
X102673Y224723D01*
X102648Y224819D01*
X102619Y224915D01*
X102586Y225009D01*
X102550Y225102D01*
X102510Y225193D01*
X102466Y225283D01*
X102419Y225371D01*
X102369Y225457D01*
X102315Y225541D01*
X102258Y225623D01*
X102198Y225702D01*
X102134Y225780D01*
X102068Y225854D01*
X101999Y225926D01*
X101927Y225995D01*
X101853Y226061D01*
X101775Y226125D01*
X101696Y226185D01*
X101614Y226242D01*
X101530Y226296D01*
X101444Y226346D01*
X101356Y226393D01*
X101266Y226437D01*
X101175Y226477D01*
X101082Y226513D01*
X100988Y226546D01*
X100892Y226575D01*
X100796Y226600D01*
X100699Y226621D01*
X100600Y226639D01*
X100502Y226652D01*
X100402Y226662D01*
X100303Y226668D01*
X100203Y226670D01*
X102743Y224130D02*
X102741Y223989D01*
X102736Y223848D01*
X102726Y223707D01*
X102713Y223566D01*
X102697Y223426D01*
X102676Y223286D01*
X102652Y223147D01*
X102624Y223008D01*
X102593Y222871D01*
X102558Y222734D01*
X102520Y222598D01*
X102478Y222463D01*
X102432Y222330D01*
X102383Y222197D01*
X102330Y222066D01*
X102274Y221937D01*
X102215Y221808D01*
X102152Y221682D01*
X102086Y221557D01*
X102017Y221434D01*
X101944Y221313D01*
X101868Y221194D01*
X101789Y221076D01*
X101708Y220961D01*
X101623Y220849D01*
X101535Y220738D01*
X101444Y220630D01*
X101351Y220524D01*
X101254Y220421D01*
X101155Y220320D01*
X93853Y220637D02*
X93753Y220639D01*
X93654Y220645D01*
X93554Y220655D01*
X93456Y220668D01*
X93357Y220686D01*
X93260Y220707D01*
X93164Y220732D01*
X93068Y220761D01*
X92974Y220794D01*
X92881Y220830D01*
X92790Y220870D01*
X92700Y220914D01*
X92612Y220961D01*
X92526Y221011D01*
X92442Y221065D01*
X92360Y221122D01*
X92281Y221182D01*
X92203Y221246D01*
X92129Y221312D01*
X92057Y221381D01*
X91988Y221453D01*
X91922Y221527D01*
X91858Y221605D01*
X91798Y221684D01*
X91741Y221766D01*
X91687Y221850D01*
X91637Y221936D01*
X91590Y222024D01*
X91546Y222114D01*
X91506Y222205D01*
X91470Y222298D01*
X91437Y222392D01*
X91408Y222488D01*
X91383Y222584D01*
X91362Y222681D01*
X91344Y222780D01*
X91331Y222878D01*
X91321Y222978D01*
X91315Y223077D01*
X91313Y223177D01*
X91315Y223310D01*
X91320Y223443D01*
X91330Y223576D01*
X91343Y223709D01*
X91360Y223841D01*
X91380Y223973D01*
X91404Y224104D01*
X91432Y224234D01*
X91463Y224364D01*
X91498Y224492D01*
X91537Y224620D01*
X91579Y224746D01*
X91625Y224871D01*
X91674Y224995D01*
X91726Y225118D01*
X91782Y225239D01*
X91842Y225358D01*
X91904Y225476D01*
X91970Y225591D01*
X92039Y225705D01*
X92112Y225817D01*
X92187Y225927D01*
X92266Y226035D01*
X96076Y221907D02*
X96024Y221823D01*
X95969Y221740D01*
X95910Y221660D01*
X95849Y221582D01*
X95785Y221507D01*
X95717Y221434D01*
X95647Y221363D01*
X95575Y221296D01*
X95500Y221231D01*
X95422Y221169D01*
X95342Y221110D01*
X95260Y221054D01*
X95176Y221002D01*
X95090Y220953D01*
X95002Y220907D01*
X94912Y220864D01*
X94821Y220825D01*
X94728Y220790D01*
X94634Y220758D01*
X94539Y220730D01*
X94443Y220705D01*
X94346Y220685D01*
X94248Y220667D01*
X94150Y220654D01*
X94051Y220645D01*
X93952Y220639D01*
X93853Y220637D01*
X97980Y225400D02*
X98032Y225484D01*
X98087Y225567D01*
X98146Y225647D01*
X98207Y225725D01*
X98271Y225800D01*
X98339Y225873D01*
X98409Y225944D01*
X98481Y226011D01*
X98556Y226076D01*
X98634Y226138D01*
X98714Y226197D01*
X98796Y226253D01*
X98880Y226305D01*
X98966Y226354D01*
X99054Y226400D01*
X99144Y226443D01*
X99235Y226482D01*
X99328Y226517D01*
X99422Y226549D01*
X99517Y226577D01*
X99613Y226602D01*
X99710Y226622D01*
X99808Y226640D01*
X99906Y226653D01*
X100005Y226662D01*
X100104Y226668D01*
X100203Y226670D01*
X97981Y225400D02*
X96076Y221907D01*
X91313Y232258D02*
X102743Y232258D01*
X102743Y230988D02*
X102743Y233528D01*
X91313Y233528D02*
X91313Y230988D01*
X96393Y243053D02*
X96393Y244958D01*
X102743Y244958D01*
X102743Y241148D01*
X102741Y241048D01*
X102735Y240949D01*
X102725Y240849D01*
X102712Y240751D01*
X102694Y240652D01*
X102673Y240555D01*
X102648Y240459D01*
X102619Y240363D01*
X102586Y240269D01*
X102550Y240176D01*
X102510Y240085D01*
X102466Y239995D01*
X102419Y239907D01*
X102369Y239821D01*
X102315Y239737D01*
X102258Y239655D01*
X102198Y239576D01*
X102134Y239498D01*
X102068Y239424D01*
X101999Y239352D01*
X101927Y239283D01*
X101853Y239217D01*
X101775Y239153D01*
X101696Y239093D01*
X101614Y239036D01*
X101530Y238982D01*
X101444Y238932D01*
X101356Y238885D01*
X101266Y238841D01*
X101175Y238801D01*
X101082Y238765D01*
X100988Y238732D01*
X100892Y238703D01*
X100796Y238678D01*
X100699Y238657D01*
X100600Y238639D01*
X100502Y238626D01*
X100402Y238616D01*
X100303Y238610D01*
X100203Y238608D01*
X93853Y238608D01*
X93753Y238610D01*
X93654Y238616D01*
X93554Y238626D01*
X93456Y238639D01*
X93357Y238657D01*
X93260Y238678D01*
X93164Y238703D01*
X93068Y238732D01*
X92974Y238765D01*
X92881Y238801D01*
X92790Y238841D01*
X92700Y238885D01*
X92612Y238932D01*
X92526Y238982D01*
X92442Y239036D01*
X92360Y239093D01*
X92281Y239153D01*
X92203Y239217D01*
X92129Y239283D01*
X92057Y239352D01*
X91988Y239424D01*
X91922Y239498D01*
X91858Y239576D01*
X91798Y239655D01*
X91741Y239737D01*
X91687Y239821D01*
X91637Y239907D01*
X91590Y239995D01*
X91546Y240085D01*
X91506Y240176D01*
X91470Y240269D01*
X91437Y240363D01*
X91408Y240459D01*
X91383Y240555D01*
X91362Y240652D01*
X91344Y240751D01*
X91331Y240849D01*
X91321Y240949D01*
X91315Y241048D01*
X91313Y241148D01*
X91313Y244958D01*
X91313Y250800D02*
X102743Y250800D01*
X102743Y257150D02*
X91313Y250800D01*
X91313Y257150D02*
X102743Y257150D01*
X102743Y261976D02*
X91313Y265786D01*
X102743Y269596D01*
X99886Y268643D02*
X99886Y262928D01*
X102743Y274447D02*
X91313Y274447D01*
X102743Y274447D02*
X102743Y279527D01*
D10*
X63500Y571500D02*
X57150Y577850D01*
X57150Y590550D01*
X63500Y596900D01*
X76200Y596900D01*
X82550Y590550D01*
X82550Y577850D01*
X76200Y571500D01*
X57150Y539750D02*
X57150Y527050D01*
X57150Y539750D02*
X63500Y546100D01*
X76200Y546100D01*
X82550Y539750D01*
X63500Y546100D02*
X57150Y552450D01*
X57150Y565150D01*
X63500Y571500D01*
X76200Y571500D01*
X82550Y565150D01*
X82550Y552450D01*
X76200Y546100D01*
X57150Y501650D02*
X63500Y495300D01*
X57150Y501650D02*
X57150Y514350D01*
X63500Y520700D01*
X76200Y520700D01*
X82550Y514350D01*
X82550Y501650D01*
X76200Y495300D01*
X63500Y520700D02*
X57150Y527050D01*
X76200Y520700D02*
X82550Y527050D01*
X82550Y539750D01*
X57150Y463550D02*
X57150Y450850D01*
X57150Y463550D02*
X63500Y469900D01*
X76200Y469900D01*
X82550Y463550D01*
X63500Y469900D02*
X57150Y476250D01*
X57150Y488950D01*
X63500Y495300D01*
X76200Y495300D01*
X82550Y488950D01*
X82550Y476250D01*
X76200Y469900D01*
X57150Y425450D02*
X63500Y419100D01*
X57150Y425450D02*
X57150Y438150D01*
X63500Y444500D01*
X76200Y444500D01*
X82550Y438150D01*
X82550Y425450D01*
X76200Y419100D01*
X63500Y444500D02*
X57150Y450850D01*
X76200Y444500D02*
X82550Y450850D01*
X82550Y463550D01*
X57150Y387350D02*
X57150Y374650D01*
X57150Y387350D02*
X63500Y393700D01*
X76200Y393700D01*
X82550Y387350D01*
X63500Y393700D02*
X57150Y400050D01*
X57150Y412750D01*
X63500Y419100D01*
X76200Y419100D01*
X82550Y412750D01*
X82550Y400050D01*
X76200Y393700D01*
X57150Y349250D02*
X63500Y342900D01*
X57150Y349250D02*
X57150Y361950D01*
X63500Y368300D01*
X76200Y368300D01*
X82550Y361950D01*
X82550Y349250D01*
X76200Y342900D01*
X63500Y368300D02*
X57150Y374650D01*
X76200Y368300D02*
X82550Y374650D01*
X82550Y387350D01*
X57150Y311150D02*
X57150Y298450D01*
X57150Y311150D02*
X63500Y317500D01*
X76200Y317500D01*
X82550Y311150D01*
X63500Y317500D02*
X57150Y323850D01*
X57150Y336550D01*
X63500Y342900D01*
X76200Y342900D01*
X82550Y336550D01*
X82550Y323850D01*
X76200Y317500D01*
X76200Y292100D02*
X63500Y292100D01*
X57150Y298450D01*
X76200Y292100D02*
X82550Y298450D01*
X82550Y311150D01*
X63500Y596900D02*
X57150Y603250D01*
X57150Y615950D01*
X63500Y622300D01*
X76200Y622300D01*
X82550Y615950D01*
X82550Y603250D01*
X76200Y596900D01*
D15*
X76327Y203073D02*
X64897Y203073D01*
X71247Y206883D01*
X64897Y210693D01*
X76327Y210693D01*
X76327Y216853D02*
X64897Y216853D01*
X64897Y220028D01*
X64899Y220139D01*
X64905Y220249D01*
X64914Y220360D01*
X64928Y220470D01*
X64945Y220579D01*
X64966Y220688D01*
X64991Y220796D01*
X65020Y220903D01*
X65052Y221009D01*
X65088Y221114D01*
X65128Y221217D01*
X65171Y221319D01*
X65218Y221420D01*
X65269Y221519D01*
X65322Y221616D01*
X65379Y221710D01*
X65440Y221803D01*
X65503Y221894D01*
X65570Y221983D01*
X65640Y222069D01*
X65713Y222152D01*
X65788Y222234D01*
X65866Y222312D01*
X65948Y222387D01*
X66031Y222460D01*
X66117Y222530D01*
X66206Y222597D01*
X66297Y222660D01*
X66390Y222721D01*
X66485Y222778D01*
X66581Y222831D01*
X66680Y222882D01*
X66781Y222929D01*
X66883Y222972D01*
X66986Y223012D01*
X67091Y223048D01*
X67197Y223080D01*
X67304Y223109D01*
X67412Y223134D01*
X67521Y223155D01*
X67630Y223172D01*
X67740Y223186D01*
X67851Y223195D01*
X67961Y223201D01*
X68072Y223203D01*
X68183Y223201D01*
X68293Y223195D01*
X68404Y223186D01*
X68514Y223172D01*
X68623Y223155D01*
X68732Y223134D01*
X68840Y223109D01*
X68947Y223080D01*
X69053Y223048D01*
X69158Y223012D01*
X69261Y222972D01*
X69363Y222929D01*
X69464Y222882D01*
X69563Y222831D01*
X69660Y222778D01*
X69754Y222721D01*
X69847Y222660D01*
X69938Y222597D01*
X70027Y222530D01*
X70113Y222460D01*
X70196Y222387D01*
X70278Y222312D01*
X70356Y222234D01*
X70431Y222152D01*
X70504Y222069D01*
X70574Y221983D01*
X70641Y221894D01*
X70704Y221803D01*
X70765Y221710D01*
X70822Y221616D01*
X70875Y221519D01*
X70926Y221420D01*
X70973Y221319D01*
X71016Y221217D01*
X71056Y221114D01*
X71092Y221009D01*
X71124Y220903D01*
X71153Y220796D01*
X71178Y220688D01*
X71199Y220579D01*
X71216Y220470D01*
X71230Y220360D01*
X71239Y220249D01*
X71245Y220139D01*
X71247Y220028D01*
X71247Y216853D01*
X73152Y227711D02*
X68072Y227711D01*
X67961Y227713D01*
X67851Y227719D01*
X67740Y227728D01*
X67630Y227742D01*
X67521Y227759D01*
X67412Y227780D01*
X67304Y227805D01*
X67197Y227834D01*
X67091Y227866D01*
X66986Y227902D01*
X66883Y227942D01*
X66781Y227985D01*
X66680Y228032D01*
X66581Y228083D01*
X66485Y228136D01*
X66390Y228193D01*
X66297Y228254D01*
X66206Y228317D01*
X66117Y228384D01*
X66031Y228454D01*
X65948Y228527D01*
X65866Y228602D01*
X65788Y228680D01*
X65713Y228762D01*
X65640Y228845D01*
X65570Y228931D01*
X65503Y229020D01*
X65440Y229111D01*
X65379Y229204D01*
X65322Y229299D01*
X65269Y229395D01*
X65218Y229494D01*
X65171Y229595D01*
X65128Y229697D01*
X65088Y229800D01*
X65052Y229905D01*
X65020Y230011D01*
X64991Y230118D01*
X64966Y230226D01*
X64945Y230335D01*
X64928Y230444D01*
X64914Y230554D01*
X64905Y230665D01*
X64899Y230775D01*
X64897Y230886D01*
X64899Y230997D01*
X64905Y231107D01*
X64914Y231218D01*
X64928Y231328D01*
X64945Y231437D01*
X64966Y231546D01*
X64991Y231654D01*
X65020Y231761D01*
X65052Y231867D01*
X65088Y231972D01*
X65128Y232075D01*
X65171Y232177D01*
X65218Y232278D01*
X65269Y232377D01*
X65322Y232474D01*
X65379Y232568D01*
X65440Y232661D01*
X65503Y232752D01*
X65570Y232841D01*
X65640Y232927D01*
X65713Y233010D01*
X65788Y233092D01*
X65866Y233170D01*
X65948Y233245D01*
X66031Y233318D01*
X66117Y233388D01*
X66206Y233455D01*
X66297Y233518D01*
X66390Y233579D01*
X66485Y233636D01*
X66581Y233689D01*
X66680Y233740D01*
X66781Y233787D01*
X66883Y233830D01*
X66986Y233870D01*
X67091Y233906D01*
X67197Y233938D01*
X67304Y233967D01*
X67412Y233992D01*
X67521Y234013D01*
X67630Y234030D01*
X67740Y234044D01*
X67851Y234053D01*
X67961Y234059D01*
X68072Y234061D01*
X73152Y234061D01*
X73263Y234059D01*
X73373Y234053D01*
X73484Y234044D01*
X73594Y234030D01*
X73703Y234013D01*
X73812Y233992D01*
X73920Y233967D01*
X74027Y233938D01*
X74133Y233906D01*
X74238Y233870D01*
X74341Y233830D01*
X74443Y233787D01*
X74544Y233740D01*
X74643Y233689D01*
X74740Y233636D01*
X74834Y233579D01*
X74927Y233518D01*
X75018Y233455D01*
X75107Y233388D01*
X75193Y233318D01*
X75276Y233245D01*
X75358Y233170D01*
X75436Y233092D01*
X75511Y233010D01*
X75584Y232927D01*
X75654Y232841D01*
X75721Y232752D01*
X75784Y232661D01*
X75845Y232568D01*
X75902Y232473D01*
X75955Y232377D01*
X76006Y232278D01*
X76053Y232177D01*
X76096Y232075D01*
X76136Y231972D01*
X76172Y231867D01*
X76204Y231761D01*
X76233Y231654D01*
X76258Y231546D01*
X76279Y231437D01*
X76296Y231328D01*
X76310Y231218D01*
X76319Y231107D01*
X76325Y230997D01*
X76327Y230886D01*
X76325Y230775D01*
X76319Y230665D01*
X76310Y230554D01*
X76296Y230444D01*
X76279Y230335D01*
X76258Y230226D01*
X76233Y230118D01*
X76204Y230011D01*
X76172Y229905D01*
X76136Y229800D01*
X76096Y229697D01*
X76053Y229595D01*
X76006Y229494D01*
X75955Y229395D01*
X75902Y229298D01*
X75845Y229204D01*
X75784Y229111D01*
X75721Y229020D01*
X75654Y228931D01*
X75584Y228845D01*
X75511Y228762D01*
X75436Y228680D01*
X75358Y228602D01*
X75276Y228527D01*
X75193Y228454D01*
X75107Y228384D01*
X75018Y228317D01*
X74927Y228254D01*
X74834Y228193D01*
X74739Y228136D01*
X74643Y228083D01*
X74544Y228032D01*
X74443Y227985D01*
X74341Y227942D01*
X74238Y227902D01*
X74133Y227866D01*
X74027Y227834D01*
X73920Y227805D01*
X73812Y227780D01*
X73703Y227759D01*
X73594Y227742D01*
X73484Y227728D01*
X73373Y227719D01*
X73263Y227713D01*
X73152Y227711D01*
X64897Y238760D02*
X76327Y241300D01*
X68707Y243840D01*
X76327Y246380D01*
X64897Y248920D01*
X76327Y254025D02*
X76327Y259105D01*
X76327Y254025D02*
X64897Y254025D01*
X64897Y259105D01*
X69977Y257835D02*
X69977Y254025D01*
X64897Y263989D02*
X76327Y263989D01*
X64897Y263989D02*
X64897Y267164D01*
X64899Y267275D01*
X64905Y267385D01*
X64914Y267496D01*
X64928Y267606D01*
X64945Y267715D01*
X64966Y267824D01*
X64991Y267932D01*
X65020Y268039D01*
X65052Y268145D01*
X65088Y268250D01*
X65128Y268353D01*
X65171Y268455D01*
X65218Y268556D01*
X65269Y268655D01*
X65322Y268752D01*
X65379Y268846D01*
X65440Y268939D01*
X65503Y269030D01*
X65570Y269119D01*
X65640Y269205D01*
X65713Y269288D01*
X65788Y269370D01*
X65866Y269448D01*
X65948Y269523D01*
X66031Y269596D01*
X66117Y269666D01*
X66206Y269733D01*
X66297Y269796D01*
X66390Y269857D01*
X66485Y269914D01*
X66581Y269967D01*
X66680Y270018D01*
X66781Y270065D01*
X66883Y270108D01*
X66986Y270148D01*
X67091Y270184D01*
X67197Y270216D01*
X67304Y270245D01*
X67412Y270270D01*
X67521Y270291D01*
X67630Y270308D01*
X67740Y270322D01*
X67851Y270331D01*
X67961Y270337D01*
X68072Y270339D01*
X68183Y270337D01*
X68293Y270331D01*
X68404Y270322D01*
X68514Y270308D01*
X68623Y270291D01*
X68732Y270270D01*
X68840Y270245D01*
X68947Y270216D01*
X69053Y270184D01*
X69158Y270148D01*
X69261Y270108D01*
X69363Y270065D01*
X69464Y270018D01*
X69563Y269967D01*
X69660Y269914D01*
X69754Y269857D01*
X69847Y269796D01*
X69938Y269733D01*
X70027Y269666D01*
X70113Y269596D01*
X70196Y269523D01*
X70278Y269448D01*
X70356Y269370D01*
X70431Y269288D01*
X70504Y269205D01*
X70574Y269119D01*
X70641Y269030D01*
X70704Y268939D01*
X70765Y268846D01*
X70822Y268752D01*
X70875Y268655D01*
X70926Y268556D01*
X70973Y268455D01*
X71016Y268353D01*
X71056Y268250D01*
X71092Y268145D01*
X71124Y268039D01*
X71153Y267932D01*
X71178Y267824D01*
X71199Y267715D01*
X71216Y267606D01*
X71230Y267496D01*
X71239Y267385D01*
X71245Y267275D01*
X71247Y267164D01*
X71247Y263989D01*
X71247Y267799D02*
X76327Y270339D01*
D10*
X35560Y571500D02*
X29210Y577850D01*
X29210Y590550D01*
X35560Y596900D01*
X48260Y596900D01*
X54610Y590550D01*
X54610Y577850D01*
X48260Y571500D01*
X29210Y539750D02*
X29210Y527050D01*
X29210Y539750D02*
X35560Y546100D01*
X48260Y546100D01*
X54610Y539750D01*
X35560Y546100D02*
X29210Y552450D01*
X29210Y565150D01*
X35560Y571500D01*
X48260Y571500D01*
X54610Y565150D01*
X54610Y552450D01*
X48260Y546100D01*
X29210Y501650D02*
X35560Y495300D01*
X29210Y501650D02*
X29210Y514350D01*
X35560Y520700D01*
X48260Y520700D01*
X54610Y514350D01*
X54610Y501650D01*
X48260Y495300D01*
X35560Y520700D02*
X29210Y527050D01*
X48260Y520700D02*
X54610Y527050D01*
X54610Y539750D01*
X29210Y463550D02*
X29210Y450850D01*
X29210Y463550D02*
X35560Y469900D01*
X48260Y469900D01*
X54610Y463550D01*
X35560Y469900D02*
X29210Y476250D01*
X29210Y488950D01*
X35560Y495300D01*
X48260Y495300D01*
X54610Y488950D01*
X54610Y476250D01*
X48260Y469900D01*
X29210Y425450D02*
X35560Y419100D01*
X29210Y425450D02*
X29210Y438150D01*
X35560Y444500D01*
X48260Y444500D01*
X54610Y438150D01*
X54610Y425450D01*
X48260Y419100D01*
X35560Y444500D02*
X29210Y450850D01*
X48260Y444500D02*
X54610Y450850D01*
X54610Y463550D01*
X29210Y387350D02*
X29210Y374650D01*
X29210Y387350D02*
X35560Y393700D01*
X48260Y393700D01*
X54610Y387350D01*
X35560Y393700D02*
X29210Y400050D01*
X29210Y412750D01*
X35560Y419100D01*
X48260Y419100D01*
X54610Y412750D01*
X54610Y400050D01*
X48260Y393700D01*
X29210Y349250D02*
X35560Y342900D01*
X29210Y349250D02*
X29210Y361950D01*
X35560Y368300D01*
X48260Y368300D01*
X54610Y361950D01*
X54610Y349250D01*
X48260Y342900D01*
X35560Y368300D02*
X29210Y374650D01*
X48260Y368300D02*
X54610Y374650D01*
X54610Y387350D01*
X29210Y311150D02*
X29210Y298450D01*
X29210Y311150D02*
X35560Y317500D01*
X48260Y317500D01*
X54610Y311150D01*
X35560Y317500D02*
X29210Y323850D01*
X29210Y336550D01*
X35560Y342900D01*
X48260Y342900D01*
X54610Y336550D01*
X54610Y323850D01*
X48260Y317500D01*
X48260Y292100D02*
X35560Y292100D01*
X29210Y298450D01*
X48260Y292100D02*
X54610Y298450D01*
X54610Y311150D01*
X35560Y596900D02*
X29210Y603250D01*
X29210Y615950D01*
X35560Y622300D01*
X48260Y622300D01*
X54610Y615950D01*
X54610Y603250D01*
X48260Y596900D01*
D15*
X48387Y228473D02*
X36957Y228473D01*
X43307Y232283D01*
X36957Y236093D01*
X48387Y236093D01*
X42037Y246507D02*
X42037Y248412D01*
X48387Y248412D01*
X48387Y244602D01*
X48385Y244502D01*
X48379Y244403D01*
X48369Y244303D01*
X48356Y244205D01*
X48338Y244106D01*
X48317Y244009D01*
X48292Y243913D01*
X48263Y243817D01*
X48230Y243723D01*
X48194Y243630D01*
X48154Y243539D01*
X48110Y243449D01*
X48063Y243361D01*
X48013Y243275D01*
X47959Y243191D01*
X47902Y243109D01*
X47842Y243030D01*
X47778Y242952D01*
X47712Y242878D01*
X47643Y242806D01*
X47571Y242737D01*
X47497Y242671D01*
X47419Y242607D01*
X47340Y242547D01*
X47258Y242490D01*
X47174Y242436D01*
X47088Y242386D01*
X47000Y242339D01*
X46910Y242295D01*
X46819Y242255D01*
X46726Y242219D01*
X46632Y242186D01*
X46536Y242157D01*
X46440Y242132D01*
X46343Y242111D01*
X46244Y242093D01*
X46146Y242080D01*
X46046Y242070D01*
X45947Y242064D01*
X45847Y242062D01*
X39497Y242062D01*
X39397Y242064D01*
X39298Y242070D01*
X39198Y242080D01*
X39100Y242093D01*
X39001Y242111D01*
X38904Y242132D01*
X38808Y242157D01*
X38712Y242186D01*
X38618Y242219D01*
X38525Y242255D01*
X38434Y242295D01*
X38344Y242339D01*
X38256Y242386D01*
X38170Y242436D01*
X38086Y242490D01*
X38004Y242547D01*
X37925Y242607D01*
X37847Y242671D01*
X37773Y242737D01*
X37701Y242806D01*
X37632Y242878D01*
X37566Y242952D01*
X37502Y243030D01*
X37442Y243109D01*
X37385Y243191D01*
X37331Y243275D01*
X37281Y243361D01*
X37234Y243449D01*
X37190Y243539D01*
X37150Y243630D01*
X37114Y243723D01*
X37081Y243817D01*
X37052Y243913D01*
X37027Y244009D01*
X37006Y244106D01*
X36988Y244205D01*
X36975Y244303D01*
X36965Y244403D01*
X36959Y244502D01*
X36957Y244602D01*
X36957Y248412D01*
X36957Y254254D02*
X48387Y254254D01*
X48387Y260604D02*
X36957Y254254D01*
X36957Y260604D02*
X48387Y260604D01*
X48387Y266446D02*
X36957Y266446D01*
X36957Y269621D01*
X36959Y269732D01*
X36965Y269842D01*
X36974Y269953D01*
X36988Y270063D01*
X37005Y270172D01*
X37026Y270281D01*
X37051Y270389D01*
X37080Y270496D01*
X37112Y270602D01*
X37148Y270707D01*
X37188Y270810D01*
X37231Y270912D01*
X37278Y271013D01*
X37329Y271112D01*
X37382Y271209D01*
X37439Y271303D01*
X37500Y271396D01*
X37563Y271487D01*
X37630Y271576D01*
X37700Y271662D01*
X37773Y271745D01*
X37848Y271827D01*
X37926Y271905D01*
X38008Y271980D01*
X38091Y272053D01*
X38177Y272123D01*
X38266Y272190D01*
X38357Y272253D01*
X38450Y272314D01*
X38545Y272371D01*
X38641Y272424D01*
X38740Y272475D01*
X38841Y272522D01*
X38943Y272565D01*
X39046Y272605D01*
X39151Y272641D01*
X39257Y272673D01*
X39364Y272702D01*
X39472Y272727D01*
X39581Y272748D01*
X39690Y272765D01*
X39800Y272779D01*
X39911Y272788D01*
X40021Y272794D01*
X40132Y272796D01*
X45212Y272796D01*
X45323Y272794D01*
X45433Y272788D01*
X45544Y272779D01*
X45654Y272765D01*
X45763Y272748D01*
X45872Y272727D01*
X45980Y272702D01*
X46087Y272673D01*
X46193Y272641D01*
X46298Y272605D01*
X46401Y272565D01*
X46503Y272522D01*
X46604Y272475D01*
X46703Y272424D01*
X46800Y272371D01*
X46894Y272314D01*
X46987Y272253D01*
X47078Y272190D01*
X47167Y272123D01*
X47253Y272053D01*
X47336Y271980D01*
X47418Y271905D01*
X47496Y271827D01*
X47571Y271745D01*
X47644Y271662D01*
X47714Y271576D01*
X47781Y271487D01*
X47844Y271396D01*
X47905Y271303D01*
X47962Y271209D01*
X48015Y271112D01*
X48066Y271013D01*
X48113Y270912D01*
X48156Y270810D01*
X48196Y270707D01*
X48232Y270602D01*
X48264Y270496D01*
X48293Y270389D01*
X48318Y270281D01*
X48339Y270172D01*
X48356Y270063D01*
X48370Y269953D01*
X48379Y269842D01*
X48385Y269732D01*
X48387Y269621D01*
X48387Y266446D01*
D16*
X592500Y550900D02*
X677500Y550900D01*
X677500Y515900D01*
X592500Y515900D01*
X592500Y550900D01*
D14*
X594057Y565658D02*
X594156Y565660D01*
X594256Y565666D01*
X594355Y565675D01*
X594453Y565688D01*
X594551Y565705D01*
X594649Y565726D01*
X594745Y565751D01*
X594840Y565779D01*
X594934Y565811D01*
X595027Y565846D01*
X595119Y565885D01*
X595209Y565928D01*
X595297Y565973D01*
X595384Y566023D01*
X595468Y566075D01*
X595551Y566131D01*
X595631Y566189D01*
X595709Y566251D01*
X595784Y566316D01*
X595857Y566384D01*
X595927Y566454D01*
X595995Y566527D01*
X596060Y566602D01*
X596122Y566680D01*
X596180Y566760D01*
X596236Y566843D01*
X596288Y566927D01*
X596338Y567014D01*
X596383Y567102D01*
X596426Y567192D01*
X596465Y567284D01*
X596500Y567377D01*
X596532Y567471D01*
X596560Y567566D01*
X596585Y567662D01*
X596606Y567760D01*
X596623Y567858D01*
X596636Y567956D01*
X596645Y568055D01*
X596651Y568155D01*
X596653Y568254D01*
X594057Y565658D02*
X593913Y565660D01*
X593768Y565666D01*
X593624Y565675D01*
X593481Y565688D01*
X593337Y565705D01*
X593194Y565726D01*
X593052Y565751D01*
X592911Y565779D01*
X592770Y565811D01*
X592630Y565847D01*
X592491Y565886D01*
X592353Y565929D01*
X592217Y565976D01*
X592081Y566026D01*
X591947Y566080D01*
X591815Y566137D01*
X591684Y566198D01*
X591555Y566262D01*
X591427Y566330D01*
X591301Y566400D01*
X591177Y566475D01*
X591056Y566552D01*
X590936Y566633D01*
X590818Y566716D01*
X590703Y566803D01*
X590590Y566893D01*
X590479Y566986D01*
X590371Y567081D01*
X590265Y567180D01*
X590162Y567281D01*
X590487Y574746D02*
X590489Y574845D01*
X590495Y574945D01*
X590504Y575044D01*
X590517Y575142D01*
X590534Y575240D01*
X590555Y575338D01*
X590580Y575434D01*
X590608Y575529D01*
X590640Y575623D01*
X590675Y575716D01*
X590714Y575808D01*
X590757Y575898D01*
X590802Y575986D01*
X590852Y576073D01*
X590904Y576157D01*
X590960Y576240D01*
X591018Y576320D01*
X591080Y576398D01*
X591145Y576473D01*
X591213Y576546D01*
X591283Y576616D01*
X591356Y576684D01*
X591431Y576749D01*
X591509Y576811D01*
X591589Y576869D01*
X591672Y576925D01*
X591756Y576977D01*
X591843Y577027D01*
X591931Y577072D01*
X592021Y577115D01*
X592113Y577154D01*
X592206Y577189D01*
X592300Y577221D01*
X592395Y577249D01*
X592492Y577274D01*
X592589Y577295D01*
X592687Y577312D01*
X592785Y577325D01*
X592884Y577334D01*
X592984Y577340D01*
X593083Y577342D01*
X593219Y577340D01*
X593355Y577334D01*
X593491Y577325D01*
X593627Y577312D01*
X593762Y577294D01*
X593896Y577274D01*
X594030Y577249D01*
X594164Y577221D01*
X594296Y577188D01*
X594427Y577153D01*
X594558Y577113D01*
X594687Y577070D01*
X594815Y577024D01*
X594941Y576973D01*
X595067Y576920D01*
X595190Y576862D01*
X595312Y576802D01*
X595432Y576738D01*
X595551Y576670D01*
X595667Y576600D01*
X595781Y576526D01*
X595894Y576449D01*
X596004Y576368D01*
X591785Y572474D02*
X591699Y572527D01*
X591615Y572584D01*
X591533Y572643D01*
X591453Y572706D01*
X591376Y572772D01*
X591301Y572840D01*
X591229Y572912D01*
X591160Y572986D01*
X591094Y573063D01*
X591031Y573142D01*
X590971Y573224D01*
X590914Y573308D01*
X590860Y573394D01*
X590810Y573482D01*
X590763Y573572D01*
X590719Y573663D01*
X590680Y573757D01*
X590643Y573851D01*
X590611Y573947D01*
X590582Y574045D01*
X590557Y574143D01*
X590536Y574242D01*
X590518Y574342D01*
X590505Y574442D01*
X590495Y574543D01*
X590489Y574645D01*
X590487Y574746D01*
X595355Y570526D02*
X595441Y570473D01*
X595525Y570416D01*
X595607Y570357D01*
X595687Y570294D01*
X595764Y570228D01*
X595839Y570160D01*
X595911Y570088D01*
X595980Y570014D01*
X596046Y569937D01*
X596109Y569858D01*
X596169Y569776D01*
X596226Y569692D01*
X596280Y569606D01*
X596330Y569518D01*
X596377Y569428D01*
X596421Y569337D01*
X596460Y569243D01*
X596497Y569149D01*
X596529Y569053D01*
X596558Y568955D01*
X596583Y568857D01*
X596604Y568758D01*
X596622Y568658D01*
X596635Y568558D01*
X596645Y568457D01*
X596651Y568355D01*
X596653Y568254D01*
X595355Y570526D02*
X591785Y572474D01*
X601761Y577342D02*
X601761Y565658D01*
X601761Y577342D02*
X605007Y577342D01*
X605120Y577340D01*
X605233Y577334D01*
X605346Y577324D01*
X605459Y577310D01*
X605571Y577293D01*
X605682Y577271D01*
X605792Y577246D01*
X605902Y577216D01*
X606010Y577183D01*
X606117Y577146D01*
X606223Y577106D01*
X606327Y577061D01*
X606430Y577013D01*
X606531Y576962D01*
X606630Y576907D01*
X606727Y576849D01*
X606822Y576787D01*
X606915Y576722D01*
X607005Y576654D01*
X607093Y576583D01*
X607179Y576508D01*
X607262Y576431D01*
X607342Y576351D01*
X607419Y576268D01*
X607494Y576182D01*
X607565Y576094D01*
X607633Y576004D01*
X607698Y575911D01*
X607760Y575816D01*
X607818Y575719D01*
X607873Y575620D01*
X607924Y575519D01*
X607972Y575416D01*
X608017Y575312D01*
X608057Y575206D01*
X608094Y575099D01*
X608127Y574991D01*
X608157Y574881D01*
X608182Y574771D01*
X608204Y574660D01*
X608221Y574548D01*
X608235Y574435D01*
X608245Y574322D01*
X608251Y574209D01*
X608253Y574096D01*
X608251Y573983D01*
X608245Y573870D01*
X608235Y573757D01*
X608221Y573644D01*
X608204Y573532D01*
X608182Y573421D01*
X608157Y573311D01*
X608127Y573201D01*
X608094Y573093D01*
X608057Y572986D01*
X608017Y572880D01*
X607972Y572776D01*
X607924Y572673D01*
X607873Y572572D01*
X607818Y572473D01*
X607760Y572376D01*
X607698Y572281D01*
X607633Y572188D01*
X607565Y572098D01*
X607494Y572010D01*
X607419Y571924D01*
X607342Y571841D01*
X607262Y571761D01*
X607179Y571684D01*
X607093Y571609D01*
X607005Y571538D01*
X606915Y571470D01*
X606822Y571405D01*
X606727Y571343D01*
X606630Y571285D01*
X606531Y571230D01*
X606430Y571179D01*
X606327Y571131D01*
X606223Y571086D01*
X606117Y571046D01*
X606010Y571009D01*
X605902Y570976D01*
X605792Y570946D01*
X605682Y570921D01*
X605571Y570899D01*
X605459Y570882D01*
X605346Y570868D01*
X605233Y570858D01*
X605120Y570852D01*
X605007Y570850D01*
X605007Y570851D02*
X601761Y570851D01*
X616155Y565658D02*
X616254Y565660D01*
X616354Y565666D01*
X616453Y565675D01*
X616551Y565688D01*
X616649Y565705D01*
X616747Y565726D01*
X616843Y565751D01*
X616938Y565779D01*
X617032Y565811D01*
X617125Y565846D01*
X617217Y565885D01*
X617307Y565928D01*
X617395Y565973D01*
X617482Y566023D01*
X617566Y566075D01*
X617649Y566131D01*
X617729Y566189D01*
X617807Y566251D01*
X617882Y566316D01*
X617955Y566384D01*
X618025Y566454D01*
X618093Y566527D01*
X618158Y566602D01*
X618220Y566680D01*
X618278Y566760D01*
X618334Y566843D01*
X618386Y566927D01*
X618436Y567014D01*
X618481Y567102D01*
X618524Y567192D01*
X618563Y567284D01*
X618598Y567377D01*
X618630Y567471D01*
X618658Y567566D01*
X618683Y567662D01*
X618704Y567760D01*
X618721Y567858D01*
X618734Y567956D01*
X618743Y568055D01*
X618749Y568155D01*
X618751Y568254D01*
X616155Y565658D02*
X616011Y565660D01*
X615866Y565666D01*
X615722Y565675D01*
X615579Y565688D01*
X615435Y565705D01*
X615292Y565726D01*
X615150Y565751D01*
X615009Y565779D01*
X614868Y565811D01*
X614728Y565847D01*
X614589Y565886D01*
X614451Y565929D01*
X614315Y565976D01*
X614179Y566026D01*
X614045Y566080D01*
X613913Y566137D01*
X613782Y566198D01*
X613653Y566262D01*
X613525Y566330D01*
X613399Y566400D01*
X613275Y566475D01*
X613154Y566552D01*
X613034Y566633D01*
X612916Y566716D01*
X612801Y566803D01*
X612688Y566893D01*
X612577Y566986D01*
X612469Y567081D01*
X612363Y567180D01*
X612260Y567281D01*
X612585Y574746D02*
X612587Y574845D01*
X612593Y574945D01*
X612602Y575044D01*
X612615Y575142D01*
X612632Y575240D01*
X612653Y575338D01*
X612678Y575434D01*
X612706Y575529D01*
X612738Y575623D01*
X612773Y575716D01*
X612812Y575808D01*
X612855Y575898D01*
X612900Y575986D01*
X612950Y576073D01*
X613002Y576157D01*
X613058Y576240D01*
X613116Y576320D01*
X613178Y576398D01*
X613243Y576473D01*
X613311Y576546D01*
X613381Y576616D01*
X613454Y576684D01*
X613529Y576749D01*
X613607Y576811D01*
X613687Y576869D01*
X613770Y576925D01*
X613854Y576977D01*
X613941Y577027D01*
X614029Y577072D01*
X614119Y577115D01*
X614211Y577154D01*
X614304Y577189D01*
X614398Y577221D01*
X614493Y577249D01*
X614590Y577274D01*
X614687Y577295D01*
X614785Y577312D01*
X614883Y577325D01*
X614982Y577334D01*
X615082Y577340D01*
X615181Y577342D01*
X615317Y577340D01*
X615453Y577334D01*
X615589Y577325D01*
X615725Y577312D01*
X615860Y577294D01*
X615994Y577274D01*
X616128Y577249D01*
X616262Y577221D01*
X616394Y577188D01*
X616525Y577153D01*
X616656Y577113D01*
X616785Y577070D01*
X616913Y577024D01*
X617039Y576973D01*
X617165Y576920D01*
X617288Y576862D01*
X617410Y576802D01*
X617530Y576738D01*
X617649Y576670D01*
X617765Y576600D01*
X617879Y576526D01*
X617992Y576449D01*
X618102Y576368D01*
X613882Y572474D02*
X613796Y572527D01*
X613712Y572584D01*
X613630Y572643D01*
X613550Y572706D01*
X613473Y572772D01*
X613398Y572840D01*
X613326Y572912D01*
X613257Y572986D01*
X613191Y573063D01*
X613128Y573142D01*
X613068Y573224D01*
X613011Y573308D01*
X612957Y573394D01*
X612907Y573482D01*
X612860Y573572D01*
X612816Y573663D01*
X612777Y573757D01*
X612740Y573851D01*
X612708Y573947D01*
X612679Y574045D01*
X612654Y574143D01*
X612633Y574242D01*
X612615Y574342D01*
X612602Y574442D01*
X612592Y574543D01*
X612586Y574645D01*
X612584Y574746D01*
X617453Y570526D02*
X617539Y570473D01*
X617623Y570416D01*
X617705Y570357D01*
X617785Y570294D01*
X617862Y570228D01*
X617937Y570160D01*
X618009Y570088D01*
X618078Y570014D01*
X618144Y569937D01*
X618207Y569858D01*
X618267Y569776D01*
X618324Y569692D01*
X618378Y569606D01*
X618428Y569518D01*
X618475Y569428D01*
X618519Y569337D01*
X618558Y569243D01*
X618595Y569149D01*
X618627Y569053D01*
X618656Y568955D01*
X618681Y568857D01*
X618702Y568758D01*
X618720Y568658D01*
X618733Y568558D01*
X618743Y568457D01*
X618749Y568355D01*
X618751Y568254D01*
X617453Y570526D02*
X613883Y572474D01*
X625792Y577342D02*
X625792Y565658D01*
X622547Y577342D02*
X629038Y577342D01*
D10*
X138430Y82550D02*
X132080Y88900D01*
X138430Y82550D02*
X138430Y69850D01*
X132080Y63500D01*
X119380Y63500D01*
X113030Y69850D01*
X113030Y82550D01*
X119380Y88900D01*
X138430Y120650D02*
X138430Y133350D01*
X138430Y120650D02*
X132080Y114300D01*
X119380Y114300D01*
X113030Y120650D01*
X132080Y114300D02*
X138430Y107950D01*
X138430Y95250D01*
X132080Y88900D01*
X119380Y88900D01*
X113030Y95250D01*
X113030Y107950D01*
X119380Y114300D01*
X138430Y158750D02*
X132080Y165100D01*
X138430Y158750D02*
X138430Y146050D01*
X132080Y139700D01*
X119380Y139700D01*
X113030Y146050D01*
X113030Y158750D01*
X119380Y165100D01*
X132080Y139700D02*
X138430Y133350D01*
X119380Y139700D02*
X113030Y133350D01*
X113030Y120650D01*
X138430Y196850D02*
X138430Y209550D01*
X138430Y196850D02*
X132080Y190500D01*
X119380Y190500D01*
X113030Y196850D01*
X132080Y190500D02*
X138430Y184150D01*
X138430Y171450D01*
X132080Y165100D01*
X119380Y165100D01*
X113030Y171450D01*
X113030Y184150D01*
X119380Y190500D01*
X138430Y234950D02*
X132080Y241300D01*
X138430Y234950D02*
X138430Y222250D01*
X132080Y215900D01*
X119380Y215900D01*
X113030Y222250D01*
X113030Y234950D01*
X119380Y241300D01*
X132080Y215900D02*
X138430Y209550D01*
X119380Y215900D02*
X113030Y209550D01*
X113030Y196850D01*
X138430Y273050D02*
X138430Y285750D01*
X138430Y273050D02*
X132080Y266700D01*
X119380Y266700D01*
X113030Y273050D01*
X132080Y266700D02*
X138430Y260350D01*
X138430Y247650D01*
X132080Y241300D01*
X119380Y241300D01*
X113030Y247650D01*
X113030Y260350D01*
X119380Y266700D01*
X119380Y292100D02*
X132080Y292100D01*
X138430Y285750D01*
X119380Y292100D02*
X113030Y285750D01*
X113030Y273050D01*
X138430Y57150D02*
X138430Y44450D01*
X132080Y38100D01*
X119380Y38100D01*
X113030Y44450D01*
X132080Y63500D02*
X138430Y57150D01*
X119380Y63500D02*
X113030Y57150D01*
X113030Y44450D01*
D15*
X152273Y36640D02*
X152273Y33465D01*
X152273Y36640D02*
X152275Y36751D01*
X152281Y36861D01*
X152290Y36972D01*
X152304Y37082D01*
X152321Y37191D01*
X152342Y37300D01*
X152367Y37408D01*
X152396Y37515D01*
X152428Y37621D01*
X152464Y37726D01*
X152504Y37829D01*
X152547Y37931D01*
X152594Y38032D01*
X152645Y38131D01*
X152698Y38227D01*
X152755Y38322D01*
X152816Y38415D01*
X152879Y38506D01*
X152946Y38595D01*
X153016Y38681D01*
X153089Y38764D01*
X153164Y38846D01*
X153242Y38924D01*
X153324Y38999D01*
X153407Y39072D01*
X153493Y39142D01*
X153582Y39209D01*
X153673Y39272D01*
X153766Y39333D01*
X153861Y39390D01*
X153957Y39443D01*
X154056Y39494D01*
X154157Y39541D01*
X154259Y39584D01*
X154362Y39624D01*
X154467Y39660D01*
X154573Y39692D01*
X154680Y39721D01*
X154788Y39746D01*
X154897Y39767D01*
X155006Y39784D01*
X155116Y39798D01*
X155227Y39807D01*
X155337Y39813D01*
X155448Y39815D01*
X155559Y39813D01*
X155669Y39807D01*
X155780Y39798D01*
X155890Y39784D01*
X155999Y39767D01*
X156108Y39746D01*
X156216Y39721D01*
X156323Y39692D01*
X156429Y39660D01*
X156534Y39624D01*
X156637Y39584D01*
X156739Y39541D01*
X156840Y39494D01*
X156939Y39443D01*
X157036Y39390D01*
X157130Y39333D01*
X157223Y39272D01*
X157314Y39209D01*
X157403Y39142D01*
X157489Y39072D01*
X157572Y38999D01*
X157654Y38924D01*
X157732Y38846D01*
X157807Y38764D01*
X157880Y38681D01*
X157950Y38595D01*
X158017Y38506D01*
X158080Y38415D01*
X158141Y38322D01*
X158198Y38228D01*
X158251Y38131D01*
X158302Y38032D01*
X158349Y37931D01*
X158392Y37829D01*
X158432Y37726D01*
X158468Y37621D01*
X158500Y37515D01*
X158529Y37408D01*
X158554Y37300D01*
X158575Y37191D01*
X158592Y37082D01*
X158606Y36972D01*
X158615Y36861D01*
X158621Y36751D01*
X158623Y36640D01*
X158623Y33465D01*
X147193Y33465D01*
X147193Y36640D01*
X147195Y36740D01*
X147201Y36839D01*
X147211Y36939D01*
X147224Y37037D01*
X147242Y37136D01*
X147263Y37233D01*
X147288Y37329D01*
X147317Y37425D01*
X147350Y37519D01*
X147386Y37612D01*
X147426Y37703D01*
X147470Y37793D01*
X147517Y37881D01*
X147567Y37967D01*
X147621Y38051D01*
X147678Y38133D01*
X147738Y38212D01*
X147802Y38290D01*
X147868Y38364D01*
X147937Y38436D01*
X148009Y38505D01*
X148083Y38571D01*
X148161Y38635D01*
X148240Y38695D01*
X148322Y38752D01*
X148406Y38806D01*
X148492Y38856D01*
X148580Y38903D01*
X148670Y38947D01*
X148761Y38987D01*
X148854Y39023D01*
X148948Y39056D01*
X149044Y39085D01*
X149140Y39110D01*
X149237Y39131D01*
X149336Y39149D01*
X149434Y39162D01*
X149534Y39172D01*
X149633Y39178D01*
X149733Y39180D01*
X149833Y39178D01*
X149932Y39172D01*
X150032Y39162D01*
X150130Y39149D01*
X150229Y39131D01*
X150326Y39110D01*
X150422Y39085D01*
X150518Y39056D01*
X150612Y39023D01*
X150705Y38987D01*
X150796Y38947D01*
X150886Y38903D01*
X150974Y38856D01*
X151060Y38806D01*
X151144Y38752D01*
X151226Y38695D01*
X151305Y38635D01*
X151383Y38571D01*
X151457Y38505D01*
X151529Y38436D01*
X151598Y38364D01*
X151664Y38290D01*
X151728Y38212D01*
X151788Y38133D01*
X151845Y38051D01*
X151899Y37967D01*
X151949Y37881D01*
X151996Y37793D01*
X152040Y37703D01*
X152080Y37612D01*
X152116Y37519D01*
X152149Y37425D01*
X152178Y37329D01*
X152203Y37233D01*
X152224Y37136D01*
X152242Y37037D01*
X152255Y36939D01*
X152265Y36839D01*
X152271Y36740D01*
X152273Y36640D01*
X150368Y44323D02*
X155448Y44323D01*
X150368Y44323D02*
X150257Y44325D01*
X150147Y44331D01*
X150036Y44340D01*
X149926Y44354D01*
X149817Y44371D01*
X149708Y44392D01*
X149600Y44417D01*
X149493Y44446D01*
X149387Y44478D01*
X149282Y44514D01*
X149179Y44554D01*
X149077Y44597D01*
X148976Y44644D01*
X148877Y44695D01*
X148781Y44748D01*
X148686Y44805D01*
X148593Y44866D01*
X148502Y44929D01*
X148413Y44996D01*
X148327Y45066D01*
X148244Y45139D01*
X148162Y45214D01*
X148084Y45292D01*
X148009Y45374D01*
X147936Y45457D01*
X147866Y45543D01*
X147799Y45632D01*
X147736Y45723D01*
X147675Y45816D01*
X147618Y45910D01*
X147565Y46007D01*
X147514Y46106D01*
X147467Y46207D01*
X147424Y46309D01*
X147384Y46412D01*
X147348Y46517D01*
X147316Y46623D01*
X147287Y46730D01*
X147262Y46838D01*
X147241Y46947D01*
X147224Y47056D01*
X147210Y47166D01*
X147201Y47277D01*
X147195Y47387D01*
X147193Y47498D01*
X147195Y47609D01*
X147201Y47719D01*
X147210Y47830D01*
X147224Y47940D01*
X147241Y48049D01*
X147262Y48158D01*
X147287Y48266D01*
X147316Y48373D01*
X147348Y48479D01*
X147384Y48584D01*
X147424Y48687D01*
X147467Y48789D01*
X147514Y48890D01*
X147565Y48989D01*
X147618Y49085D01*
X147675Y49180D01*
X147736Y49273D01*
X147799Y49364D01*
X147866Y49453D01*
X147936Y49539D01*
X148009Y49622D01*
X148084Y49704D01*
X148162Y49782D01*
X148244Y49857D01*
X148327Y49930D01*
X148413Y50000D01*
X148502Y50067D01*
X148593Y50130D01*
X148686Y50191D01*
X148781Y50248D01*
X148877Y50301D01*
X148976Y50352D01*
X149077Y50399D01*
X149179Y50442D01*
X149282Y50482D01*
X149387Y50518D01*
X149493Y50550D01*
X149600Y50579D01*
X149708Y50604D01*
X149817Y50625D01*
X149926Y50642D01*
X150036Y50656D01*
X150147Y50665D01*
X150257Y50671D01*
X150368Y50673D01*
X155448Y50673D01*
X155559Y50671D01*
X155669Y50665D01*
X155780Y50656D01*
X155890Y50642D01*
X155999Y50625D01*
X156108Y50604D01*
X156216Y50579D01*
X156323Y50550D01*
X156429Y50518D01*
X156534Y50482D01*
X156637Y50442D01*
X156739Y50399D01*
X156840Y50352D01*
X156939Y50301D01*
X157036Y50248D01*
X157130Y50191D01*
X157223Y50130D01*
X157314Y50067D01*
X157403Y50000D01*
X157489Y49930D01*
X157572Y49857D01*
X157654Y49782D01*
X157732Y49704D01*
X157807Y49622D01*
X157880Y49539D01*
X157950Y49453D01*
X158017Y49364D01*
X158080Y49273D01*
X158141Y49180D01*
X158198Y49085D01*
X158251Y48989D01*
X158302Y48890D01*
X158349Y48789D01*
X158392Y48687D01*
X158432Y48584D01*
X158468Y48479D01*
X158500Y48373D01*
X158529Y48266D01*
X158554Y48158D01*
X158575Y48049D01*
X158592Y47940D01*
X158606Y47830D01*
X158615Y47719D01*
X158621Y47609D01*
X158623Y47498D01*
X158621Y47387D01*
X158615Y47277D01*
X158606Y47166D01*
X158592Y47056D01*
X158575Y46947D01*
X158554Y46838D01*
X158529Y46730D01*
X158500Y46623D01*
X158468Y46517D01*
X158432Y46412D01*
X158392Y46309D01*
X158349Y46207D01*
X158302Y46106D01*
X158251Y46007D01*
X158198Y45910D01*
X158141Y45816D01*
X158080Y45723D01*
X158017Y45632D01*
X157950Y45543D01*
X157880Y45457D01*
X157807Y45374D01*
X157732Y45292D01*
X157654Y45214D01*
X157572Y45139D01*
X157489Y45066D01*
X157403Y44996D01*
X157314Y44929D01*
X157223Y44866D01*
X157130Y44805D01*
X157035Y44748D01*
X156939Y44695D01*
X156840Y44644D01*
X156739Y44597D01*
X156637Y44554D01*
X156534Y44514D01*
X156429Y44478D01*
X156323Y44446D01*
X156216Y44417D01*
X156108Y44392D01*
X155999Y44371D01*
X155890Y44354D01*
X155780Y44340D01*
X155669Y44331D01*
X155559Y44325D01*
X155448Y44323D01*
X158623Y58166D02*
X147193Y58166D01*
X147193Y54991D02*
X147193Y61341D01*
X147193Y68072D02*
X158623Y68072D01*
X147193Y64897D02*
X147193Y71247D01*
X150368Y75565D02*
X155448Y75565D01*
X150368Y75565D02*
X150257Y75567D01*
X150147Y75573D01*
X150036Y75582D01*
X149926Y75596D01*
X149817Y75613D01*
X149708Y75634D01*
X149600Y75659D01*
X149493Y75688D01*
X149387Y75720D01*
X149282Y75756D01*
X149179Y75796D01*
X149077Y75839D01*
X148976Y75886D01*
X148877Y75937D01*
X148781Y75990D01*
X148686Y76047D01*
X148593Y76108D01*
X148502Y76171D01*
X148413Y76238D01*
X148327Y76308D01*
X148244Y76381D01*
X148162Y76456D01*
X148084Y76534D01*
X148009Y76616D01*
X147936Y76699D01*
X147866Y76785D01*
X147799Y76874D01*
X147736Y76965D01*
X147675Y77058D01*
X147618Y77152D01*
X147565Y77249D01*
X147514Y77348D01*
X147467Y77449D01*
X147424Y77551D01*
X147384Y77654D01*
X147348Y77759D01*
X147316Y77865D01*
X147287Y77972D01*
X147262Y78080D01*
X147241Y78189D01*
X147224Y78298D01*
X147210Y78408D01*
X147201Y78519D01*
X147195Y78629D01*
X147193Y78740D01*
X147195Y78851D01*
X147201Y78961D01*
X147210Y79072D01*
X147224Y79182D01*
X147241Y79291D01*
X147262Y79400D01*
X147287Y79508D01*
X147316Y79615D01*
X147348Y79721D01*
X147384Y79826D01*
X147424Y79929D01*
X147467Y80031D01*
X147514Y80132D01*
X147565Y80231D01*
X147618Y80328D01*
X147675Y80422D01*
X147736Y80515D01*
X147799Y80606D01*
X147866Y80695D01*
X147936Y80781D01*
X148009Y80864D01*
X148084Y80946D01*
X148162Y81024D01*
X148244Y81099D01*
X148327Y81172D01*
X148413Y81242D01*
X148502Y81309D01*
X148593Y81372D01*
X148686Y81433D01*
X148781Y81490D01*
X148877Y81543D01*
X148976Y81594D01*
X149077Y81641D01*
X149179Y81684D01*
X149282Y81724D01*
X149387Y81760D01*
X149493Y81792D01*
X149600Y81821D01*
X149708Y81846D01*
X149817Y81867D01*
X149926Y81884D01*
X150036Y81898D01*
X150147Y81907D01*
X150257Y81913D01*
X150368Y81915D01*
X155448Y81915D01*
X155559Y81913D01*
X155669Y81907D01*
X155780Y81898D01*
X155890Y81884D01*
X155999Y81867D01*
X156108Y81846D01*
X156216Y81821D01*
X156323Y81792D01*
X156429Y81760D01*
X156534Y81724D01*
X156637Y81684D01*
X156739Y81641D01*
X156840Y81594D01*
X156939Y81543D01*
X157036Y81490D01*
X157130Y81433D01*
X157223Y81372D01*
X157314Y81309D01*
X157403Y81242D01*
X157489Y81172D01*
X157572Y81099D01*
X157654Y81024D01*
X157732Y80946D01*
X157807Y80864D01*
X157880Y80781D01*
X157950Y80695D01*
X158017Y80606D01*
X158080Y80515D01*
X158141Y80422D01*
X158198Y80327D01*
X158251Y80231D01*
X158302Y80132D01*
X158349Y80031D01*
X158392Y79929D01*
X158432Y79826D01*
X158468Y79721D01*
X158500Y79615D01*
X158529Y79508D01*
X158554Y79400D01*
X158575Y79291D01*
X158592Y79182D01*
X158606Y79072D01*
X158615Y78961D01*
X158621Y78851D01*
X158623Y78740D01*
X158621Y78629D01*
X158615Y78519D01*
X158606Y78408D01*
X158592Y78298D01*
X158575Y78189D01*
X158554Y78080D01*
X158529Y77972D01*
X158500Y77865D01*
X158468Y77759D01*
X158432Y77654D01*
X158392Y77551D01*
X158349Y77449D01*
X158302Y77348D01*
X158251Y77249D01*
X158198Y77152D01*
X158141Y77058D01*
X158080Y76965D01*
X158017Y76874D01*
X157950Y76785D01*
X157880Y76699D01*
X157807Y76616D01*
X157732Y76534D01*
X157654Y76456D01*
X157572Y76381D01*
X157489Y76308D01*
X157403Y76238D01*
X157314Y76171D01*
X157223Y76108D01*
X157130Y76047D01*
X157035Y75990D01*
X156939Y75937D01*
X156840Y75886D01*
X156739Y75839D01*
X156637Y75796D01*
X156534Y75756D01*
X156429Y75720D01*
X156323Y75688D01*
X156216Y75659D01*
X156108Y75634D01*
X155999Y75613D01*
X155890Y75596D01*
X155780Y75582D01*
X155669Y75573D01*
X155559Y75567D01*
X155448Y75565D01*
X158623Y87503D02*
X147193Y87503D01*
X153543Y91313D01*
X147193Y95123D01*
X158623Y95123D01*
X158623Y101117D02*
X147193Y101117D01*
X158623Y101117D02*
X158623Y106197D01*
X158623Y111023D02*
X158623Y116103D01*
X158623Y111023D02*
X147193Y111023D01*
X147193Y116103D01*
X152273Y114833D02*
X152273Y111023D01*
X147193Y120929D02*
X158623Y120929D01*
X147193Y120929D02*
X147193Y126009D01*
X152273Y126009D02*
X152273Y120929D01*
X147193Y132842D02*
X158623Y132842D01*
X147193Y129667D02*
X147193Y136017D01*
D10*
X412750Y88900D02*
X419100Y82550D01*
X419100Y69850D01*
X412750Y63500D01*
X400050Y63500D01*
X393700Y69850D01*
X393700Y82550D01*
X400050Y88900D01*
X419100Y120650D02*
X419100Y133350D01*
X419100Y120650D02*
X412750Y114300D01*
X400050Y114300D01*
X393700Y120650D01*
X412750Y114300D02*
X419100Y107950D01*
X419100Y95250D01*
X412750Y88900D01*
X400050Y88900D01*
X393700Y95250D01*
X393700Y107950D01*
X400050Y114300D01*
X419100Y158750D02*
X412750Y165100D01*
X419100Y158750D02*
X419100Y146050D01*
X412750Y139700D01*
X400050Y139700D01*
X393700Y146050D01*
X393700Y158750D01*
X400050Y165100D01*
X412750Y139700D02*
X419100Y133350D01*
X400050Y139700D02*
X393700Y133350D01*
X393700Y120650D01*
X419100Y196850D02*
X419100Y209550D01*
X419100Y196850D02*
X412750Y190500D01*
X400050Y190500D01*
X393700Y196850D01*
X412750Y190500D02*
X419100Y184150D01*
X419100Y171450D01*
X412750Y165100D01*
X400050Y165100D01*
X393700Y171450D01*
X393700Y184150D01*
X400050Y190500D01*
X419100Y234950D02*
X412750Y241300D01*
X419100Y234950D02*
X419100Y222250D01*
X412750Y215900D01*
X400050Y215900D01*
X393700Y222250D01*
X393700Y234950D01*
X400050Y241300D01*
X412750Y215900D02*
X419100Y209550D01*
X400050Y215900D02*
X393700Y209550D01*
X393700Y196850D01*
X419100Y273050D02*
X419100Y285750D01*
X419100Y273050D02*
X412750Y266700D01*
X400050Y266700D01*
X393700Y273050D01*
X412750Y266700D02*
X419100Y260350D01*
X419100Y247650D01*
X412750Y241300D01*
X400050Y241300D01*
X393700Y247650D01*
X393700Y260350D01*
X400050Y266700D01*
X400050Y292100D02*
X412750Y292100D01*
X419100Y285750D01*
X400050Y292100D02*
X393700Y285750D01*
X393700Y273050D01*
X419100Y57150D02*
X419100Y44450D01*
X412750Y38100D01*
X400050Y38100D01*
X393700Y44450D01*
X412750Y63500D02*
X419100Y57150D01*
X400050Y63500D02*
X393700Y57150D01*
X393700Y44450D01*
D15*
X430403Y176340D02*
X430403Y179515D01*
X430405Y179626D01*
X430411Y179736D01*
X430420Y179847D01*
X430434Y179957D01*
X430451Y180066D01*
X430472Y180175D01*
X430497Y180283D01*
X430526Y180390D01*
X430558Y180496D01*
X430594Y180601D01*
X430634Y180704D01*
X430677Y180806D01*
X430724Y180907D01*
X430775Y181006D01*
X430828Y181103D01*
X430885Y181197D01*
X430946Y181290D01*
X431009Y181381D01*
X431076Y181470D01*
X431146Y181556D01*
X431219Y181639D01*
X431294Y181721D01*
X431372Y181799D01*
X431454Y181874D01*
X431537Y181947D01*
X431623Y182017D01*
X431712Y182084D01*
X431803Y182147D01*
X431896Y182208D01*
X431991Y182265D01*
X432087Y182318D01*
X432186Y182369D01*
X432287Y182416D01*
X432389Y182459D01*
X432492Y182499D01*
X432597Y182535D01*
X432703Y182567D01*
X432810Y182596D01*
X432918Y182621D01*
X433027Y182642D01*
X433136Y182659D01*
X433246Y182673D01*
X433357Y182682D01*
X433467Y182688D01*
X433578Y182690D01*
X433689Y182688D01*
X433799Y182682D01*
X433910Y182673D01*
X434020Y182659D01*
X434129Y182642D01*
X434238Y182621D01*
X434346Y182596D01*
X434453Y182567D01*
X434559Y182535D01*
X434664Y182499D01*
X434767Y182459D01*
X434869Y182416D01*
X434970Y182369D01*
X435069Y182318D01*
X435166Y182265D01*
X435260Y182208D01*
X435353Y182147D01*
X435444Y182084D01*
X435533Y182017D01*
X435619Y181947D01*
X435702Y181874D01*
X435784Y181799D01*
X435862Y181721D01*
X435937Y181639D01*
X436010Y181556D01*
X436080Y181470D01*
X436147Y181381D01*
X436210Y181290D01*
X436271Y181197D01*
X436328Y181103D01*
X436381Y181006D01*
X436432Y180907D01*
X436479Y180806D01*
X436522Y180704D01*
X436562Y180601D01*
X436598Y180496D01*
X436630Y180390D01*
X436659Y180283D01*
X436684Y180175D01*
X436705Y180066D01*
X436722Y179957D01*
X436736Y179847D01*
X436745Y179736D01*
X436751Y179626D01*
X436753Y179515D01*
X436753Y176340D01*
X425323Y176340D01*
X425323Y179515D01*
X425325Y179615D01*
X425331Y179714D01*
X425341Y179814D01*
X425354Y179912D01*
X425372Y180011D01*
X425393Y180108D01*
X425418Y180204D01*
X425447Y180300D01*
X425480Y180394D01*
X425516Y180487D01*
X425556Y180578D01*
X425600Y180668D01*
X425647Y180756D01*
X425697Y180842D01*
X425751Y180926D01*
X425808Y181008D01*
X425868Y181087D01*
X425932Y181165D01*
X425998Y181239D01*
X426067Y181311D01*
X426139Y181380D01*
X426213Y181446D01*
X426291Y181510D01*
X426370Y181570D01*
X426452Y181627D01*
X426536Y181681D01*
X426622Y181731D01*
X426710Y181778D01*
X426800Y181822D01*
X426891Y181862D01*
X426984Y181898D01*
X427078Y181931D01*
X427174Y181960D01*
X427270Y181985D01*
X427367Y182006D01*
X427466Y182024D01*
X427564Y182037D01*
X427664Y182047D01*
X427763Y182053D01*
X427863Y182055D01*
X427963Y182053D01*
X428062Y182047D01*
X428162Y182037D01*
X428260Y182024D01*
X428359Y182006D01*
X428456Y181985D01*
X428552Y181960D01*
X428648Y181931D01*
X428742Y181898D01*
X428835Y181862D01*
X428926Y181822D01*
X429016Y181778D01*
X429104Y181731D01*
X429190Y181681D01*
X429274Y181627D01*
X429356Y181570D01*
X429435Y181510D01*
X429513Y181446D01*
X429587Y181380D01*
X429659Y181311D01*
X429728Y181239D01*
X429794Y181165D01*
X429858Y181087D01*
X429918Y181008D01*
X429975Y180926D01*
X430029Y180842D01*
X430079Y180756D01*
X430126Y180668D01*
X430170Y180578D01*
X430210Y180487D01*
X430246Y180394D01*
X430279Y180300D01*
X430308Y180204D01*
X430333Y180108D01*
X430354Y180011D01*
X430372Y179912D01*
X430385Y179814D01*
X430395Y179714D01*
X430401Y179615D01*
X430403Y179515D01*
X428498Y187198D02*
X433578Y187198D01*
X428498Y187198D02*
X428387Y187200D01*
X428277Y187206D01*
X428166Y187215D01*
X428056Y187229D01*
X427947Y187246D01*
X427838Y187267D01*
X427730Y187292D01*
X427623Y187321D01*
X427517Y187353D01*
X427412Y187389D01*
X427309Y187429D01*
X427207Y187472D01*
X427106Y187519D01*
X427007Y187570D01*
X426911Y187623D01*
X426816Y187680D01*
X426723Y187741D01*
X426632Y187804D01*
X426543Y187871D01*
X426457Y187941D01*
X426374Y188014D01*
X426292Y188089D01*
X426214Y188167D01*
X426139Y188249D01*
X426066Y188332D01*
X425996Y188418D01*
X425929Y188507D01*
X425866Y188598D01*
X425805Y188691D01*
X425748Y188786D01*
X425695Y188882D01*
X425644Y188981D01*
X425597Y189082D01*
X425554Y189184D01*
X425514Y189287D01*
X425478Y189392D01*
X425446Y189498D01*
X425417Y189605D01*
X425392Y189713D01*
X425371Y189822D01*
X425354Y189931D01*
X425340Y190041D01*
X425331Y190152D01*
X425325Y190262D01*
X425323Y190373D01*
X425325Y190484D01*
X425331Y190594D01*
X425340Y190705D01*
X425354Y190815D01*
X425371Y190924D01*
X425392Y191033D01*
X425417Y191141D01*
X425446Y191248D01*
X425478Y191354D01*
X425514Y191459D01*
X425554Y191562D01*
X425597Y191664D01*
X425644Y191765D01*
X425695Y191864D01*
X425748Y191961D01*
X425805Y192055D01*
X425866Y192148D01*
X425929Y192239D01*
X425996Y192328D01*
X426066Y192414D01*
X426139Y192497D01*
X426214Y192579D01*
X426292Y192657D01*
X426374Y192732D01*
X426457Y192805D01*
X426543Y192875D01*
X426632Y192942D01*
X426723Y193005D01*
X426816Y193066D01*
X426911Y193123D01*
X427007Y193176D01*
X427106Y193227D01*
X427207Y193274D01*
X427309Y193317D01*
X427412Y193357D01*
X427517Y193393D01*
X427623Y193425D01*
X427730Y193454D01*
X427838Y193479D01*
X427947Y193500D01*
X428056Y193517D01*
X428166Y193531D01*
X428277Y193540D01*
X428387Y193546D01*
X428498Y193548D01*
X433578Y193548D01*
X433689Y193546D01*
X433799Y193540D01*
X433910Y193531D01*
X434020Y193517D01*
X434129Y193500D01*
X434238Y193479D01*
X434346Y193454D01*
X434453Y193425D01*
X434559Y193393D01*
X434664Y193357D01*
X434767Y193317D01*
X434869Y193274D01*
X434970Y193227D01*
X435069Y193176D01*
X435166Y193123D01*
X435260Y193066D01*
X435353Y193005D01*
X435444Y192942D01*
X435533Y192875D01*
X435619Y192805D01*
X435702Y192732D01*
X435784Y192657D01*
X435862Y192579D01*
X435937Y192497D01*
X436010Y192414D01*
X436080Y192328D01*
X436147Y192239D01*
X436210Y192148D01*
X436271Y192055D01*
X436328Y191960D01*
X436381Y191864D01*
X436432Y191765D01*
X436479Y191664D01*
X436522Y191562D01*
X436562Y191459D01*
X436598Y191354D01*
X436630Y191248D01*
X436659Y191141D01*
X436684Y191033D01*
X436705Y190924D01*
X436722Y190815D01*
X436736Y190705D01*
X436745Y190594D01*
X436751Y190484D01*
X436753Y190373D01*
X436751Y190262D01*
X436745Y190152D01*
X436736Y190041D01*
X436722Y189931D01*
X436705Y189822D01*
X436684Y189713D01*
X436659Y189605D01*
X436630Y189498D01*
X436598Y189392D01*
X436562Y189287D01*
X436522Y189184D01*
X436479Y189082D01*
X436432Y188981D01*
X436381Y188882D01*
X436328Y188785D01*
X436271Y188691D01*
X436210Y188598D01*
X436147Y188507D01*
X436080Y188418D01*
X436010Y188332D01*
X435937Y188249D01*
X435862Y188167D01*
X435784Y188089D01*
X435702Y188014D01*
X435619Y187941D01*
X435533Y187871D01*
X435444Y187804D01*
X435353Y187741D01*
X435260Y187680D01*
X435166Y187623D01*
X435069Y187570D01*
X434970Y187519D01*
X434869Y187472D01*
X434767Y187429D01*
X434664Y187389D01*
X434559Y187353D01*
X434453Y187321D01*
X434346Y187292D01*
X434238Y187267D01*
X434129Y187246D01*
X434020Y187229D01*
X433910Y187215D01*
X433799Y187206D01*
X433689Y187200D01*
X433578Y187198D01*
X436753Y201041D02*
X425323Y201041D01*
X425323Y197866D02*
X425323Y204216D01*
X425323Y210947D02*
X436753Y210947D01*
X425323Y207772D02*
X425323Y214122D01*
X428498Y218440D02*
X433578Y218440D01*
X428498Y218440D02*
X428387Y218442D01*
X428277Y218448D01*
X428166Y218457D01*
X428056Y218471D01*
X427947Y218488D01*
X427838Y218509D01*
X427730Y218534D01*
X427623Y218563D01*
X427517Y218595D01*
X427412Y218631D01*
X427309Y218671D01*
X427207Y218714D01*
X427106Y218761D01*
X427007Y218812D01*
X426911Y218865D01*
X426816Y218922D01*
X426723Y218983D01*
X426632Y219046D01*
X426543Y219113D01*
X426457Y219183D01*
X426374Y219256D01*
X426292Y219331D01*
X426214Y219409D01*
X426139Y219491D01*
X426066Y219574D01*
X425996Y219660D01*
X425929Y219749D01*
X425866Y219840D01*
X425805Y219933D01*
X425748Y220028D01*
X425695Y220124D01*
X425644Y220223D01*
X425597Y220324D01*
X425554Y220426D01*
X425514Y220529D01*
X425478Y220634D01*
X425446Y220740D01*
X425417Y220847D01*
X425392Y220955D01*
X425371Y221064D01*
X425354Y221173D01*
X425340Y221283D01*
X425331Y221394D01*
X425325Y221504D01*
X425323Y221615D01*
X425325Y221726D01*
X425331Y221836D01*
X425340Y221947D01*
X425354Y222057D01*
X425371Y222166D01*
X425392Y222275D01*
X425417Y222383D01*
X425446Y222490D01*
X425478Y222596D01*
X425514Y222701D01*
X425554Y222804D01*
X425597Y222906D01*
X425644Y223007D01*
X425695Y223106D01*
X425748Y223203D01*
X425805Y223297D01*
X425866Y223390D01*
X425929Y223481D01*
X425996Y223570D01*
X426066Y223656D01*
X426139Y223739D01*
X426214Y223821D01*
X426292Y223899D01*
X426374Y223974D01*
X426457Y224047D01*
X426543Y224117D01*
X426632Y224184D01*
X426723Y224247D01*
X426816Y224308D01*
X426911Y224365D01*
X427007Y224418D01*
X427106Y224469D01*
X427207Y224516D01*
X427309Y224559D01*
X427412Y224599D01*
X427517Y224635D01*
X427623Y224667D01*
X427730Y224696D01*
X427838Y224721D01*
X427947Y224742D01*
X428056Y224759D01*
X428166Y224773D01*
X428277Y224782D01*
X428387Y224788D01*
X428498Y224790D01*
X433578Y224790D01*
X433689Y224788D01*
X433799Y224782D01*
X433910Y224773D01*
X434020Y224759D01*
X434129Y224742D01*
X434238Y224721D01*
X434346Y224696D01*
X434453Y224667D01*
X434559Y224635D01*
X434664Y224599D01*
X434767Y224559D01*
X434869Y224516D01*
X434970Y224469D01*
X435069Y224418D01*
X435166Y224365D01*
X435260Y224308D01*
X435353Y224247D01*
X435444Y224184D01*
X435533Y224117D01*
X435619Y224047D01*
X435702Y223974D01*
X435784Y223899D01*
X435862Y223821D01*
X435937Y223739D01*
X436010Y223656D01*
X436080Y223570D01*
X436147Y223481D01*
X436210Y223390D01*
X436271Y223297D01*
X436328Y223202D01*
X436381Y223106D01*
X436432Y223007D01*
X436479Y222906D01*
X436522Y222804D01*
X436562Y222701D01*
X436598Y222596D01*
X436630Y222490D01*
X436659Y222383D01*
X436684Y222275D01*
X436705Y222166D01*
X436722Y222057D01*
X436736Y221947D01*
X436745Y221836D01*
X436751Y221726D01*
X436753Y221615D01*
X436751Y221504D01*
X436745Y221394D01*
X436736Y221283D01*
X436722Y221173D01*
X436705Y221064D01*
X436684Y220955D01*
X436659Y220847D01*
X436630Y220740D01*
X436598Y220634D01*
X436562Y220529D01*
X436522Y220426D01*
X436479Y220324D01*
X436432Y220223D01*
X436381Y220124D01*
X436328Y220027D01*
X436271Y219933D01*
X436210Y219840D01*
X436147Y219749D01*
X436080Y219660D01*
X436010Y219574D01*
X435937Y219491D01*
X435862Y219409D01*
X435784Y219331D01*
X435702Y219256D01*
X435619Y219183D01*
X435533Y219113D01*
X435444Y219046D01*
X435353Y218983D01*
X435260Y218922D01*
X435166Y218865D01*
X435069Y218812D01*
X434970Y218761D01*
X434869Y218714D01*
X434767Y218671D01*
X434664Y218631D01*
X434559Y218595D01*
X434453Y218563D01*
X434346Y218534D01*
X434238Y218509D01*
X434129Y218488D01*
X434020Y218471D01*
X433910Y218457D01*
X433799Y218448D01*
X433689Y218442D01*
X433578Y218440D01*
X436753Y230378D02*
X425323Y230378D01*
X431673Y234188D01*
X425323Y237998D01*
X436753Y237998D01*
X436753Y244050D02*
X425323Y244050D01*
X425323Y247225D01*
X425325Y247336D01*
X425331Y247446D01*
X425340Y247557D01*
X425354Y247667D01*
X425371Y247776D01*
X425392Y247885D01*
X425417Y247993D01*
X425446Y248100D01*
X425478Y248206D01*
X425514Y248311D01*
X425554Y248414D01*
X425597Y248516D01*
X425644Y248617D01*
X425695Y248716D01*
X425748Y248813D01*
X425805Y248907D01*
X425866Y249000D01*
X425929Y249091D01*
X425996Y249180D01*
X426066Y249266D01*
X426139Y249349D01*
X426214Y249431D01*
X426292Y249509D01*
X426374Y249584D01*
X426457Y249657D01*
X426543Y249727D01*
X426632Y249794D01*
X426723Y249857D01*
X426816Y249918D01*
X426911Y249975D01*
X427007Y250028D01*
X427106Y250079D01*
X427207Y250126D01*
X427309Y250169D01*
X427412Y250209D01*
X427517Y250245D01*
X427623Y250277D01*
X427730Y250306D01*
X427838Y250331D01*
X427947Y250352D01*
X428056Y250369D01*
X428166Y250383D01*
X428277Y250392D01*
X428387Y250398D01*
X428498Y250400D01*
X428609Y250398D01*
X428719Y250392D01*
X428830Y250383D01*
X428940Y250369D01*
X429049Y250352D01*
X429158Y250331D01*
X429266Y250306D01*
X429373Y250277D01*
X429479Y250245D01*
X429584Y250209D01*
X429687Y250169D01*
X429789Y250126D01*
X429890Y250079D01*
X429989Y250028D01*
X430086Y249975D01*
X430180Y249918D01*
X430273Y249857D01*
X430364Y249794D01*
X430453Y249727D01*
X430539Y249657D01*
X430622Y249584D01*
X430704Y249509D01*
X430782Y249431D01*
X430857Y249349D01*
X430930Y249266D01*
X431000Y249180D01*
X431067Y249091D01*
X431130Y249000D01*
X431191Y248907D01*
X431248Y248813D01*
X431301Y248716D01*
X431352Y248617D01*
X431399Y248516D01*
X431442Y248414D01*
X431482Y248311D01*
X431518Y248206D01*
X431550Y248100D01*
X431579Y247993D01*
X431604Y247885D01*
X431625Y247776D01*
X431642Y247667D01*
X431656Y247557D01*
X431665Y247446D01*
X431671Y247336D01*
X431673Y247225D01*
X431673Y244050D01*
X431673Y247860D02*
X436753Y250400D01*
X436753Y256286D02*
X425323Y256286D01*
X436753Y255016D02*
X436753Y257556D01*
X425323Y257556D02*
X425323Y255016D01*
X430403Y267081D02*
X430403Y268986D01*
X436753Y268986D01*
X436753Y265176D01*
X436751Y265076D01*
X436745Y264977D01*
X436735Y264877D01*
X436722Y264779D01*
X436704Y264680D01*
X436683Y264583D01*
X436658Y264487D01*
X436629Y264391D01*
X436596Y264297D01*
X436560Y264204D01*
X436520Y264113D01*
X436476Y264023D01*
X436429Y263935D01*
X436379Y263849D01*
X436325Y263765D01*
X436268Y263683D01*
X436208Y263604D01*
X436144Y263526D01*
X436078Y263452D01*
X436009Y263380D01*
X435937Y263311D01*
X435863Y263245D01*
X435785Y263181D01*
X435706Y263121D01*
X435624Y263064D01*
X435540Y263010D01*
X435454Y262960D01*
X435366Y262913D01*
X435276Y262869D01*
X435185Y262829D01*
X435092Y262793D01*
X434998Y262760D01*
X434902Y262731D01*
X434806Y262706D01*
X434709Y262685D01*
X434610Y262667D01*
X434512Y262654D01*
X434412Y262644D01*
X434313Y262638D01*
X434213Y262636D01*
X427863Y262636D01*
X427763Y262638D01*
X427664Y262644D01*
X427564Y262654D01*
X427466Y262667D01*
X427367Y262685D01*
X427270Y262706D01*
X427174Y262731D01*
X427078Y262760D01*
X426984Y262793D01*
X426891Y262829D01*
X426800Y262869D01*
X426710Y262913D01*
X426622Y262960D01*
X426536Y263010D01*
X426452Y263064D01*
X426370Y263121D01*
X426291Y263181D01*
X426213Y263245D01*
X426139Y263311D01*
X426067Y263380D01*
X425998Y263452D01*
X425932Y263526D01*
X425868Y263604D01*
X425808Y263683D01*
X425751Y263765D01*
X425697Y263849D01*
X425647Y263935D01*
X425600Y264023D01*
X425556Y264113D01*
X425516Y264204D01*
X425480Y264297D01*
X425447Y264391D01*
X425418Y264487D01*
X425393Y264583D01*
X425372Y264680D01*
X425354Y264779D01*
X425341Y264877D01*
X425331Y264977D01*
X425325Y265076D01*
X425323Y265176D01*
X425323Y268986D01*
X425323Y274828D02*
X436753Y274828D01*
X430403Y274828D02*
X430403Y281178D01*
X425323Y281178D02*
X436753Y281178D01*
X436753Y289052D02*
X425323Y289052D01*
X425323Y285877D02*
X425323Y292227D01*
D10*
X495300Y406400D02*
X495300Y431800D01*
X495300Y406400D02*
X518160Y406400D01*
X520700Y408940D01*
X523240Y406400D01*
X543560Y406400D01*
X546100Y408940D01*
X548640Y406400D01*
X568960Y406400D01*
X571500Y408940D01*
X574040Y406400D01*
X594360Y406400D01*
X596900Y408940D01*
X599440Y406400D01*
X596900Y429260D02*
X599440Y431800D01*
X596900Y429260D02*
X594360Y431800D01*
X574040Y431800D01*
X571500Y429260D01*
X568960Y431800D01*
X548640Y431800D01*
X546100Y429260D01*
X543560Y431800D01*
X523240Y431800D01*
X520700Y429260D01*
X518160Y431800D01*
X495300Y431800D01*
X599440Y406400D02*
X619760Y406400D01*
X622300Y408940D01*
X624840Y406400D01*
X645160Y406400D01*
X647700Y408940D01*
X650240Y406400D01*
X647700Y429260D02*
X650240Y431800D01*
X647700Y429260D02*
X645160Y431800D01*
X624840Y431800D01*
X622300Y429260D01*
X619760Y431800D01*
X599440Y431800D01*
X675640Y431800D02*
X698500Y431800D01*
X698500Y406400D01*
X675640Y406400D01*
X673100Y429260D02*
X670560Y431800D01*
X673100Y429260D02*
X675640Y431800D01*
X670560Y431800D02*
X650240Y431800D01*
X673100Y408940D02*
X675640Y406400D01*
X673100Y408940D02*
X670560Y406400D01*
X650240Y406400D01*
D15*
X506730Y446405D02*
X503555Y443865D01*
X506730Y446405D02*
X506730Y434975D01*
X503555Y434975D02*
X509905Y434975D01*
X681355Y438150D02*
X681357Y438261D01*
X681363Y438371D01*
X681372Y438482D01*
X681386Y438592D01*
X681403Y438701D01*
X681424Y438810D01*
X681449Y438918D01*
X681478Y439025D01*
X681510Y439131D01*
X681546Y439236D01*
X681586Y439339D01*
X681629Y439441D01*
X681676Y439542D01*
X681727Y439641D01*
X681780Y439738D01*
X681837Y439832D01*
X681898Y439925D01*
X681961Y440016D01*
X682028Y440105D01*
X682098Y440191D01*
X682171Y440274D01*
X682246Y440356D01*
X682324Y440434D01*
X682406Y440509D01*
X682489Y440582D01*
X682575Y440652D01*
X682664Y440719D01*
X682755Y440782D01*
X682848Y440843D01*
X682943Y440900D01*
X683039Y440953D01*
X683138Y441004D01*
X683239Y441051D01*
X683341Y441094D01*
X683444Y441134D01*
X683549Y441170D01*
X683655Y441202D01*
X683762Y441231D01*
X683870Y441256D01*
X683979Y441277D01*
X684088Y441294D01*
X684198Y441308D01*
X684309Y441317D01*
X684419Y441323D01*
X684530Y441325D01*
X684641Y441323D01*
X684751Y441317D01*
X684862Y441308D01*
X684972Y441294D01*
X685081Y441277D01*
X685190Y441256D01*
X685298Y441231D01*
X685405Y441202D01*
X685511Y441170D01*
X685616Y441134D01*
X685719Y441094D01*
X685821Y441051D01*
X685922Y441004D01*
X686021Y440953D01*
X686118Y440900D01*
X686212Y440843D01*
X686305Y440782D01*
X686396Y440719D01*
X686485Y440652D01*
X686571Y440582D01*
X686654Y440509D01*
X686736Y440434D01*
X686814Y440356D01*
X686889Y440274D01*
X686962Y440191D01*
X687032Y440105D01*
X687099Y440016D01*
X687162Y439925D01*
X687223Y439832D01*
X687280Y439738D01*
X687333Y439641D01*
X687384Y439542D01*
X687431Y439441D01*
X687474Y439339D01*
X687514Y439236D01*
X687550Y439131D01*
X687582Y439025D01*
X687611Y438918D01*
X687636Y438810D01*
X687657Y438701D01*
X687674Y438592D01*
X687688Y438482D01*
X687697Y438371D01*
X687703Y438261D01*
X687705Y438150D01*
X687703Y438039D01*
X687697Y437929D01*
X687688Y437818D01*
X687674Y437708D01*
X687657Y437599D01*
X687636Y437490D01*
X687611Y437382D01*
X687582Y437275D01*
X687550Y437169D01*
X687514Y437064D01*
X687474Y436961D01*
X687431Y436859D01*
X687384Y436758D01*
X687333Y436659D01*
X687280Y436562D01*
X687223Y436468D01*
X687162Y436375D01*
X687099Y436284D01*
X687032Y436195D01*
X686962Y436109D01*
X686889Y436026D01*
X686814Y435944D01*
X686736Y435866D01*
X686654Y435791D01*
X686571Y435718D01*
X686485Y435648D01*
X686396Y435581D01*
X686305Y435518D01*
X686212Y435457D01*
X686118Y435400D01*
X686021Y435347D01*
X685922Y435296D01*
X685821Y435249D01*
X685719Y435206D01*
X685616Y435166D01*
X685511Y435130D01*
X685405Y435098D01*
X685298Y435069D01*
X685190Y435044D01*
X685081Y435023D01*
X684972Y435006D01*
X684862Y434992D01*
X684751Y434983D01*
X684641Y434977D01*
X684530Y434975D01*
X684419Y434977D01*
X684309Y434983D01*
X684198Y434992D01*
X684088Y435006D01*
X683979Y435023D01*
X683870Y435044D01*
X683762Y435069D01*
X683655Y435098D01*
X683549Y435130D01*
X683444Y435166D01*
X683341Y435206D01*
X683239Y435249D01*
X683138Y435296D01*
X683039Y435347D01*
X682943Y435400D01*
X682848Y435457D01*
X682755Y435518D01*
X682664Y435581D01*
X682575Y435648D01*
X682489Y435718D01*
X682406Y435791D01*
X682324Y435866D01*
X682246Y435944D01*
X682171Y436026D01*
X682098Y436109D01*
X682028Y436195D01*
X681961Y436284D01*
X681898Y436375D01*
X681837Y436468D01*
X681780Y436563D01*
X681727Y436659D01*
X681676Y436758D01*
X681629Y436859D01*
X681586Y436961D01*
X681546Y437064D01*
X681510Y437169D01*
X681478Y437275D01*
X681449Y437382D01*
X681424Y437490D01*
X681403Y437599D01*
X681386Y437708D01*
X681372Y437818D01*
X681363Y437929D01*
X681357Y438039D01*
X681355Y438150D01*
X681990Y443865D02*
X681992Y443965D01*
X681998Y444064D01*
X682008Y444164D01*
X682021Y444262D01*
X682039Y444361D01*
X682060Y444458D01*
X682085Y444554D01*
X682114Y444650D01*
X682147Y444744D01*
X682183Y444837D01*
X682223Y444928D01*
X682267Y445018D01*
X682314Y445106D01*
X682364Y445192D01*
X682418Y445276D01*
X682475Y445358D01*
X682535Y445437D01*
X682599Y445515D01*
X682665Y445589D01*
X682734Y445661D01*
X682806Y445730D01*
X682880Y445796D01*
X682958Y445860D01*
X683037Y445920D01*
X683119Y445977D01*
X683203Y446031D01*
X683289Y446081D01*
X683377Y446128D01*
X683467Y446172D01*
X683558Y446212D01*
X683651Y446248D01*
X683745Y446281D01*
X683841Y446310D01*
X683937Y446335D01*
X684034Y446356D01*
X684133Y446374D01*
X684231Y446387D01*
X684331Y446397D01*
X684430Y446403D01*
X684530Y446405D01*
X684630Y446403D01*
X684729Y446397D01*
X684829Y446387D01*
X684927Y446374D01*
X685026Y446356D01*
X685123Y446335D01*
X685219Y446310D01*
X685315Y446281D01*
X685409Y446248D01*
X685502Y446212D01*
X685593Y446172D01*
X685683Y446128D01*
X685771Y446081D01*
X685857Y446031D01*
X685941Y445977D01*
X686023Y445920D01*
X686102Y445860D01*
X686180Y445796D01*
X686254Y445730D01*
X686326Y445661D01*
X686395Y445589D01*
X686461Y445515D01*
X686525Y445437D01*
X686585Y445358D01*
X686642Y445276D01*
X686696Y445192D01*
X686746Y445106D01*
X686793Y445018D01*
X686837Y444928D01*
X686877Y444837D01*
X686913Y444744D01*
X686946Y444650D01*
X686975Y444554D01*
X687000Y444458D01*
X687021Y444361D01*
X687039Y444262D01*
X687052Y444164D01*
X687062Y444064D01*
X687068Y443965D01*
X687070Y443865D01*
X687068Y443765D01*
X687062Y443666D01*
X687052Y443566D01*
X687039Y443468D01*
X687021Y443369D01*
X687000Y443272D01*
X686975Y443176D01*
X686946Y443080D01*
X686913Y442986D01*
X686877Y442893D01*
X686837Y442802D01*
X686793Y442712D01*
X686746Y442624D01*
X686696Y442538D01*
X686642Y442454D01*
X686585Y442372D01*
X686525Y442293D01*
X686461Y442215D01*
X686395Y442141D01*
X686326Y442069D01*
X686254Y442000D01*
X686180Y441934D01*
X686102Y441870D01*
X686023Y441810D01*
X685941Y441753D01*
X685857Y441699D01*
X685771Y441649D01*
X685683Y441602D01*
X685593Y441558D01*
X685502Y441518D01*
X685409Y441482D01*
X685315Y441449D01*
X685219Y441420D01*
X685123Y441395D01*
X685026Y441374D01*
X684927Y441356D01*
X684829Y441343D01*
X684729Y441333D01*
X684630Y441327D01*
X684530Y441325D01*
X684430Y441327D01*
X684331Y441333D01*
X684231Y441343D01*
X684133Y441356D01*
X684034Y441374D01*
X683937Y441395D01*
X683841Y441420D01*
X683745Y441449D01*
X683651Y441482D01*
X683558Y441518D01*
X683467Y441558D01*
X683377Y441602D01*
X683289Y441649D01*
X683203Y441699D01*
X683119Y441753D01*
X683037Y441810D01*
X682958Y441870D01*
X682880Y441934D01*
X682806Y442000D01*
X682734Y442069D01*
X682665Y442141D01*
X682599Y442215D01*
X682535Y442293D01*
X682475Y442372D01*
X682418Y442454D01*
X682364Y442538D01*
X682314Y442624D01*
X682267Y442712D01*
X682223Y442802D01*
X682183Y442893D01*
X682147Y442986D01*
X682114Y443080D01*
X682085Y443176D01*
X682060Y443272D01*
X682039Y443369D01*
X682021Y443468D01*
X682008Y443566D01*
X681998Y443666D01*
X681992Y443765D01*
X681990Y443865D01*
X535305Y447675D02*
X535305Y436245D01*
X534035Y436245D02*
X536575Y436245D01*
X536575Y447675D02*
X534035Y447675D01*
X541782Y447675D02*
X541782Y436245D01*
X545592Y441325D02*
X541782Y447675D01*
X545592Y441325D02*
X549402Y447675D01*
X549402Y436245D01*
X555371Y439420D02*
X555371Y447675D01*
X555371Y439420D02*
X555373Y439309D01*
X555379Y439199D01*
X555388Y439088D01*
X555402Y438978D01*
X555419Y438869D01*
X555440Y438760D01*
X555465Y438652D01*
X555494Y438545D01*
X555526Y438439D01*
X555562Y438334D01*
X555602Y438231D01*
X555645Y438129D01*
X555692Y438028D01*
X555743Y437929D01*
X555796Y437833D01*
X555853Y437738D01*
X555914Y437645D01*
X555977Y437554D01*
X556044Y437465D01*
X556114Y437379D01*
X556187Y437296D01*
X556262Y437214D01*
X556340Y437136D01*
X556422Y437061D01*
X556505Y436988D01*
X556591Y436918D01*
X556680Y436851D01*
X556771Y436788D01*
X556864Y436727D01*
X556959Y436670D01*
X557055Y436617D01*
X557154Y436566D01*
X557255Y436519D01*
X557357Y436476D01*
X557460Y436436D01*
X557565Y436400D01*
X557671Y436368D01*
X557778Y436339D01*
X557886Y436314D01*
X557995Y436293D01*
X558104Y436276D01*
X558214Y436262D01*
X558325Y436253D01*
X558435Y436247D01*
X558546Y436245D01*
X558657Y436247D01*
X558767Y436253D01*
X558878Y436262D01*
X558988Y436276D01*
X559097Y436293D01*
X559206Y436314D01*
X559314Y436339D01*
X559421Y436368D01*
X559527Y436400D01*
X559632Y436436D01*
X559735Y436476D01*
X559837Y436519D01*
X559938Y436566D01*
X560037Y436617D01*
X560134Y436670D01*
X560228Y436727D01*
X560321Y436788D01*
X560412Y436851D01*
X560501Y436918D01*
X560587Y436988D01*
X560670Y437061D01*
X560752Y437136D01*
X560830Y437214D01*
X560905Y437296D01*
X560978Y437379D01*
X561048Y437465D01*
X561115Y437554D01*
X561178Y437645D01*
X561239Y437738D01*
X561296Y437832D01*
X561349Y437929D01*
X561400Y438028D01*
X561447Y438129D01*
X561490Y438231D01*
X561530Y438334D01*
X561566Y438439D01*
X561598Y438545D01*
X561627Y438652D01*
X561652Y438760D01*
X561673Y438869D01*
X561690Y438978D01*
X561704Y439088D01*
X561713Y439199D01*
X561719Y439309D01*
X561721Y439420D01*
X561721Y447675D01*
D10*
X419100Y336550D02*
X419100Y323850D01*
X412750Y317500D01*
X400050Y317500D01*
X393700Y323850D01*
X419100Y361950D02*
X412750Y368300D01*
X419100Y361950D02*
X419100Y349250D01*
X412750Y342900D01*
X400050Y342900D01*
X393700Y349250D01*
X393700Y361950D01*
X400050Y368300D01*
X412750Y342900D02*
X419100Y336550D01*
X400050Y342900D02*
X393700Y336550D01*
X393700Y323850D01*
X419100Y400050D02*
X419100Y412750D01*
X419100Y400050D02*
X412750Y393700D01*
X400050Y393700D01*
X393700Y400050D01*
X412750Y393700D02*
X419100Y387350D01*
X419100Y374650D01*
X412750Y368300D01*
X400050Y368300D01*
X393700Y374650D01*
X393700Y387350D01*
X400050Y393700D01*
X400050Y419100D02*
X412750Y419100D01*
X419100Y412750D01*
X400050Y419100D02*
X393700Y412750D01*
X393700Y400050D01*
X419100Y311150D02*
X419100Y298450D01*
X412750Y292100D01*
X400050Y292100D01*
X393700Y298450D01*
X412750Y317500D02*
X419100Y311150D01*
X400050Y317500D02*
X393700Y311150D01*
X393700Y298450D01*
D15*
X425323Y329140D02*
X436753Y329140D01*
X425323Y329140D02*
X425323Y332315D01*
X425325Y332426D01*
X425331Y332536D01*
X425340Y332647D01*
X425354Y332757D01*
X425371Y332866D01*
X425392Y332975D01*
X425417Y333083D01*
X425446Y333190D01*
X425478Y333296D01*
X425514Y333401D01*
X425554Y333504D01*
X425597Y333606D01*
X425644Y333707D01*
X425695Y333806D01*
X425748Y333903D01*
X425805Y333997D01*
X425866Y334090D01*
X425929Y334181D01*
X425996Y334270D01*
X426066Y334356D01*
X426139Y334439D01*
X426214Y334521D01*
X426292Y334599D01*
X426374Y334674D01*
X426457Y334747D01*
X426543Y334817D01*
X426632Y334884D01*
X426723Y334947D01*
X426816Y335008D01*
X426911Y335065D01*
X427007Y335118D01*
X427106Y335169D01*
X427207Y335216D01*
X427309Y335259D01*
X427412Y335299D01*
X427517Y335335D01*
X427623Y335367D01*
X427730Y335396D01*
X427838Y335421D01*
X427947Y335442D01*
X428056Y335459D01*
X428166Y335473D01*
X428277Y335482D01*
X428387Y335488D01*
X428498Y335490D01*
X428609Y335488D01*
X428719Y335482D01*
X428830Y335473D01*
X428940Y335459D01*
X429049Y335442D01*
X429158Y335421D01*
X429266Y335396D01*
X429373Y335367D01*
X429479Y335335D01*
X429584Y335299D01*
X429687Y335259D01*
X429789Y335216D01*
X429890Y335169D01*
X429989Y335118D01*
X430086Y335065D01*
X430180Y335008D01*
X430273Y334947D01*
X430364Y334884D01*
X430453Y334817D01*
X430539Y334747D01*
X430622Y334674D01*
X430704Y334599D01*
X430782Y334521D01*
X430857Y334439D01*
X430930Y334356D01*
X431000Y334270D01*
X431067Y334181D01*
X431130Y334090D01*
X431191Y333997D01*
X431248Y333903D01*
X431301Y333806D01*
X431352Y333707D01*
X431399Y333606D01*
X431442Y333504D01*
X431482Y333401D01*
X431518Y333296D01*
X431550Y333190D01*
X431579Y333083D01*
X431604Y332975D01*
X431625Y332866D01*
X431642Y332757D01*
X431656Y332647D01*
X431665Y332536D01*
X431671Y332426D01*
X431673Y332315D01*
X431673Y329140D01*
X431673Y332950D02*
X436753Y335490D01*
X436753Y343916D02*
X436751Y344016D01*
X436745Y344115D01*
X436735Y344215D01*
X436722Y344313D01*
X436704Y344412D01*
X436683Y344509D01*
X436658Y344605D01*
X436629Y344701D01*
X436596Y344795D01*
X436560Y344888D01*
X436520Y344979D01*
X436476Y345069D01*
X436429Y345157D01*
X436379Y345243D01*
X436325Y345327D01*
X436268Y345409D01*
X436208Y345488D01*
X436144Y345566D01*
X436078Y345640D01*
X436009Y345712D01*
X435937Y345781D01*
X435863Y345847D01*
X435785Y345911D01*
X435706Y345971D01*
X435624Y346028D01*
X435540Y346082D01*
X435454Y346132D01*
X435366Y346179D01*
X435276Y346223D01*
X435185Y346263D01*
X435092Y346299D01*
X434998Y346332D01*
X434902Y346361D01*
X434806Y346386D01*
X434709Y346407D01*
X434610Y346425D01*
X434512Y346438D01*
X434412Y346448D01*
X434313Y346454D01*
X434213Y346456D01*
X436753Y343916D02*
X436751Y343775D01*
X436746Y343634D01*
X436736Y343493D01*
X436723Y343352D01*
X436707Y343212D01*
X436686Y343072D01*
X436662Y342933D01*
X436634Y342794D01*
X436603Y342657D01*
X436568Y342520D01*
X436530Y342384D01*
X436488Y342249D01*
X436442Y342116D01*
X436393Y341983D01*
X436340Y341852D01*
X436284Y341723D01*
X436225Y341594D01*
X436162Y341468D01*
X436096Y341343D01*
X436027Y341220D01*
X435954Y341099D01*
X435878Y340980D01*
X435799Y340862D01*
X435718Y340747D01*
X435633Y340635D01*
X435545Y340524D01*
X435454Y340416D01*
X435361Y340310D01*
X435264Y340207D01*
X435165Y340106D01*
X427863Y340424D02*
X427763Y340426D01*
X427664Y340432D01*
X427564Y340442D01*
X427466Y340455D01*
X427367Y340473D01*
X427270Y340494D01*
X427174Y340519D01*
X427078Y340548D01*
X426984Y340581D01*
X426891Y340617D01*
X426800Y340657D01*
X426710Y340701D01*
X426622Y340748D01*
X426536Y340798D01*
X426452Y340852D01*
X426370Y340909D01*
X426291Y340969D01*
X426213Y341033D01*
X426139Y341099D01*
X426067Y341168D01*
X425998Y341240D01*
X425932Y341314D01*
X425868Y341392D01*
X425808Y341471D01*
X425751Y341553D01*
X425697Y341637D01*
X425647Y341723D01*
X425600Y341811D01*
X425556Y341901D01*
X425516Y341992D01*
X425480Y342085D01*
X425447Y342179D01*
X425418Y342275D01*
X425393Y342371D01*
X425372Y342468D01*
X425354Y342567D01*
X425341Y342665D01*
X425331Y342765D01*
X425325Y342864D01*
X425323Y342964D01*
X425325Y343097D01*
X425330Y343230D01*
X425340Y343363D01*
X425353Y343496D01*
X425370Y343628D01*
X425390Y343760D01*
X425414Y343891D01*
X425442Y344021D01*
X425473Y344151D01*
X425508Y344279D01*
X425547Y344407D01*
X425589Y344533D01*
X425635Y344658D01*
X425684Y344782D01*
X425736Y344905D01*
X425792Y345026D01*
X425852Y345145D01*
X425914Y345263D01*
X425980Y345378D01*
X426049Y345492D01*
X426122Y345604D01*
X426197Y345714D01*
X426276Y345822D01*
X430086Y341693D02*
X430034Y341609D01*
X429979Y341526D01*
X429920Y341446D01*
X429859Y341368D01*
X429795Y341293D01*
X429727Y341220D01*
X429657Y341149D01*
X429585Y341082D01*
X429510Y341017D01*
X429432Y340955D01*
X429352Y340896D01*
X429270Y340840D01*
X429186Y340788D01*
X429100Y340739D01*
X429012Y340693D01*
X428922Y340650D01*
X428831Y340611D01*
X428738Y340576D01*
X428644Y340544D01*
X428549Y340516D01*
X428453Y340491D01*
X428356Y340471D01*
X428258Y340453D01*
X428160Y340440D01*
X428061Y340431D01*
X427962Y340425D01*
X427863Y340423D01*
X431990Y345186D02*
X432042Y345270D01*
X432097Y345353D01*
X432156Y345433D01*
X432217Y345511D01*
X432281Y345586D01*
X432349Y345659D01*
X432419Y345730D01*
X432491Y345797D01*
X432566Y345862D01*
X432644Y345924D01*
X432724Y345983D01*
X432806Y346039D01*
X432890Y346091D01*
X432976Y346140D01*
X433064Y346186D01*
X433154Y346229D01*
X433245Y346268D01*
X433338Y346303D01*
X433432Y346335D01*
X433527Y346363D01*
X433623Y346388D01*
X433720Y346408D01*
X433818Y346426D01*
X433916Y346439D01*
X434015Y346448D01*
X434114Y346454D01*
X434213Y346456D01*
X431991Y345186D02*
X430086Y341694D01*
X425323Y352044D02*
X436753Y352044D01*
X436753Y350774D02*
X436753Y353314D01*
X425323Y353314D02*
X425323Y350774D01*
X430403Y362839D02*
X430403Y364744D01*
X436753Y364744D01*
X436753Y360934D01*
X436751Y360834D01*
X436745Y360735D01*
X436735Y360635D01*
X436722Y360537D01*
X436704Y360438D01*
X436683Y360341D01*
X436658Y360245D01*
X436629Y360149D01*
X436596Y360055D01*
X436560Y359962D01*
X436520Y359871D01*
X436476Y359781D01*
X436429Y359693D01*
X436379Y359607D01*
X436325Y359523D01*
X436268Y359441D01*
X436208Y359362D01*
X436144Y359284D01*
X436078Y359210D01*
X436009Y359138D01*
X435937Y359069D01*
X435863Y359003D01*
X435785Y358939D01*
X435706Y358879D01*
X435624Y358822D01*
X435540Y358768D01*
X435454Y358718D01*
X435366Y358671D01*
X435276Y358627D01*
X435185Y358587D01*
X435092Y358551D01*
X434998Y358518D01*
X434902Y358489D01*
X434806Y358464D01*
X434709Y358443D01*
X434610Y358425D01*
X434512Y358412D01*
X434412Y358402D01*
X434313Y358396D01*
X434213Y358394D01*
X427863Y358394D01*
X427763Y358396D01*
X427664Y358402D01*
X427564Y358412D01*
X427466Y358425D01*
X427367Y358443D01*
X427270Y358464D01*
X427174Y358489D01*
X427078Y358518D01*
X426984Y358551D01*
X426891Y358587D01*
X426800Y358627D01*
X426710Y358671D01*
X426622Y358718D01*
X426536Y358768D01*
X426452Y358822D01*
X426370Y358879D01*
X426291Y358939D01*
X426213Y359003D01*
X426139Y359069D01*
X426067Y359138D01*
X425998Y359210D01*
X425932Y359284D01*
X425868Y359362D01*
X425808Y359441D01*
X425751Y359523D01*
X425697Y359607D01*
X425647Y359693D01*
X425600Y359781D01*
X425556Y359871D01*
X425516Y359962D01*
X425480Y360055D01*
X425447Y360149D01*
X425418Y360245D01*
X425393Y360341D01*
X425372Y360438D01*
X425354Y360537D01*
X425341Y360635D01*
X425331Y360735D01*
X425325Y360834D01*
X425323Y360934D01*
X425323Y364744D01*
X425323Y370586D02*
X436753Y370586D01*
X436753Y376936D02*
X425323Y370586D01*
X425323Y376936D02*
X436753Y376936D01*
X436753Y381762D02*
X425323Y385572D01*
X436753Y389382D01*
X433896Y388430D02*
X433896Y382715D01*
X436753Y394233D02*
X425323Y394233D01*
X436753Y394233D02*
X436753Y399313D01*
X438023Y403225D02*
X438023Y408305D01*
X428181Y419228D02*
X428077Y419226D01*
X427972Y419220D01*
X427868Y419211D01*
X427765Y419198D01*
X427662Y419180D01*
X427560Y419160D01*
X427458Y419135D01*
X427358Y419107D01*
X427258Y419075D01*
X427160Y419039D01*
X427063Y419000D01*
X426968Y418958D01*
X426874Y418912D01*
X426782Y418862D01*
X426692Y418810D01*
X426604Y418754D01*
X426518Y418694D01*
X426434Y418632D01*
X426353Y418567D01*
X426274Y418499D01*
X426197Y418427D01*
X426124Y418354D01*
X426052Y418277D01*
X425984Y418198D01*
X425919Y418117D01*
X425857Y418033D01*
X425797Y417947D01*
X425741Y417859D01*
X425689Y417769D01*
X425639Y417677D01*
X425593Y417583D01*
X425551Y417488D01*
X425512Y417391D01*
X425476Y417293D01*
X425444Y417193D01*
X425416Y417093D01*
X425391Y416991D01*
X425371Y416889D01*
X425353Y416786D01*
X425340Y416683D01*
X425331Y416579D01*
X425325Y416474D01*
X425323Y416370D01*
X425325Y416252D01*
X425331Y416133D01*
X425340Y416015D01*
X425353Y415898D01*
X425371Y415781D01*
X425391Y415664D01*
X425416Y415548D01*
X425444Y415433D01*
X425477Y415320D01*
X425512Y415207D01*
X425552Y415095D01*
X425594Y414985D01*
X425641Y414876D01*
X425691Y414768D01*
X425744Y414663D01*
X425801Y414559D01*
X425861Y414457D01*
X425924Y414357D01*
X425991Y414259D01*
X426060Y414163D01*
X426133Y414070D01*
X426209Y413979D01*
X426287Y413890D01*
X426369Y413804D01*
X426453Y413721D01*
X426539Y413640D01*
X426629Y413563D01*
X426720Y413488D01*
X426814Y413416D01*
X426911Y413347D01*
X427009Y413282D01*
X427110Y413219D01*
X427213Y413160D01*
X427317Y413104D01*
X427423Y413052D01*
X427531Y413003D01*
X427640Y412958D01*
X427751Y412916D01*
X427863Y412878D01*
X430403Y418275D02*
X430328Y418351D01*
X430249Y418426D01*
X430168Y418497D01*
X430084Y418566D01*
X429998Y418631D01*
X429910Y418693D01*
X429820Y418753D01*
X429728Y418809D01*
X429633Y418862D01*
X429537Y418911D01*
X429439Y418957D01*
X429340Y419000D01*
X429239Y419039D01*
X429137Y419074D01*
X429034Y419106D01*
X428930Y419134D01*
X428825Y419159D01*
X428718Y419180D01*
X428612Y419197D01*
X428505Y419210D01*
X428397Y419219D01*
X428289Y419225D01*
X428181Y419227D01*
X430403Y418275D02*
X436753Y412877D01*
X436753Y419227D01*
D10*
X419100Y501650D02*
X419100Y514350D01*
X419100Y501650D02*
X412750Y495300D01*
X400050Y495300D01*
X393700Y501650D01*
X419100Y539750D02*
X412750Y546100D01*
X419100Y539750D02*
X419100Y527050D01*
X412750Y520700D01*
X400050Y520700D01*
X393700Y527050D01*
X393700Y539750D01*
X400050Y546100D01*
X412750Y520700D02*
X419100Y514350D01*
X400050Y520700D02*
X393700Y514350D01*
X393700Y501650D01*
X419100Y577850D02*
X419100Y590550D01*
X419100Y577850D02*
X412750Y571500D01*
X400050Y571500D01*
X393700Y577850D01*
X412750Y571500D02*
X419100Y565150D01*
X419100Y552450D01*
X412750Y546100D01*
X400050Y546100D01*
X393700Y552450D01*
X393700Y565150D01*
X400050Y571500D01*
X400050Y596900D02*
X412750Y596900D01*
X419100Y590550D01*
X400050Y596900D02*
X393700Y590550D01*
X393700Y577850D01*
X419100Y488950D02*
X419100Y476250D01*
X412750Y469900D01*
X400050Y469900D01*
X393700Y476250D01*
X412750Y495300D02*
X419100Y488950D01*
X400050Y495300D02*
X393700Y488950D01*
X393700Y476250D01*
D15*
X425323Y506940D02*
X436753Y506940D01*
X425323Y506940D02*
X425323Y510115D01*
X425325Y510226D01*
X425331Y510336D01*
X425340Y510447D01*
X425354Y510557D01*
X425371Y510666D01*
X425392Y510775D01*
X425417Y510883D01*
X425446Y510990D01*
X425478Y511096D01*
X425514Y511201D01*
X425554Y511304D01*
X425597Y511406D01*
X425644Y511507D01*
X425695Y511606D01*
X425748Y511703D01*
X425805Y511797D01*
X425866Y511890D01*
X425929Y511981D01*
X425996Y512070D01*
X426066Y512156D01*
X426139Y512239D01*
X426214Y512321D01*
X426292Y512399D01*
X426374Y512474D01*
X426457Y512547D01*
X426543Y512617D01*
X426632Y512684D01*
X426723Y512747D01*
X426816Y512808D01*
X426911Y512865D01*
X427007Y512918D01*
X427106Y512969D01*
X427207Y513016D01*
X427309Y513059D01*
X427412Y513099D01*
X427517Y513135D01*
X427623Y513167D01*
X427730Y513196D01*
X427838Y513221D01*
X427947Y513242D01*
X428056Y513259D01*
X428166Y513273D01*
X428277Y513282D01*
X428387Y513288D01*
X428498Y513290D01*
X428609Y513288D01*
X428719Y513282D01*
X428830Y513273D01*
X428940Y513259D01*
X429049Y513242D01*
X429158Y513221D01*
X429266Y513196D01*
X429373Y513167D01*
X429479Y513135D01*
X429584Y513099D01*
X429687Y513059D01*
X429789Y513016D01*
X429890Y512969D01*
X429989Y512918D01*
X430086Y512865D01*
X430180Y512808D01*
X430273Y512747D01*
X430364Y512684D01*
X430453Y512617D01*
X430539Y512547D01*
X430622Y512474D01*
X430704Y512399D01*
X430782Y512321D01*
X430857Y512239D01*
X430930Y512156D01*
X431000Y512070D01*
X431067Y511981D01*
X431130Y511890D01*
X431191Y511797D01*
X431248Y511703D01*
X431301Y511606D01*
X431352Y511507D01*
X431399Y511406D01*
X431442Y511304D01*
X431482Y511201D01*
X431518Y511096D01*
X431550Y510990D01*
X431579Y510883D01*
X431604Y510775D01*
X431625Y510666D01*
X431642Y510557D01*
X431656Y510447D01*
X431665Y510336D01*
X431671Y510226D01*
X431673Y510115D01*
X431673Y506940D01*
X431673Y510750D02*
X436753Y513290D01*
X436753Y521716D02*
X436751Y521816D01*
X436745Y521915D01*
X436735Y522015D01*
X436722Y522113D01*
X436704Y522212D01*
X436683Y522309D01*
X436658Y522405D01*
X436629Y522501D01*
X436596Y522595D01*
X436560Y522688D01*
X436520Y522779D01*
X436476Y522869D01*
X436429Y522957D01*
X436379Y523043D01*
X436325Y523127D01*
X436268Y523209D01*
X436208Y523288D01*
X436144Y523366D01*
X436078Y523440D01*
X436009Y523512D01*
X435937Y523581D01*
X435863Y523647D01*
X435785Y523711D01*
X435706Y523771D01*
X435624Y523828D01*
X435540Y523882D01*
X435454Y523932D01*
X435366Y523979D01*
X435276Y524023D01*
X435185Y524063D01*
X435092Y524099D01*
X434998Y524132D01*
X434902Y524161D01*
X434806Y524186D01*
X434709Y524207D01*
X434610Y524225D01*
X434512Y524238D01*
X434412Y524248D01*
X434313Y524254D01*
X434213Y524256D01*
X436753Y521716D02*
X436751Y521575D01*
X436746Y521434D01*
X436736Y521293D01*
X436723Y521152D01*
X436707Y521012D01*
X436686Y520872D01*
X436662Y520733D01*
X436634Y520594D01*
X436603Y520457D01*
X436568Y520320D01*
X436530Y520184D01*
X436488Y520049D01*
X436442Y519916D01*
X436393Y519783D01*
X436340Y519652D01*
X436284Y519523D01*
X436225Y519394D01*
X436162Y519268D01*
X436096Y519143D01*
X436027Y519020D01*
X435954Y518899D01*
X435878Y518780D01*
X435799Y518662D01*
X435718Y518547D01*
X435633Y518435D01*
X435545Y518324D01*
X435454Y518216D01*
X435361Y518110D01*
X435264Y518007D01*
X435165Y517906D01*
X427863Y518224D02*
X427763Y518226D01*
X427664Y518232D01*
X427564Y518242D01*
X427466Y518255D01*
X427367Y518273D01*
X427270Y518294D01*
X427174Y518319D01*
X427078Y518348D01*
X426984Y518381D01*
X426891Y518417D01*
X426800Y518457D01*
X426710Y518501D01*
X426622Y518548D01*
X426536Y518598D01*
X426452Y518652D01*
X426370Y518709D01*
X426291Y518769D01*
X426213Y518833D01*
X426139Y518899D01*
X426067Y518968D01*
X425998Y519040D01*
X425932Y519114D01*
X425868Y519192D01*
X425808Y519271D01*
X425751Y519353D01*
X425697Y519437D01*
X425647Y519523D01*
X425600Y519611D01*
X425556Y519701D01*
X425516Y519792D01*
X425480Y519885D01*
X425447Y519979D01*
X425418Y520075D01*
X425393Y520171D01*
X425372Y520268D01*
X425354Y520367D01*
X425341Y520465D01*
X425331Y520565D01*
X425325Y520664D01*
X425323Y520764D01*
X425325Y520897D01*
X425330Y521030D01*
X425340Y521163D01*
X425353Y521296D01*
X425370Y521428D01*
X425390Y521560D01*
X425414Y521691D01*
X425442Y521821D01*
X425473Y521951D01*
X425508Y522079D01*
X425547Y522207D01*
X425589Y522333D01*
X425635Y522458D01*
X425684Y522582D01*
X425736Y522705D01*
X425792Y522826D01*
X425852Y522945D01*
X425914Y523063D01*
X425980Y523178D01*
X426049Y523292D01*
X426122Y523404D01*
X426197Y523514D01*
X426276Y523622D01*
X430086Y519493D02*
X430034Y519409D01*
X429979Y519326D01*
X429920Y519246D01*
X429859Y519168D01*
X429795Y519093D01*
X429727Y519020D01*
X429657Y518949D01*
X429585Y518882D01*
X429510Y518817D01*
X429432Y518755D01*
X429352Y518696D01*
X429270Y518640D01*
X429186Y518588D01*
X429100Y518539D01*
X429012Y518493D01*
X428922Y518450D01*
X428831Y518411D01*
X428738Y518376D01*
X428644Y518344D01*
X428549Y518316D01*
X428453Y518291D01*
X428356Y518271D01*
X428258Y518253D01*
X428160Y518240D01*
X428061Y518231D01*
X427962Y518225D01*
X427863Y518223D01*
X431990Y522986D02*
X432042Y523070D01*
X432097Y523153D01*
X432156Y523233D01*
X432217Y523311D01*
X432281Y523386D01*
X432349Y523459D01*
X432419Y523530D01*
X432491Y523597D01*
X432566Y523662D01*
X432644Y523724D01*
X432724Y523783D01*
X432806Y523839D01*
X432890Y523891D01*
X432976Y523940D01*
X433064Y523986D01*
X433154Y524029D01*
X433245Y524068D01*
X433338Y524103D01*
X433432Y524135D01*
X433527Y524163D01*
X433623Y524188D01*
X433720Y524208D01*
X433818Y524226D01*
X433916Y524239D01*
X434015Y524248D01*
X434114Y524254D01*
X434213Y524256D01*
X431991Y522986D02*
X430086Y519494D01*
X425323Y529844D02*
X436753Y529844D01*
X436753Y528574D02*
X436753Y531114D01*
X425323Y531114D02*
X425323Y528574D01*
X430403Y540639D02*
X430403Y542544D01*
X436753Y542544D01*
X436753Y538734D01*
X436751Y538634D01*
X436745Y538535D01*
X436735Y538435D01*
X436722Y538337D01*
X436704Y538238D01*
X436683Y538141D01*
X436658Y538045D01*
X436629Y537949D01*
X436596Y537855D01*
X436560Y537762D01*
X436520Y537671D01*
X436476Y537581D01*
X436429Y537493D01*
X436379Y537407D01*
X436325Y537323D01*
X436268Y537241D01*
X436208Y537162D01*
X436144Y537084D01*
X436078Y537010D01*
X436009Y536938D01*
X435937Y536869D01*
X435863Y536803D01*
X435785Y536739D01*
X435706Y536679D01*
X435624Y536622D01*
X435540Y536568D01*
X435454Y536518D01*
X435366Y536471D01*
X435276Y536427D01*
X435185Y536387D01*
X435092Y536351D01*
X434998Y536318D01*
X434902Y536289D01*
X434806Y536264D01*
X434709Y536243D01*
X434610Y536225D01*
X434512Y536212D01*
X434412Y536202D01*
X434313Y536196D01*
X434213Y536194D01*
X427863Y536194D01*
X427763Y536196D01*
X427664Y536202D01*
X427564Y536212D01*
X427466Y536225D01*
X427367Y536243D01*
X427270Y536264D01*
X427174Y536289D01*
X427078Y536318D01*
X426984Y536351D01*
X426891Y536387D01*
X426800Y536427D01*
X426710Y536471D01*
X426622Y536518D01*
X426536Y536568D01*
X426452Y536622D01*
X426370Y536679D01*
X426291Y536739D01*
X426213Y536803D01*
X426139Y536869D01*
X426067Y536938D01*
X425998Y537010D01*
X425932Y537084D01*
X425868Y537162D01*
X425808Y537241D01*
X425751Y537323D01*
X425697Y537407D01*
X425647Y537493D01*
X425600Y537581D01*
X425556Y537671D01*
X425516Y537762D01*
X425480Y537855D01*
X425447Y537949D01*
X425418Y538045D01*
X425393Y538141D01*
X425372Y538238D01*
X425354Y538337D01*
X425341Y538435D01*
X425331Y538535D01*
X425325Y538634D01*
X425323Y538734D01*
X425323Y542544D01*
X425323Y548386D02*
X436753Y548386D01*
X436753Y554736D02*
X425323Y548386D01*
X425323Y554736D02*
X436753Y554736D01*
X436753Y559562D02*
X425323Y563372D01*
X436753Y567182D01*
X433896Y566230D02*
X433896Y560515D01*
X436753Y572033D02*
X425323Y572033D01*
X436753Y572033D02*
X436753Y577113D01*
X438023Y581025D02*
X438023Y586105D01*
X427863Y590677D02*
X425323Y593852D01*
X436753Y593852D01*
X436753Y590677D02*
X436753Y597027D01*
D10*
X501650Y577850D02*
X514350Y577850D01*
X520700Y571500D01*
X520700Y558800D01*
X514350Y552450D01*
X495300Y558800D02*
X495300Y571500D01*
X501650Y577850D01*
X495300Y558800D02*
X501650Y552450D01*
X514350Y552450D01*
X520700Y571500D02*
X527050Y577850D01*
X539750Y577850D01*
X546100Y571500D01*
X546100Y558800D01*
X539750Y552450D01*
X527050Y552450D01*
X520700Y558800D01*
D15*
X495173Y544703D02*
X495173Y533273D01*
X495173Y544703D02*
X498348Y544703D01*
X498459Y544701D01*
X498569Y544695D01*
X498680Y544686D01*
X498790Y544672D01*
X498899Y544655D01*
X499008Y544634D01*
X499116Y544609D01*
X499223Y544580D01*
X499329Y544548D01*
X499434Y544512D01*
X499537Y544472D01*
X499639Y544429D01*
X499740Y544382D01*
X499839Y544331D01*
X499936Y544278D01*
X500030Y544221D01*
X500123Y544160D01*
X500214Y544097D01*
X500303Y544030D01*
X500389Y543960D01*
X500472Y543887D01*
X500554Y543812D01*
X500632Y543734D01*
X500707Y543652D01*
X500780Y543569D01*
X500850Y543483D01*
X500917Y543394D01*
X500980Y543303D01*
X501041Y543210D01*
X501098Y543115D01*
X501151Y543019D01*
X501202Y542920D01*
X501249Y542819D01*
X501292Y542717D01*
X501332Y542614D01*
X501368Y542509D01*
X501400Y542403D01*
X501429Y542296D01*
X501454Y542188D01*
X501475Y542079D01*
X501492Y541970D01*
X501506Y541860D01*
X501515Y541749D01*
X501521Y541639D01*
X501523Y541528D01*
X501521Y541417D01*
X501515Y541307D01*
X501506Y541196D01*
X501492Y541086D01*
X501475Y540977D01*
X501454Y540868D01*
X501429Y540760D01*
X501400Y540653D01*
X501368Y540547D01*
X501332Y540442D01*
X501292Y540339D01*
X501249Y540237D01*
X501202Y540136D01*
X501151Y540037D01*
X501098Y539941D01*
X501041Y539846D01*
X500980Y539753D01*
X500917Y539662D01*
X500850Y539573D01*
X500780Y539487D01*
X500707Y539404D01*
X500632Y539322D01*
X500554Y539244D01*
X500472Y539169D01*
X500389Y539096D01*
X500303Y539026D01*
X500214Y538959D01*
X500123Y538896D01*
X500030Y538835D01*
X499936Y538778D01*
X499839Y538725D01*
X499740Y538674D01*
X499639Y538627D01*
X499537Y538584D01*
X499434Y538544D01*
X499329Y538508D01*
X499223Y538476D01*
X499116Y538447D01*
X499008Y538422D01*
X498899Y538401D01*
X498790Y538384D01*
X498680Y538370D01*
X498569Y538361D01*
X498459Y538355D01*
X498348Y538353D01*
X495173Y538353D01*
X498983Y538353D02*
X501523Y533273D01*
X511346Y539623D02*
X513251Y539623D01*
X513251Y533273D01*
X509441Y533273D01*
X509341Y533275D01*
X509242Y533281D01*
X509142Y533291D01*
X509044Y533304D01*
X508945Y533322D01*
X508848Y533343D01*
X508752Y533368D01*
X508656Y533397D01*
X508562Y533430D01*
X508469Y533466D01*
X508378Y533506D01*
X508288Y533550D01*
X508200Y533597D01*
X508114Y533647D01*
X508030Y533701D01*
X507948Y533758D01*
X507869Y533818D01*
X507791Y533882D01*
X507717Y533948D01*
X507645Y534017D01*
X507576Y534089D01*
X507510Y534163D01*
X507446Y534241D01*
X507386Y534320D01*
X507329Y534402D01*
X507275Y534486D01*
X507225Y534572D01*
X507178Y534660D01*
X507134Y534750D01*
X507094Y534841D01*
X507058Y534934D01*
X507025Y535028D01*
X506996Y535124D01*
X506971Y535220D01*
X506950Y535317D01*
X506932Y535416D01*
X506919Y535514D01*
X506909Y535614D01*
X506903Y535713D01*
X506901Y535813D01*
X506901Y542163D01*
X506903Y542263D01*
X506909Y542362D01*
X506919Y542462D01*
X506932Y542560D01*
X506950Y542659D01*
X506971Y542756D01*
X506996Y542852D01*
X507025Y542948D01*
X507058Y543042D01*
X507094Y543135D01*
X507134Y543226D01*
X507178Y543316D01*
X507225Y543404D01*
X507275Y543490D01*
X507329Y543574D01*
X507386Y543656D01*
X507446Y543735D01*
X507510Y543813D01*
X507576Y543887D01*
X507645Y543959D01*
X507717Y544028D01*
X507791Y544094D01*
X507869Y544158D01*
X507948Y544218D01*
X508030Y544275D01*
X508114Y544329D01*
X508200Y544379D01*
X508288Y544426D01*
X508378Y544470D01*
X508469Y544510D01*
X508562Y544546D01*
X508656Y544579D01*
X508752Y544608D01*
X508848Y544633D01*
X508945Y544654D01*
X509044Y544672D01*
X509142Y544685D01*
X509242Y544695D01*
X509341Y544701D01*
X509441Y544703D01*
X513251Y544703D01*
X519093Y544703D02*
X519093Y533273D01*
X525443Y533273D02*
X519093Y544703D01*
X525443Y544703D02*
X525443Y533273D01*
X531285Y533273D02*
X531285Y544703D01*
X534460Y544703D01*
X534571Y544701D01*
X534681Y544695D01*
X534792Y544686D01*
X534902Y544672D01*
X535011Y544655D01*
X535120Y544634D01*
X535228Y544609D01*
X535335Y544580D01*
X535441Y544548D01*
X535546Y544512D01*
X535649Y544472D01*
X535751Y544429D01*
X535852Y544382D01*
X535951Y544331D01*
X536048Y544278D01*
X536142Y544221D01*
X536235Y544160D01*
X536326Y544097D01*
X536415Y544030D01*
X536501Y543960D01*
X536584Y543887D01*
X536666Y543812D01*
X536744Y543734D01*
X536819Y543652D01*
X536892Y543569D01*
X536962Y543483D01*
X537029Y543394D01*
X537092Y543303D01*
X537153Y543210D01*
X537210Y543116D01*
X537263Y543019D01*
X537314Y542920D01*
X537361Y542819D01*
X537404Y542717D01*
X537444Y542614D01*
X537480Y542509D01*
X537512Y542403D01*
X537541Y542296D01*
X537566Y542188D01*
X537587Y542079D01*
X537604Y541970D01*
X537618Y541860D01*
X537627Y541749D01*
X537633Y541639D01*
X537635Y541528D01*
X537635Y536448D01*
X537633Y536337D01*
X537627Y536227D01*
X537618Y536116D01*
X537604Y536006D01*
X537587Y535897D01*
X537566Y535788D01*
X537541Y535680D01*
X537512Y535573D01*
X537480Y535467D01*
X537444Y535362D01*
X537404Y535259D01*
X537361Y535157D01*
X537314Y535056D01*
X537263Y534957D01*
X537210Y534861D01*
X537153Y534766D01*
X537092Y534673D01*
X537029Y534582D01*
X536962Y534493D01*
X536892Y534407D01*
X536819Y534324D01*
X536744Y534242D01*
X536666Y534164D01*
X536584Y534089D01*
X536501Y534016D01*
X536415Y533946D01*
X536326Y533879D01*
X536235Y533816D01*
X536142Y533755D01*
X536048Y533698D01*
X535951Y533645D01*
X535852Y533594D01*
X535751Y533547D01*
X535649Y533504D01*
X535546Y533464D01*
X535441Y533428D01*
X535335Y533396D01*
X535228Y533367D01*
X535120Y533342D01*
X535011Y533321D01*
X534902Y533304D01*
X534792Y533290D01*
X534681Y533281D01*
X534571Y533275D01*
X534460Y533273D01*
X531285Y533273D01*
D10*
X514350Y609600D02*
X501650Y609600D01*
X514350Y609600D02*
X520700Y603250D01*
X520700Y590550D01*
X514350Y584200D01*
X495300Y590550D02*
X495300Y603250D01*
X501650Y609600D01*
X495300Y590550D02*
X501650Y584200D01*
X514350Y584200D01*
X520700Y603250D02*
X527050Y609600D01*
X539750Y609600D01*
X546100Y603250D01*
X546100Y590550D01*
X539750Y584200D01*
X527050Y584200D01*
X520700Y590550D01*
D15*
X495173Y615823D02*
X495173Y627253D01*
X498348Y627253D01*
X498459Y627251D01*
X498569Y627245D01*
X498680Y627236D01*
X498790Y627222D01*
X498899Y627205D01*
X499008Y627184D01*
X499116Y627159D01*
X499223Y627130D01*
X499329Y627098D01*
X499434Y627062D01*
X499537Y627022D01*
X499639Y626979D01*
X499740Y626932D01*
X499839Y626881D01*
X499936Y626828D01*
X500030Y626771D01*
X500123Y626710D01*
X500214Y626647D01*
X500303Y626580D01*
X500389Y626510D01*
X500472Y626437D01*
X500554Y626362D01*
X500632Y626284D01*
X500707Y626202D01*
X500780Y626119D01*
X500850Y626033D01*
X500917Y625944D01*
X500980Y625853D01*
X501041Y625760D01*
X501098Y625665D01*
X501151Y625569D01*
X501202Y625470D01*
X501249Y625369D01*
X501292Y625267D01*
X501332Y625164D01*
X501368Y625059D01*
X501400Y624953D01*
X501429Y624846D01*
X501454Y624738D01*
X501475Y624629D01*
X501492Y624520D01*
X501506Y624410D01*
X501515Y624299D01*
X501521Y624189D01*
X501523Y624078D01*
X501521Y623967D01*
X501515Y623857D01*
X501506Y623746D01*
X501492Y623636D01*
X501475Y623527D01*
X501454Y623418D01*
X501429Y623310D01*
X501400Y623203D01*
X501368Y623097D01*
X501332Y622992D01*
X501292Y622889D01*
X501249Y622787D01*
X501202Y622686D01*
X501151Y622587D01*
X501098Y622491D01*
X501041Y622396D01*
X500980Y622303D01*
X500917Y622212D01*
X500850Y622123D01*
X500780Y622037D01*
X500707Y621954D01*
X500632Y621872D01*
X500554Y621794D01*
X500472Y621719D01*
X500389Y621646D01*
X500303Y621576D01*
X500214Y621509D01*
X500123Y621446D01*
X500030Y621385D01*
X499936Y621328D01*
X499839Y621275D01*
X499740Y621224D01*
X499639Y621177D01*
X499537Y621134D01*
X499434Y621094D01*
X499329Y621058D01*
X499223Y621026D01*
X499116Y620997D01*
X499008Y620972D01*
X498899Y620951D01*
X498790Y620934D01*
X498680Y620920D01*
X498569Y620911D01*
X498459Y620905D01*
X498348Y620903D01*
X495173Y620903D01*
X498983Y620903D02*
X501523Y615823D01*
X507092Y615823D02*
X507092Y627253D01*
X510267Y627253D01*
X510378Y627251D01*
X510488Y627245D01*
X510599Y627236D01*
X510709Y627222D01*
X510818Y627205D01*
X510927Y627184D01*
X511035Y627159D01*
X511142Y627130D01*
X511248Y627098D01*
X511353Y627062D01*
X511456Y627022D01*
X511558Y626979D01*
X511659Y626932D01*
X511758Y626881D01*
X511855Y626828D01*
X511949Y626771D01*
X512042Y626710D01*
X512133Y626647D01*
X512222Y626580D01*
X512308Y626510D01*
X512391Y626437D01*
X512473Y626362D01*
X512551Y626284D01*
X512626Y626202D01*
X512699Y626119D01*
X512769Y626033D01*
X512836Y625944D01*
X512899Y625853D01*
X512960Y625760D01*
X513017Y625665D01*
X513070Y625569D01*
X513121Y625470D01*
X513168Y625369D01*
X513211Y625267D01*
X513251Y625164D01*
X513287Y625059D01*
X513319Y624953D01*
X513348Y624846D01*
X513373Y624738D01*
X513394Y624629D01*
X513411Y624520D01*
X513425Y624410D01*
X513434Y624299D01*
X513440Y624189D01*
X513442Y624078D01*
X513440Y623967D01*
X513434Y623857D01*
X513425Y623746D01*
X513411Y623636D01*
X513394Y623527D01*
X513373Y623418D01*
X513348Y623310D01*
X513319Y623203D01*
X513287Y623097D01*
X513251Y622992D01*
X513211Y622889D01*
X513168Y622787D01*
X513121Y622686D01*
X513070Y622587D01*
X513017Y622491D01*
X512960Y622396D01*
X512899Y622303D01*
X512836Y622212D01*
X512769Y622123D01*
X512699Y622037D01*
X512626Y621954D01*
X512551Y621872D01*
X512473Y621794D01*
X512391Y621719D01*
X512308Y621646D01*
X512222Y621576D01*
X512133Y621509D01*
X512042Y621446D01*
X511949Y621385D01*
X511855Y621328D01*
X511758Y621275D01*
X511659Y621224D01*
X511558Y621177D01*
X511456Y621134D01*
X511353Y621094D01*
X511248Y621058D01*
X511142Y621026D01*
X511035Y620997D01*
X510927Y620972D01*
X510818Y620951D01*
X510709Y620934D01*
X510599Y620920D01*
X510488Y620911D01*
X510378Y620905D01*
X510267Y620903D01*
X507092Y620903D01*
X517950Y618998D02*
X517950Y624078D01*
X517952Y624189D01*
X517958Y624299D01*
X517967Y624410D01*
X517981Y624520D01*
X517998Y624629D01*
X518019Y624738D01*
X518044Y624846D01*
X518073Y624953D01*
X518105Y625059D01*
X518141Y625164D01*
X518181Y625267D01*
X518224Y625369D01*
X518271Y625470D01*
X518322Y625569D01*
X518375Y625666D01*
X518432Y625760D01*
X518493Y625853D01*
X518556Y625944D01*
X518623Y626033D01*
X518693Y626119D01*
X518766Y626202D01*
X518841Y626284D01*
X518919Y626362D01*
X519001Y626437D01*
X519084Y626510D01*
X519170Y626580D01*
X519259Y626647D01*
X519350Y626710D01*
X519443Y626771D01*
X519538Y626828D01*
X519634Y626881D01*
X519733Y626932D01*
X519834Y626979D01*
X519936Y627022D01*
X520039Y627062D01*
X520144Y627098D01*
X520250Y627130D01*
X520357Y627159D01*
X520465Y627184D01*
X520574Y627205D01*
X520683Y627222D01*
X520793Y627236D01*
X520904Y627245D01*
X521014Y627251D01*
X521125Y627253D01*
X521236Y627251D01*
X521346Y627245D01*
X521457Y627236D01*
X521567Y627222D01*
X521676Y627205D01*
X521785Y627184D01*
X521893Y627159D01*
X522000Y627130D01*
X522106Y627098D01*
X522211Y627062D01*
X522314Y627022D01*
X522416Y626979D01*
X522517Y626932D01*
X522616Y626881D01*
X522713Y626828D01*
X522807Y626771D01*
X522900Y626710D01*
X522991Y626647D01*
X523080Y626580D01*
X523166Y626510D01*
X523249Y626437D01*
X523331Y626362D01*
X523409Y626284D01*
X523484Y626202D01*
X523557Y626119D01*
X523627Y626033D01*
X523694Y625944D01*
X523757Y625853D01*
X523818Y625760D01*
X523875Y625666D01*
X523928Y625569D01*
X523979Y625470D01*
X524026Y625369D01*
X524069Y625267D01*
X524109Y625164D01*
X524145Y625059D01*
X524177Y624953D01*
X524206Y624846D01*
X524231Y624738D01*
X524252Y624629D01*
X524269Y624520D01*
X524283Y624410D01*
X524292Y624299D01*
X524298Y624189D01*
X524300Y624078D01*
X524300Y618998D01*
X524298Y618887D01*
X524292Y618777D01*
X524283Y618666D01*
X524269Y618556D01*
X524252Y618447D01*
X524231Y618338D01*
X524206Y618230D01*
X524177Y618123D01*
X524145Y618017D01*
X524109Y617912D01*
X524069Y617809D01*
X524026Y617707D01*
X523979Y617606D01*
X523928Y617507D01*
X523875Y617411D01*
X523818Y617316D01*
X523757Y617223D01*
X523694Y617132D01*
X523627Y617043D01*
X523557Y616957D01*
X523484Y616874D01*
X523409Y616792D01*
X523331Y616714D01*
X523249Y616639D01*
X523166Y616566D01*
X523080Y616496D01*
X522991Y616429D01*
X522900Y616366D01*
X522807Y616305D01*
X522712Y616248D01*
X522616Y616195D01*
X522517Y616144D01*
X522416Y616097D01*
X522314Y616054D01*
X522211Y616014D01*
X522106Y615978D01*
X522000Y615946D01*
X521893Y615917D01*
X521785Y615892D01*
X521676Y615871D01*
X521567Y615854D01*
X521457Y615840D01*
X521346Y615831D01*
X521236Y615825D01*
X521125Y615823D01*
X521014Y615825D01*
X520904Y615831D01*
X520793Y615840D01*
X520683Y615854D01*
X520574Y615871D01*
X520465Y615892D01*
X520357Y615917D01*
X520250Y615946D01*
X520144Y615978D01*
X520039Y616014D01*
X519936Y616054D01*
X519834Y616097D01*
X519733Y616144D01*
X519634Y616195D01*
X519538Y616248D01*
X519443Y616305D01*
X519350Y616366D01*
X519259Y616429D01*
X519170Y616496D01*
X519084Y616566D01*
X519001Y616639D01*
X518919Y616714D01*
X518841Y616792D01*
X518766Y616874D01*
X518693Y616957D01*
X518623Y617043D01*
X518556Y617132D01*
X518493Y617223D01*
X518432Y617316D01*
X518375Y617411D01*
X518322Y617507D01*
X518271Y617606D01*
X518224Y617707D01*
X518181Y617809D01*
X518141Y617912D01*
X518105Y618017D01*
X518073Y618123D01*
X518044Y618230D01*
X518019Y618338D01*
X517998Y618447D01*
X517981Y618556D01*
X517967Y618666D01*
X517958Y618777D01*
X517952Y618887D01*
X517950Y618998D01*
X528999Y627253D02*
X531539Y615823D01*
X534079Y623443D01*
X536619Y615823D01*
X539159Y627253D01*
X544265Y615823D02*
X549345Y615823D01*
X544265Y615823D02*
X544265Y627253D01*
X549345Y627253D01*
X548075Y622173D02*
X544265Y622173D01*
X554228Y627253D02*
X554228Y615823D01*
X554228Y627253D02*
X557403Y627253D01*
X557514Y627251D01*
X557624Y627245D01*
X557735Y627236D01*
X557845Y627222D01*
X557954Y627205D01*
X558063Y627184D01*
X558171Y627159D01*
X558278Y627130D01*
X558384Y627098D01*
X558489Y627062D01*
X558592Y627022D01*
X558694Y626979D01*
X558795Y626932D01*
X558894Y626881D01*
X558991Y626828D01*
X559085Y626771D01*
X559178Y626710D01*
X559269Y626647D01*
X559358Y626580D01*
X559444Y626510D01*
X559527Y626437D01*
X559609Y626362D01*
X559687Y626284D01*
X559762Y626202D01*
X559835Y626119D01*
X559905Y626033D01*
X559972Y625944D01*
X560035Y625853D01*
X560096Y625760D01*
X560153Y625665D01*
X560206Y625569D01*
X560257Y625470D01*
X560304Y625369D01*
X560347Y625267D01*
X560387Y625164D01*
X560423Y625059D01*
X560455Y624953D01*
X560484Y624846D01*
X560509Y624738D01*
X560530Y624629D01*
X560547Y624520D01*
X560561Y624410D01*
X560570Y624299D01*
X560576Y624189D01*
X560578Y624078D01*
X560576Y623967D01*
X560570Y623857D01*
X560561Y623746D01*
X560547Y623636D01*
X560530Y623527D01*
X560509Y623418D01*
X560484Y623310D01*
X560455Y623203D01*
X560423Y623097D01*
X560387Y622992D01*
X560347Y622889D01*
X560304Y622787D01*
X560257Y622686D01*
X560206Y622587D01*
X560153Y622491D01*
X560096Y622396D01*
X560035Y622303D01*
X559972Y622212D01*
X559905Y622123D01*
X559835Y622037D01*
X559762Y621954D01*
X559687Y621872D01*
X559609Y621794D01*
X559527Y621719D01*
X559444Y621646D01*
X559358Y621576D01*
X559269Y621509D01*
X559178Y621446D01*
X559085Y621385D01*
X558991Y621328D01*
X558894Y621275D01*
X558795Y621224D01*
X558694Y621177D01*
X558592Y621134D01*
X558489Y621094D01*
X558384Y621058D01*
X558278Y621026D01*
X558171Y620997D01*
X558063Y620972D01*
X557954Y620951D01*
X557845Y620934D01*
X557735Y620920D01*
X557624Y620911D01*
X557514Y620905D01*
X557403Y620903D01*
X554228Y620903D01*
X558038Y620903D02*
X560578Y615823D01*
M02*
