G04 EAGLE Gerber RS-274X export*
G75*
%MOMM*%
%FSLAX34Y34*%
%LPD*%
%IN*%
%IPPOS*%
%AMOC8*
5,1,8,0,0,1.08239X$1,22.5*%
G01*
%ADD10C,0.254000*%


D10*
X0Y0D02*
X749100Y0D01*
X749100Y746000D01*
X0Y746000D01*
X0Y0D01*
X66800Y697976D02*
X66732Y696931D01*
X66595Y695892D01*
X66390Y694865D01*
X66119Y693853D01*
X65783Y692861D01*
X65382Y691893D01*
X64918Y690954D01*
X64395Y690046D01*
X63813Y689175D01*
X63175Y688344D01*
X62484Y687557D01*
X61743Y686816D01*
X60956Y686125D01*
X60125Y685488D01*
X59254Y684906D01*
X58346Y684382D01*
X57407Y683918D01*
X56439Y683517D01*
X55447Y683181D01*
X54435Y682910D01*
X53408Y682705D01*
X52369Y682569D01*
X51324Y682500D01*
X50276Y682500D01*
X49231Y682569D01*
X48192Y682705D01*
X47165Y682910D01*
X46153Y683181D01*
X45161Y683517D01*
X44193Y683918D01*
X43254Y684382D01*
X42346Y684906D01*
X41475Y685488D01*
X40644Y686125D01*
X39857Y686816D01*
X39116Y687557D01*
X38425Y688344D01*
X37788Y689175D01*
X37206Y690046D01*
X36682Y690954D01*
X36218Y691893D01*
X35817Y692861D01*
X35481Y693853D01*
X35210Y694865D01*
X35005Y695892D01*
X34869Y696931D01*
X34800Y697976D01*
X34800Y699024D01*
X34869Y700069D01*
X35005Y701108D01*
X35210Y702135D01*
X35481Y703147D01*
X35817Y704139D01*
X36218Y705107D01*
X36682Y706046D01*
X37206Y706954D01*
X37788Y707825D01*
X38425Y708656D01*
X39116Y709443D01*
X39857Y710184D01*
X40644Y710875D01*
X41475Y711513D01*
X42346Y712095D01*
X43254Y712618D01*
X44193Y713082D01*
X45161Y713483D01*
X46153Y713819D01*
X47165Y714090D01*
X48192Y714295D01*
X49231Y714432D01*
X50276Y714500D01*
X51324Y714500D01*
X52369Y714432D01*
X53408Y714295D01*
X54435Y714090D01*
X55447Y713819D01*
X56439Y713483D01*
X57407Y713082D01*
X58346Y712618D01*
X59254Y712095D01*
X60125Y711513D01*
X60956Y710875D01*
X61743Y710184D01*
X62484Y709443D01*
X63175Y708656D01*
X63813Y707825D01*
X64395Y706954D01*
X64918Y706046D01*
X65382Y705107D01*
X65783Y704139D01*
X66119Y703147D01*
X66390Y702135D01*
X66595Y701108D01*
X66732Y700069D01*
X66800Y699024D01*
X66800Y697976D01*
X66800Y50276D02*
X66732Y49231D01*
X66595Y48192D01*
X66390Y47165D01*
X66119Y46153D01*
X65783Y45161D01*
X65382Y44193D01*
X64918Y43254D01*
X64395Y42346D01*
X63813Y41475D01*
X63175Y40644D01*
X62484Y39857D01*
X61743Y39116D01*
X60956Y38425D01*
X60125Y37788D01*
X59254Y37206D01*
X58346Y36682D01*
X57407Y36218D01*
X56439Y35817D01*
X55447Y35481D01*
X54435Y35210D01*
X53408Y35005D01*
X52369Y34869D01*
X51324Y34800D01*
X50276Y34800D01*
X49231Y34869D01*
X48192Y35005D01*
X47165Y35210D01*
X46153Y35481D01*
X45161Y35817D01*
X44193Y36218D01*
X43254Y36682D01*
X42346Y37206D01*
X41475Y37788D01*
X40644Y38425D01*
X39857Y39116D01*
X39116Y39857D01*
X38425Y40644D01*
X37788Y41475D01*
X37206Y42346D01*
X36682Y43254D01*
X36218Y44193D01*
X35817Y45161D01*
X35481Y46153D01*
X35210Y47165D01*
X35005Y48192D01*
X34869Y49231D01*
X34800Y50276D01*
X34800Y51324D01*
X34869Y52369D01*
X35005Y53408D01*
X35210Y54435D01*
X35481Y55447D01*
X35817Y56439D01*
X36218Y57407D01*
X36682Y58346D01*
X37206Y59254D01*
X37788Y60125D01*
X38425Y60956D01*
X39116Y61743D01*
X39857Y62484D01*
X40644Y63175D01*
X41475Y63813D01*
X42346Y64395D01*
X43254Y64918D01*
X44193Y65382D01*
X45161Y65783D01*
X46153Y66119D01*
X47165Y66390D01*
X48192Y66595D01*
X49231Y66732D01*
X50276Y66800D01*
X51324Y66800D01*
X52369Y66732D01*
X53408Y66595D01*
X54435Y66390D01*
X55447Y66119D01*
X56439Y65783D01*
X57407Y65382D01*
X58346Y64918D01*
X59254Y64395D01*
X60125Y63813D01*
X60956Y63175D01*
X61743Y62484D01*
X62484Y61743D01*
X63175Y60956D01*
X63813Y60125D01*
X64395Y59254D01*
X64918Y58346D01*
X65382Y57407D01*
X65783Y56439D01*
X66119Y55447D01*
X66390Y54435D01*
X66595Y53408D01*
X66732Y52369D01*
X66800Y51324D01*
X66800Y50276D01*
X714500Y50276D02*
X714432Y49231D01*
X714295Y48192D01*
X714090Y47165D01*
X713819Y46153D01*
X713483Y45161D01*
X713082Y44193D01*
X712618Y43254D01*
X712095Y42346D01*
X711513Y41475D01*
X710875Y40644D01*
X710184Y39857D01*
X709443Y39116D01*
X708656Y38425D01*
X707825Y37788D01*
X706954Y37206D01*
X706046Y36682D01*
X705107Y36218D01*
X704139Y35817D01*
X703147Y35481D01*
X702135Y35210D01*
X701108Y35005D01*
X700069Y34869D01*
X699024Y34800D01*
X697976Y34800D01*
X696931Y34869D01*
X695892Y35005D01*
X694865Y35210D01*
X693853Y35481D01*
X692861Y35817D01*
X691893Y36218D01*
X690954Y36682D01*
X690046Y37206D01*
X689175Y37788D01*
X688344Y38425D01*
X687557Y39116D01*
X686816Y39857D01*
X686125Y40644D01*
X685488Y41475D01*
X684906Y42346D01*
X684382Y43254D01*
X683918Y44193D01*
X683517Y45161D01*
X683181Y46153D01*
X682910Y47165D01*
X682705Y48192D01*
X682569Y49231D01*
X682500Y50276D01*
X682500Y51324D01*
X682569Y52369D01*
X682705Y53408D01*
X682910Y54435D01*
X683181Y55447D01*
X683517Y56439D01*
X683918Y57407D01*
X684382Y58346D01*
X684906Y59254D01*
X685488Y60125D01*
X686125Y60956D01*
X686816Y61743D01*
X687557Y62484D01*
X688344Y63175D01*
X689175Y63813D01*
X690046Y64395D01*
X690954Y64918D01*
X691893Y65382D01*
X692861Y65783D01*
X693853Y66119D01*
X694865Y66390D01*
X695892Y66595D01*
X696931Y66732D01*
X697976Y66800D01*
X699024Y66800D01*
X700069Y66732D01*
X701108Y66595D01*
X702135Y66390D01*
X703147Y66119D01*
X704139Y65783D01*
X705107Y65382D01*
X706046Y64918D01*
X706954Y64395D01*
X707825Y63813D01*
X708656Y63175D01*
X709443Y62484D01*
X710184Y61743D01*
X710875Y60956D01*
X711513Y60125D01*
X712095Y59254D01*
X712618Y58346D01*
X713082Y57407D01*
X713483Y56439D01*
X713819Y55447D01*
X714090Y54435D01*
X714295Y53408D01*
X714432Y52369D01*
X714500Y51324D01*
X714500Y50276D01*
X714500Y697976D02*
X714432Y696931D01*
X714295Y695892D01*
X714090Y694865D01*
X713819Y693853D01*
X713483Y692861D01*
X713082Y691893D01*
X712618Y690954D01*
X712095Y690046D01*
X711513Y689175D01*
X710875Y688344D01*
X710184Y687557D01*
X709443Y686816D01*
X708656Y686125D01*
X707825Y685488D01*
X706954Y684906D01*
X706046Y684382D01*
X705107Y683918D01*
X704139Y683517D01*
X703147Y683181D01*
X702135Y682910D01*
X701108Y682705D01*
X700069Y682569D01*
X699024Y682500D01*
X697976Y682500D01*
X696931Y682569D01*
X695892Y682705D01*
X694865Y682910D01*
X693853Y683181D01*
X692861Y683517D01*
X691893Y683918D01*
X690954Y684382D01*
X690046Y684906D01*
X689175Y685488D01*
X688344Y686125D01*
X687557Y686816D01*
X686816Y687557D01*
X686125Y688344D01*
X685488Y689175D01*
X684906Y690046D01*
X684382Y690954D01*
X683918Y691893D01*
X683517Y692861D01*
X683181Y693853D01*
X682910Y694865D01*
X682705Y695892D01*
X682569Y696931D01*
X682500Y697976D01*
X682500Y699024D01*
X682569Y700069D01*
X682705Y701108D01*
X682910Y702135D01*
X683181Y703147D01*
X683517Y704139D01*
X683918Y705107D01*
X684382Y706046D01*
X684906Y706954D01*
X685488Y707825D01*
X686125Y708656D01*
X686816Y709443D01*
X687557Y710184D01*
X688344Y710875D01*
X689175Y711513D01*
X690046Y712095D01*
X690954Y712618D01*
X691893Y713082D01*
X692861Y713483D01*
X693853Y713819D01*
X694865Y714090D01*
X695892Y714295D01*
X696931Y714432D01*
X697976Y714500D01*
X699024Y714500D01*
X700069Y714432D01*
X701108Y714295D01*
X702135Y714090D01*
X703147Y713819D01*
X704139Y713483D01*
X705107Y713082D01*
X706046Y712618D01*
X706954Y712095D01*
X707825Y711513D01*
X708656Y710875D01*
X709443Y710184D01*
X710184Y709443D01*
X710875Y708656D01*
X711513Y707825D01*
X712095Y706954D01*
X712618Y706046D01*
X713082Y705107D01*
X713483Y704139D01*
X713819Y703147D01*
X714090Y702135D01*
X714295Y701108D01*
X714432Y700069D01*
X714500Y699024D01*
X714500Y697976D01*
M02*
