G04 EAGLE Gerber RS-274X export*
G75*
%MOMM*%
%FSLAX34Y34*%
%LPD*%
%INSoldermask Bottom*%
%IPPOS*%
%AMOC8*
5,1,8,0,0,1.08239X$1,22.5*%
G01*
%ADD10C,1.868200*%
%ADD11C,1.727200*%
%ADD12C,1.611200*%
%ADD13C,1.524000*%
%ADD14C,3.403200*%
%ADD15C,6.000000*%


D10*
X190500Y584200D03*
X190500Y558800D03*
X190500Y533400D03*
X190500Y508000D03*
X190500Y482600D03*
X190500Y457200D03*
X190500Y431800D03*
X190500Y406400D03*
X190500Y381000D03*
X190500Y355600D03*
X190500Y330200D03*
X190500Y304800D03*
X342900Y304800D03*
X342900Y330200D03*
X342900Y355600D03*
X342900Y381000D03*
X342900Y406400D03*
X342900Y431800D03*
X342900Y457200D03*
X342900Y482600D03*
X342900Y508000D03*
X342900Y533400D03*
X342900Y558800D03*
X190500Y254000D03*
X190500Y228600D03*
X190500Y203200D03*
X190500Y177800D03*
X190500Y152400D03*
X190500Y127000D03*
X190500Y101600D03*
X190500Y76200D03*
X190500Y50800D03*
X342900Y50800D03*
X342900Y76200D03*
X342900Y101600D03*
X342900Y127000D03*
X342900Y152400D03*
X342900Y177800D03*
X342900Y203200D03*
X342900Y228600D03*
X342900Y254000D03*
X190500Y279400D03*
X215900Y177800D03*
X241300Y177800D03*
X266700Y177800D03*
X292100Y177800D03*
X317500Y177800D03*
X221000Y469900D03*
X221000Y495300D03*
X221000Y520700D03*
X221000Y546100D03*
X221000Y571500D03*
X342900Y584200D03*
X342900Y635000D03*
X190500Y609600D03*
X317500Y609600D03*
X342900Y279400D03*
X342900Y609600D03*
X190500Y635000D03*
D11*
X101981Y609600D02*
X93599Y609600D01*
X93599Y584200D02*
X101981Y584200D01*
X101981Y558800D02*
X93599Y558800D01*
X93599Y533400D02*
X101981Y533400D01*
X101981Y508000D02*
X93599Y508000D01*
X93599Y482600D02*
X101981Y482600D01*
X101981Y457200D02*
X93599Y457200D01*
X93599Y431800D02*
X101981Y431800D01*
X101981Y406400D02*
X93599Y406400D01*
X93599Y381000D02*
X101981Y381000D01*
X101981Y355600D02*
X93599Y355600D01*
X93599Y330200D02*
X101981Y330200D01*
X101981Y304800D02*
X93599Y304800D01*
X74041Y304800D02*
X65659Y304800D01*
X65659Y330200D02*
X74041Y330200D01*
X74041Y355600D02*
X65659Y355600D01*
X65659Y381000D02*
X74041Y381000D01*
X74041Y406400D02*
X65659Y406400D01*
X65659Y431800D02*
X74041Y431800D01*
X74041Y457200D02*
X65659Y457200D01*
X65659Y482600D02*
X74041Y482600D01*
X74041Y508000D02*
X65659Y508000D01*
X65659Y533400D02*
X74041Y533400D01*
X74041Y558800D02*
X65659Y558800D01*
X65659Y584200D02*
X74041Y584200D01*
X74041Y609600D02*
X65659Y609600D01*
X46101Y304800D02*
X37719Y304800D01*
X37719Y330200D02*
X46101Y330200D01*
X46101Y355600D02*
X37719Y355600D01*
X37719Y381000D02*
X46101Y381000D01*
X46101Y406400D02*
X37719Y406400D01*
X37719Y431800D02*
X46101Y431800D01*
X46101Y457200D02*
X37719Y457200D01*
X37719Y482600D02*
X46101Y482600D01*
X46101Y508000D02*
X37719Y508000D01*
X37719Y533400D02*
X46101Y533400D01*
X46101Y558800D02*
X37719Y558800D01*
X37719Y584200D02*
X46101Y584200D01*
X46101Y609600D02*
X37719Y609600D01*
D12*
X610000Y533400D03*
X635000Y533400D03*
X660000Y533400D03*
D11*
X129921Y279400D02*
X121539Y279400D01*
X121539Y254000D02*
X129921Y254000D01*
X129921Y228600D02*
X121539Y228600D01*
X121539Y203200D02*
X129921Y203200D01*
X129921Y177800D02*
X121539Y177800D01*
X121539Y152400D02*
X129921Y152400D01*
X129921Y127000D02*
X121539Y127000D01*
X121539Y101600D02*
X129921Y101600D01*
X129921Y76200D02*
X121539Y76200D01*
X121539Y50800D02*
X129921Y50800D01*
X402209Y279400D02*
X410591Y279400D01*
X410591Y254000D02*
X402209Y254000D01*
X402209Y228600D02*
X410591Y228600D01*
X410591Y203200D02*
X402209Y203200D01*
X402209Y177800D02*
X410591Y177800D01*
X410591Y152400D02*
X402209Y152400D01*
X402209Y127000D02*
X410591Y127000D01*
X410591Y101600D02*
X402209Y101600D01*
X402209Y76200D02*
X410591Y76200D01*
X410591Y50800D02*
X402209Y50800D01*
D13*
X508000Y390068D02*
X508000Y397332D01*
X533400Y397332D02*
X533400Y390068D01*
X558800Y390068D02*
X558800Y397332D01*
X584200Y397332D02*
X584200Y390068D01*
X609600Y390068D02*
X609600Y397332D01*
X635000Y397332D02*
X635000Y390068D01*
X660400Y390068D02*
X660400Y397332D01*
X685800Y397332D02*
X685800Y390068D01*
D11*
X410591Y406400D02*
X402209Y406400D01*
X402209Y381000D02*
X410591Y381000D01*
X410591Y355600D02*
X402209Y355600D01*
X402209Y330200D02*
X410591Y330200D01*
X410591Y304800D02*
X402209Y304800D01*
X402209Y584200D02*
X410591Y584200D01*
X410591Y558800D02*
X402209Y558800D01*
X402209Y533400D02*
X410591Y533400D01*
X410591Y508000D02*
X402209Y508000D01*
X402209Y482600D02*
X410591Y482600D01*
X508000Y564769D02*
X508000Y573151D01*
X533400Y573151D02*
X533400Y564769D01*
X508000Y592709D02*
X508000Y601091D01*
X533400Y601091D02*
X533400Y592709D01*
D14*
X50800Y698500D03*
D15*
X50800Y698500D03*
D14*
X50800Y50800D03*
D15*
X50800Y50800D03*
D14*
X698500Y50800D03*
D15*
X698500Y50800D03*
D14*
X698500Y698500D03*
D15*
X698500Y698500D03*
M02*
